<svg version="1.0" xmlns="http://www.w3.org/2000/svg" width="1472" height="1472" viewBox="0 0 1104 1104"><path d="M485.7 112.7c.4 15.3 1.7 52.8 2.8 86.7.3 8.8.7 16.2 1 16.4.2.2 2.7.4 5.7.5l5.3.1-.3-15c-.4-17.8-.3-19.6.3-20.2.5-.5 6.1-.8 29.4-1.5l8.4-.2 4.1 5.1c2.2 2.8 5.2 6.6 6.6 8.4 1.4 1.8 5 6.6 8 10.6s6.2 8.2 7 9.3c1.2 1.8 2.3 2 7.7 1.8 3.5-.1 6.3-.4 6.3-.6 0-.3-6.3-9.1-8.3-11.6-.4-.6-4.8-6.4-9.7-12.9-6.5-8.7-8.6-12.2-7.7-12.8.6-.5 2.9-1.8 4.9-2.8 5.7-3.1 11.7-9.5 14.6-15.8 2.4-5 2.7-6.9 2.7-16.2 0-9.4-.3-11.1-2.7-16-5-10.1-12.1-15.9-24.3-19.9-5.1-1.7-9.1-1.9-33.9-2.1l-28.2-.1.3 8.8zm61.4 5c10.5 4.9 15.3 12.5 15.2 24.4 0 11.6-4.3 18.9-14 23.9-2.3 1.2-5 2.3-6 2.5-1 .2-1.8.4-1.8.5 0 .6-5.3 1.1-13.5 1.4-22.5.8-26.1.9-26.8.2-.4-.4-.8-2.9-.9-5.4-.1-2.6-.4-13.3-.8-23.7-.3-10.5-.7-20.6-.8-22.5l-.2-3.5 7-.3c3.9-.1 7.4-.4 7.8-.5.4-.1 7-.2 14.5-.2 13.2.1 13.9.2 20.3 3.2zM606.5 104.9c-.3.6.1 2.5 1 4.2.9 1.7 2.2 4.8 3 6.8.7 2 2.2 5.6 3.3 8.1 1.2 2.5 3.1 7 4.2 10 1.2 3 2.8 7.1 3.7 9 .8 1.9 1.9 4.5 2.4 5.7.5 1.3 1.3 3.3 1.9 4.5 6 13.7 12.2 29.8 12.2 31.8 0 2.6-.8 8.7-1.7 13-.2 1.3-.7 4-1 6-.3 2-.7 4.5-.9 5.6-.2 1.2-.7 4.4-1.1 7.1l-.6 5 4.7.7c7.3 1 7.1 1.1 7.9-5.1.4-3.2.8-6.4 1-7.3.1-.8.6-3.5.9-6 .3-2.5.8-5.4 1-6.5.2-1.1.7-4.3 1-7 .6-4.1 1.7-6.2 5.4-10.6 2.6-3.1 6.5-7.8 8.7-10.4 2.2-2.7 4.9-5.8 6-7 1.1-1.1 3.6-4 5.6-6.5 2-2.5 4.7-5.6 5.9-7 1.2-1.4 3.9-4.5 6-7s4.7-5.5 5.7-6.6c1-1.2 3.6-4.3 5.8-7 2.2-2.6 4.6-5.4 5.4-6.1 1.9-1.9.4-2.9-5.7-3.8-3.8-.6-4.6-.4-5.9 1.5-.9 1.2-3 3.9-4.8 5.9-1.8 2-6.6 7.4-10.5 12.1-4 4.7-8.2 9.6-9.4 11-1.1 1.4-4.3 5.2-7.1 8.5-2.7 3.3-6.3 7.5-8 9.3-1.6 1.9-3.4 4-3.8 4.8-.4.8-1.2 1.4-1.7 1.4-.9 0-3.8-5.7-4.4-8.5-.1-.6-1.3-3-2.6-5.5-1.2-2.5-2.3-4.7-2.3-5 .1-.8-7.1-18.7-10.2-25.5-.7-1.7-2.6-6.2-4.1-10-1.5-3.9-3.1-7.4-3.5-8-.5-.5-.9-1.7-.9-2.6 0-1.3-1.2-1.9-4.2-2.4-2.4-.3-5-.9-6-1.1-.9-.3-1.9 0-2.3.5zM422.5 114.2c-3.8 1-7.9 2-9 2.2-2.5.6-41.6 9.6-43 10-1.6.5-8.9 2-9.7 2.1-.3 0-.9.3-1.3.7-.4.4-1.3.4-2.1.1-1.3-.5-1.9.9-1.4 3.2.1.5.9 3.7 1.7 7 .8 3.3 1.6 6.9 1.8 8 .3 1.1.9 4 1.5 6.5s1.3 5.6 1.6 7c.3 1.4 1.2 5.2 2.1 8.5.8 3.3 1.7 6.9 1.9 8 .2 1.1.6 2.9.9 4 .4 1.7 2.8 12.4 4 17.6.2.9.8 3.3 1.3 5.3.6 2 .8 3.6.6 3.6-.3 0 0 .8.5 1.7.5 1 1.1 3.1 1.4 4.8.3 1.6 1 5.2 1.7 8 .6 2.7 1.3 5.7 1.5 6.5 1 5 2.7 10 3.3 10 .4 0 4.3-.9 8.6-2 4.4-1.1 9.1-2.3 10.5-2.6 3.7-.7 5.6-1.2 5.6-1.4 0-.1.9-.3 2-.5 3.2-.6 8.9-1.8 10-2.1.6-.2 8.9-2.1 18.5-4.4 22.5-5.3 20.9-4.7 20.4-7.3-1-5.6-1.4-7-1.7-7.4-.3-.2-11.2 2.1-24.3 5.2-13.2 3.1-25 5.8-26.4 6.1-1.4.3-3.3.7-4.2 1-2.7.8-7.1 1.7-9.3 1.8-1.9.1-3.4-3.8-6-15.9-.3-1.1-1.4-5.8-2.5-10.5s-2.2-9.5-2.5-10.6c-.3-1.4.1-2.4 1.1-2.8 1.2-.5 15.3-3.9 29.4-7.1.8-.2 3.8-.9 6.5-1.5 2.8-.6 5.9-1.3 7-1.6 7.4-1.4 11.5-2.8 11.5-3.7 0-.7-.5-2.9-1.1-5-1.2-4.4-.7-4.4-16.4-.4-3.3.9-7.3 1.9-9 2.2-1.6.3-3.4.7-4 .9-.5.1-2.8.7-5 1.1-5.5 1.2-5.5 1.2-5.7 1.5-.2.1-1 .3-1.8.5s-4.4 1-8 1.8c-3.5.9-6.8 1.4-7.1 1.1-.6-.4-2.2-6.3-2.5-9.4-.1-.8-.4-2.2-.7-3-.8-1.8-4.6-18.1-5.3-22.8-.4-1.9-.1-3.2.5-3.3.6-.1 1.4-.2 1.9-.3.4-.1 2.5-.6 4.7-1.1 2.2-.5 4.2-.9 4.5-1 .3 0 2.8-.7 5.6-1.4 2.9-.7 5.8-1.4 6.5-1.5.8-.2 2.5-.6 3.9-.9 4.1-1.1 20.3-4.9 22.5-5.3 12.3-2.4 12.6-2.6 12.1-5.8-.8-5.1-1.2-6.5-1.7-6.9-.2-.1-3.5.5-7.4 1.5zM804.5 157c-2.2 5.5-4.3 10-4.7 10-.3 0-1.7-1.7-2.9-3.8-1.3-2-3.1-4.6-4.1-5.6-1-1.1-1.8-2.4-1.8-2.8 0-.5-.8-1.8-1.9-2.9l-1.9-2-2.7 2.4-2.8 2.4 2.9 3.9c1.6 2.1 3.1 4.1 3.4 4.4 1.7 1.7 7.1 9.2 6.9 9.5-.2.1-3.1.6-6.4.9-9.7 1.1-15 1.8-15.3 2.1-.3.3-.6 4.4-.3 6.2.1 1.3 4 1 18.4-1.3 2.8-.4 3.7-.2 3.7.8 0 .8-.3 1.8-.7 2.2-.5.4-.8 1.1-.9 1.4-.1.8-.8 2.6-4.1 10.1-2.2 5.1-2.2 5.4-.6 6.7 1 .8 2.6 1.3 3.6 1.1 1.7-.2 2.6-1.8 7.2-13.2.5-1.1.7-2.3.7-2.8-.1-.4.3-.7.8-.7.6 0 .9-.3.9-.8-.6-3.5.5-2.5 8.4 8.1 4.9 6.5 6.1 7.6 7.6 6.8 4.6-2.5 4.6-3.7-.6-10.3-2.8-3.5-5.8-7.6-6.9-9.2l-1.8-2.9 2.7.5c1.5.3 2.7.2 2.7-.1 0-.4 1-.7 2.3-.7 5.9-.2 13.1-1.4 13.7-2.4.4-.6.5-2.1.4-3.3-.1-1.2-.3-2.5-.3-3-.1-.4-1.3-.5-2.8-.3-3.3.6-9.2 1.4-14.5 2-2.1.3-4 .1-4.3-.4-.5-.8 2.5-9.6 4.4-13 .5-.9 1.2-3 1.5-4.7.6-2.8.4-3.2-2.5-4.2-1.8-.6-3.2-1.1-3.3-1.1-.1 0-1.9 4.5-4.1 10zM249.8 171.6c-4.3 2.1-4.7 2.6-3.9 4.7 1 2.6 5.2 11.9 24.3 53.7 4.4 9.6 10.2 22.3 12.8 28.2 8.4 18.6 7.9 17.8 10.3 16.9 2-.8 9.9-4.3 20.2-9.1 2.2-1 5.5-2.4 7.3-3.2 1.7-.7 3.2-1.6 3.2-1.9 0-.3.6-.6 1.3-.6.6 0 5.3-2 10.2-4.3 5-2.4 12.3-5.8 16.2-7.6l7.3-3.3-1.3-2.8c-3-6.9-2.3-6.8-13.3-1.7-10.2 4.7-16.5 7.6-17.4 7.9-.3.1-2.6 1.1-5.1 2.2-11.9 5.4-16.7 7.6-20.1 9.3-3.3 1.7-3.8 1.7-5 .3-.7-.9-1.1-1.7-.9-1.7.2-.1-.3-1.7-1.2-3.6-11.3-24.4-16.4-36-15.9-36.5.3-.3 0-.5-.6-.5-.7 0-1.2-.4-1.2-.9s-1.4-4-3.1-7.8c-1.7-3.7-3-7-3.1-7.3 0-.3-.3-1-.8-1.5-.4-.6-3.6-7.3-7-15-3.5-7.7-6.8-14.5-7.4-15.1-.8-.8-2.4-.4-5.8 1.2zM912.1 228.7c-3.6 1.4-7 3.8-9.6 6.7-5.2 5.7-6.7 7.6-6.1 7.6.3 0-.1 1.7-.8 3.7-3.2 9.6 1 20.5 15.7 40.3 12.3 16.6 15 25.5 9.8 32.7-4.4 6-7.7 7.8-14.6 7.7-9.9-.2-20.7-6.5-29.9-17.5-6.2-7.3-8.3-11.6-12.2-24.6-.2-.9-1.5-.7-4.6.7-4.5 2-4.8 2.7-3.3 9.4 1.9 8.8 14.4 26.5 24 33.9 6.9 5.2 20.1 11.1 25 11 8.5-.2 15.2-2.7 21.2-7.8s8.8-11.5 8.7-19.5c-.2-8.4-2.9-14.3-13.2-28.8-13.2-18.3-15-21.7-15.6-28.7-.7-6.8 5.1-14.6 12.1-16.4 4.8-1.2 12-.5 15 1.4 1.3.9 2.3 1.3 2.3 1 0-1.2 9.3 5.9 14.1 10.6 5.4 5.4 9.1 10.9 11.6 17.1.9 2.4 1.7 4.4 1.8 4.6.1.1 2.3-.9 4.8-2.3l4.6-2.6-2.5-5.7c-4.5-10.3-10.1-17.2-21.5-26.7-3.2-2.7-11.4-6.9-16.4-8.5-6.5-2.1-14-1.9-20.4.7zM148.3 237.4l-4.2 3.3 2.6 3.9c1.5 2.1 2.9 4.1 3.3 4.4.3.3 4.1 5.2 8.4 11 4.2 5.8 8.6 11.6 9.6 13 1 1.4 5.1 6.8 9 12 3.9 5.2 8 10.6 9.1 12 1.1 1.4 7 9.3 13.2 17.7 6.2 8.4 11.5 15.2 11.9 15.3.3 0 4.4-2.8 9-6.3 4.6-3.4 9.4-7 10.8-7.9 1.4-1 8.9-6.6 16.7-12.5 7.8-5.9 15.1-11.5 16.3-12.3 1.2-.8 3.2-2.4 4.6-3.4l2.4-1.9-2.7-3.6c-1.4-2-2.8-3.7-2.9-3.9-.3-.4-4.7 1.9-5.4 2.8-.3.4-5 4-10.5 8.1-5.5 4-10.5 7.8-11.2 8.4-.6.5-4.6 3.5-8.8 6.5-4.2 3-9 6.7-10.7 8.1-1.8 1.5-3.6 2.5-4.2 2.3-.6-.3-4.9-5.7-9.6-12-4.7-6.4-9.2-12.4-10-13.4-.8-1.1-10.4-13.8-21.3-28.4-10.9-14.6-20.2-26.6-20.5-26.5-.4 0-2.6 1.5-4.9 3.3zM1004.7 295.6c-3.1 2.1-3.7 2.9-3.1 4.7.4 1.2 1.2 2.6 1.9 3.2.6.5 2.9 3.7 5.1 7 2.1 3.3 4.1 6.2 4.4 6.5.3.3 2.7 3.5 5.3 7.2l4.7 6.6-3.3 2.1c-1.8 1.1-4.3 2.8-5.5 3.8-1.2 1-4.3 3.3-7 5.1-2.6 1.8-9.4 6.6-15.2 10.7-5.8 4.1-11.2 7.9-12 8.5-.8.5-5.9 4.2-11.3 8-5.3 3.9-10.2 7-10.7 7-.6 0-1 .4-1 .8s-3.6 3.2-8 6.2c-4.5 2.9-8.3 5.7-8.6 6.1-.6 1 1.3 4.4 4.2 7.7l2.1 2.3 16.9-11.7c9.3-6.5 17.1-12.1 17.4-12.4.3-.4 1.2-1 2-1.3.8-.4 11.6-7.9 24-16.6 24.4-17.3 22.8-16.6 26.8-10.5 2.3 3.6 4.7 7 11.6 16.6l6.8 9.7 3.9-2.6c4.1-2.7 4.7-4.3 2.6-6.5-.7-.7-3.7-4.9-6.7-9.3s-5.7-8.2-6.1-8.5c-.3-.3-2-2.8-3.9-5.5-1.8-2.8-5.1-7.5-7.2-10.5-2.2-3-5.6-8-7.6-11-4-6-4.1-6.1-7.4-10.5-1.3-1.7-3.9-5.3-5.8-8-1.9-2.8-3.8-5.2-4.2-5.3-.5-.2-.6-.8-.2-1.3 1-1.6-1.1-.9-4.9 1.7zM70.1 319.7l-3.4 4.8 2 3.5c1.1 1.9 3.9 7.1 6.3 11.5s5.2 9.6 6.3 11.5c1.1 1.9 3.8 6.9 6.1 11 7.1 13.2 9 16.7 11.9 21.5 1.5 2.6 2.7 5.3 2.7 6 0 .8.4 1.5.9 1.7.4.1 2.9 4.1 5.3 8.8 2.5 4.7 5.7 10.5 7 13 1.4 2.5 4 7.2 5.8 10.5 4.9 9.2 5 9.2 8.9 3.5l3.3-4.9-3.2-5.8c-1.8-3.2-4.7-8.3-6.3-11.3-1.7-3-3.8-6.6-4.8-8-1.6-2.4-1.6-2.7.4-5.5 2.7-3.9 12.9-17.7 14-19 .5-.6 5.4-7.1 10.9-14.5 6.1-8.2 10.7-13.5 11.7-13.4 1.6.1 5.5.8 10.1 1.8 22 4.7 20.1 4.5 21.9 2.4.9-1.1 2.4-2.9 3.4-4 .9-1.2 1.7-2.6 1.7-3.3 0-1.1-12.2-4.4-17-4.7-.8 0-4-.7-7-1.4-3-.8-6.6-1.7-8-1.9-4-.8-5.6-1.1-23.5-5-9.3-2-17.9-3.8-19-4-3.4-.6-7.8-1.6-11.5-2.5-1.9-.5-4.6-1.1-6-1.4-1.4-.2-7.9-1.6-14.5-3S74.2 315 73.9 315c-.3 0-2 2.1-3.8 4.7zm20.7 9.9c6.3 1.5 8.1 1.8 13.5 2.8 1.2.2 6.3 1.4 11.2 2.5 17.3 4.2 21 5 24.5 5.6 1.9.3 3.5.7 3.6.8.3.2-12.9 18.2-15.7 21.5-1 1.2-1.9 2.6-1.9 3.1s-.3 1.1-.8 1.3c-.4.1-3.2 3.7-6.2 7.8s-5.9 7.8-6.4 8.2c-.5.3-3.5-3.9-6.6-9.5-3.1-5.6-6.9-12.5-8.5-15.2-1.5-2.8-3.8-6.8-5-9-8.1-14.9-9.9-18.1-10.6-19-1.5-1.6-1-3.8.7-3.1.8.3 4.5 1.3 8.2 2.2zM588.8 356c-3.4 1.6-5.1 3.2-10.3 9.3-3.1 3.6-11.7 13.4-15 17.2-1.6 1.8-3.9 4.4-5 5.7-4.8 5.7-12.2 14.2-14 16.2-1.1 1.1-6.2 7-11.4 13.1-9.9 11.5-14 16.1-18.1 20.6-1.4 1.5-3.7 4.2-5.2 6.1-1.5 1.9-4 4.8-5.5 6.4-3 3.3-3.3 3.6-17.7 20.4-5.5 6.3-10.9 12.4-12 13.6-1.2 1.2-3.2 3.4-4.5 5-6.5 7.7-12.8 15-14.6 17-1.1 1.1-3.1 3.4-4.5 5s-6.8 7.8-12 13.9c-5.2 6-10.6 12.3-12 13.9-1.4 1.6-3.6 4.2-5 5.7-3.4 3.7-6.6 7.3-13 14.9-3 3.6-6.2 7.2-7 8-.9.8-2.8 3.1-4.4 5-1.6 1.9-5.2 6.2-8.2 9.5-13.7 15.5-11.3 14.1-24.9 14.9-4.4.3-11.4.8-15.5 1.1-4.1.3-11.1.7-15.4 1-7.3.3-10.3 1.5-9 3.6.2.4.6 2.4 1 4.5.3 2 1 4.9 1.6 6.3.5 1.4.9 2.8.9 3.1-.1.3.6 3 1.5 6s1.8 6.3 1.9 7.3c.5 2 3 4.8 5.9 6.2 1.2.6 2.1 1.6 2.1 2.2 0 .8-9.8 12.6-18 21.7-.5.6-3.9 4.5-7.5 8.6s-6.9 8-7.5 8.6c-5.3 5.9-12.1 13.9-12.7 14.9-.4.7.3 2.2 1.6 3.4l2.4 2.2 2.9-2.8c1.7-1.5 7.4-6.9 12.8-11.8 5.4-5 11.4-10.6 13.5-12.5 3.6-3.3 16.4-15.1 26-23.9l4.5-4.1 7 .7c13.8 1.4 58.2.7 69.5-1.2 1.4-.2 5.4-.6 9-1 3.6-.4 7.9-.8 9.5-1.1 1.7-.2 4.8-.6 7-.9 2.2-.2 5.6-.7 7.5-1 1.9-.3 5.1-.8 7-1 1.9-.2 7.6-1.2 12.5-2 5-.9 10.1-1.8 11.5-2 1.4-.2 2.5-.4 2.5-.5 0-.1 1.1-.3 2.5-.4 3-.4 6.7-1.1 18-3.6 4.7-1 9.9-2.1 11.5-2.4 3.7-.6 3.5-.6 22.5-5.1 8.5-2.1 16.2-3.9 17-4 .8-.2 1.5-.4 1.5-.5 0-.1 17.2-4.9 20.2-5.5 1.2-.3 10.2-3 20-5.9 62.4-19 114.3-42.7 140.3-64.1 7.6-6.2 15.9-15.8 17.3-19.8 1.4-4.3 1.6-19.8.3-25.5-2.2-9.8-8.2-28.2-9.1-28.2-.3 0-17.4 11.4-19 12.7-.5.5-2.8 2-5 3.3-2.2 1.3-4.6 3-5.3 3.7-.7.7-1.8 1.3-2.3 1.3-.5 0-1.5.5-2.2 1.1-2 1.7-27.7 16.8-27.7 16.2 0-.3-.6 0-1.3.6-2.1 1.7-25.8 13.9-39.7 20.4-14.3 6.7-35.6 15.4-51.5 21.1-15.3 5.5-16.7 6-19 6.6-.5.2-4.1 1.4-8 2.7-3.8 1.3-10.4 3.3-14.5 4.4-9.9 2.7-24.9 6.6-28 7.3-1.4.3-6.3 1.5-11 2.6s-9.6 2.3-11 2.6c-1.4.3-3.3.7-4.2 1-1 .3-3 .7-4.5 1-2.8.4-5.6 1-10.3 2-1.4.2-3.6.7-5 .9-1.4.3-6.1 1.2-10.5 2-4.4.9-9.1 1.7-10.5 2-2.5.4-19.3 3.2-24 4.1-1.4.2-4.7.7-7.5 1-2.7.3-5.8.8-6.9 1.1-1 .3-3.5.7-5.5.9-2 .2-5.7.5-8.3.8-2.6.2-5.2.7-5.8 1.1-.5.3-1 .2-1-.3 0-.4 3.5-4 7.8-7.9 8.2-7.6 19.1-17.6 25.2-23.3 2-1.9 8.4-7.8 14-13 5.7-5.2 12.6-11.6 15.4-14.3 6.1-5.7 9.4-6.1 15.4-1.7 8.5 6.1 9.7 5.6 24.7-11.5 3.3-3.7 7.1-8 8.5-9.5 1.4-1.5 5.2-5.8 8.5-9.5 7.6-8.7 13.6-15.4 15.5-17.5.8-.8 4.4-4.9 8-9 3.6-4 7.2-8.1 8-9 .8-.9 4.9-5.4 9-10s8.6-9.5 9.8-10.9c1.3-1.4 4.7-5.3 7.5-8.5 2.9-3.3 5.7-6.4 6.3-7 .5-.6 3.4-3.8 6.3-7.1 3-3.3 6.8-7.6 8.5-9.5 1.7-1.9 6.3-7.1 10.1-11.5 3.9-4.4 7.3-8.2 7.6-8.5 2.8-2.3 3.3-10.5 1-15.1-.7-1.5-2.4-3.3-3.7-4-1.3-.7-2.4-1.6-2.4-2.1 0-.4-.6-.8-1.4-.8-.8 0-1.6-.3-1.8-.8-.1-.4-2.3-2.3-4.8-4.2-2.5-1.9-4.7-3.7-5-4-.3-.4-2.6-2.1-5.2-3.8-5.8-4-11.8-4.8-17-2.2zM380.3 613.4c5.5 4.8 5 13-1 16.7-9.1 5.7-20.1-4.6-14.9-14 2.9-5.2 11.3-6.6 15.9-2.7zM1032 423.6c-11.3 2.2-18.8 5.5-27 12.1-16.3 13.2-23.6 34.7-19 56.7.6 3.1 1.1 5.8 1.1 6.1 0 1.1 5.2 12.1 6.4 13.5.8.8 1.3 1.8 1.2 2.2-.4 1.5 10.2 12.5 15.5 16.1 20.8 14.4 52.4 11.9 71-5.6 12.3-11.5 17.7-23.2 18-38.7.8-40.1-30.6-69.3-67.2-62.4zm23.8 12.3c19.9 5.5 33.6 25.5 32.7 48.2-1 26.3-21 44.1-48.7 43.4-8.8-.2-10.4-.6-17.1-3.7-19.7-9.4-30.5-31.8-26.2-54.3 1-5.4 6.9-16.2 11.3-20.8 3.5-3.6 10.7-8.5 12.6-8.5.5 0 1.2-.5 1.6-1.1.3-.6 1.6-1.4 2.8-1.6 1.2-.3 3.2-.7 4.5-1 10-2.5 18.9-2.6 26.5-.6zM24.4 424.9c-10.3 6.3-19.8 22.3-23 39.1-1.2 6.3-1 19.4.3 25 .8 3 1.5 5.9 1.6 6.5.2.5 1.6 3.7 3.2 7 3.9 7.7 15.1 19.1 23 23.2 16.8 8.8 37.3 9 53.8.6 5.4-2.7 5.8-3 12.3-8.8 16.4-14.6 23.2-42.5 16.2-66-1.3-4.3-4.5-9.6-5.6-9.3-.4.1-4.1-.6-8.2-1.5-4.1-1-8.5-1.9-9.8-2.2-1.3-.2-3.2-.7-4.2-1-2.1-.7-5.4-1.4-9-2-1.4-.2-4-.7-5.7-1.1-2.5-.5-3.3-.3-3.4.7-.1 1.7-.6 4.5-1.3 7.4-.5 2.1.4 2.4 17 6.6 18.9 4.7 19.4 4.9 19.8 7 .2.8.7 2.3 1.2 3.4s.8 6.9.8 13c0 8.8-.5 12.3-2.3 17.5-1.3 3.6-3 7.2-3.7 8.1-.8.8-1.4 2-1.4 2.6 0 .6-2.6 3.8-5.8 7.1-12.5 12.9-28.3 16.7-46.5 11.2-9.3-2.9-12-4.5-20.4-12.9-5.2-5.3-10.3-14.1-10.3-18 0-1-.3-2.1-.7-2.5-1.4-1.3-1.9-13.9-.8-18.6.3-1.4.8-3.6 1-5 1.4-8.8 7.2-18.8 15.1-25.7l5.4-4.8-2.8-4.2-2.8-4.2-3 1.8zM994.5 576.2c-3 9.4-3 9.4 3.3 10.9 3.2.7 6.2 1.4 6.7 1.5.6 0 1.7.3 2.5.7 2.1.7 10 2.8 12.6 3.2 1.2.1 3.1.8 4.2 1.4 1.8.9 2 1.6 1.2 3.6-.5 1.4-1.2 3.7-1.5 5-.3 1.4-.7 3.7-1 5.2-.3 1.4-1 3.4-1.6 4.5-.5 1-.8 1.8-.5 1.8.2 0-.3 2.1-1.1 4.7-1.3 4.4-2.1 7.7-2.7 11.1-.3 1.9-1.6 2.7-7.6 5-3 1.2-6.8 2.7-8.5 3.3-1.6.7-3.2 1.3-3.5 1.3-.3.1-5 1.9-10.5 4-9.8 3.8-11.9 5-12.1 6.4 0 .4-.6 2.5-1.2 4.6-.6 2.2-.9 4.2-.7 4.5.3.2 2 0 3.8-.6 9-3 19.4-6.6 20.9-7.4 3.8-1.9 17.8-6.2 18.4-5.6.3.3.8 2.3 1 4.3.7 7.6 6.8 17.1 14.4 22.7 7 5.1 21.8 8.3 30 6.4 3.3-.7 9.5-3 10.9-4.1 3.6-2.6 14.1-14 14.1-15.2 0-.8.5-1.4 1-1.4.6 0 1-.6 1-1.3 0-.8.7-2.8 1.6-4.5.8-1.7 1.7-4.3 2-5.7.2-1.3.9-3.6 1.4-5 .5-1.4.7-2.5.5-2.5-.2 0 0-1.2.6-2.8 1.7-4.5 8.9-32.6 8.4-33-.3-.4-10.3-3.4-15.7-4.8-4.3-1-5.9-1.4-7.9-1.9-1.2-.2-4.5-1.1-7.3-1.9-4.9-1.4-24.1-6.6-26.1-7-.5-.2-3-.8-5.5-1.5s-5.2-1.5-6-1.6c-.8-.2-4.9-1.3-9-2.5-4.1-1.1-8.3-2.2-9.3-2.5-2.1-.5-16.4-4.3-18.8-5.1-1.1-.3-1.9.3-2.4 1.8zm51 23.8c2.2.6 4.7 1.3 5.5 1.4.8.2 2.2.6 3 .9 1.9.7 20.7 5.6 24 6.3 2.1.4 5.9 1.4 10.7 2.9.9.3.9 1.3.2 4.1-.6 2-1.2 4.4-1.5 5.3-.5 2.1-1.8 7.2-3.9 14.6-.9 3.3-1.9 7.1-2.1 8.5-.8 3.9-5.5 11.9-9.4 15.8-10.6 10.6-28.5 9.7-39.7-2-1.8-1.8-3.2-3.5-3.2-3.8 0-.3-.5-1.9-1.2-3.5-1.9-4.6-2.1-17.4-.3-23.1.8-2.7 1.7-5.6 1.9-6.5.8-3.6 5.8-22.5 6.1-23.1.2-.3 1.6-.2 3.2.2 1.5.5 4.5 1.4 6.7 2zM35.6 633.9c-.3.9-.8 2.9-1 4.6-.6 3.1-1.7 10-2.1 12.4-.4 2.8-2 2.1-7.5-3-3-2.8-6.6-5.9-8-6.9-2.5-1.8-2.6-1.8-4.8.7-2.6 2.9-2.7 3.9-.8 5 .7.4 3.7 2.8 6.6 5.3 2.9 2.5 6 5 6.9 5.7 2.3 1.6 1.1 2.4-9.2 6-8.3 2.8-9.2 3.4-8.9 5.5.5 4.1 1.8 4.2 12 .5 5.5-2 10.2-3.3 10.5-3 .3.3.2 1.6-.3 2.9-.5 1.3-1.2 4.5-1.6 7.1-.3 2.6-.9 5.7-1.3 6.8-1.3 3.6-.7 4.9 2.8 5.7 1.8.5 3.5.8 3.6.6.5-.4 1.2-4.2 2.6-13.3.6-3.9 1.4-7.4 1.8-7.8.4-.4 4.3 2.6 8.6 6.7 4.4 4 8.4 7.2 8.9 7 .6-.3 1.9-1.5 2.8-2.8 1.7-2.4 1.7-2.5-3-6.3-2.6-2.1-6.4-5.4-8.6-7.4l-3.8-3.7 5.3-1.8c3-1 5.6-1.8 5.9-1.9.3 0 2.6-.8 5.1-1.8l4.7-1.8-1.1-3.4c-.9-3.1-1.3-3.4-3.6-2.8-1.4.3-3 .9-3.6 1.3-1.1.8-8.8 3.4-9.3 3.1-.1-.1-1.6.6-3.3 1.5-2.9 1.5-3.1 1.4-2.5-.3.3-1 .8-3.4 1.1-5.3.3-1.9 1-5.9 1.5-8.9 1.4-7.6 1.4-7.6-2.5-7.7-2.4-.1-3.6.4-3.9 1.5zM947 695c-5.2 7.1-9.8 12.9-10.2 13-.5 0-.8.7-.8 1.5s-.4 1.5-.9 1.5-1.8 1.5-2.9 3.2c-1.1 1.8-2.7 4.2-3.6 5.3-.9 1.1-5.6 7.2-10.5 13.6l-8.8 11.6 3.8 3.1 3.8 3.2 3.3-3.6c1.8-2 3.7-4.3 4.2-5.2 1-1.7 11.1-14.6 13.4-17 .6-.7 1.2-1.7 1.2-2.1 0-.4.9-1.7 1.9-2.8 1.1-1.2 4.9-6 8.5-10.7 8.7-11.4 9.9-12.7 10.6-11.8.3.5 7 5.8 15 11.8 7.9 6 15 11.3 15.7 11.9 1 .8.5 1.9-2 5.1-1.7 2.2-4.3 5.6-5.7 7.4-1.4 1.8-4.5 5.9-7 9-2.5 3.1-5.6 7.2-7 9-1.4 1.8-4.8 6.3-7.6 9.9l-5.1 6.6 3.1 2.7c3.9 3.4 4.8 3.5 7.2.1 1-1.4 2.6-3.3 3.4-4.2.9-.9 3.1-3.9 5-6.6 1.9-2.7 4.2-5.7 5-6.7.8-.9 5.3-6.9 10-13.2 4.7-6.3 8.8-11.5 9.1-11.6.5 0 16.8 11.7 17.9 13 .3.3 3.2 2.5 6.5 4.9 3.3 2.5 6.3 4.9 6.6 5.4.4.5-1.6 4-4.5 7.6-2.8 3.7-6 8-7.1 9.5-1.1 1.6-2.5 3.3-3 4-.6.6-3.3 4.1-6 7.8-2.7 3.8-5.2 6.8-5.7 6.8-.4 0-.8.4-.8 1 0 .5-2.5 4.2-5.5 8.1l-5.5 7.1 3.6 2.9c2 1.6 4 2.9 4.4 2.9.4 0 5.2-6 10.6-13.2 10-13.4 12-16.1 13.9-18.2.6-.6 2.2-2.7 3.5-4.6 1.3-1.9 2.7-3.7 3-4 .3-.3 1.7-2.1 3-4 1.4-1.9 2.8-4 3.2-4.5.5-.6 2.2-2.8 3.8-5 1.6-2.2 3.5-4.6 4.1-5.3.6-.7.9-1.6.7-2.1-.2-.4-9.7-7.9-21.3-16.6-11.5-8.7-21.2-16.1-21.5-16.4-.3-.3-2.3-1.9-4.6-3.4-2.2-1.5-4.9-3.5-6-4.5-4.1-3.6-14.4-11.2-15.3-11.2-.5 0-1.1-.4-1.3-.9-.4-1-17.9-14.1-18.7-14-.3 0-4.9 5.8-10.1 12.9zM154.1 713.5l-3.4 3.5 15.6 15.7c8.6 8.7 19.2 19.6 23.7 24.2l8.1 8.4-14.8 14.5-14.8 14.4-20.2-20.8-20.2-20.9-3.9 3.8-3.9 3.9 12.7 13.1c22.7 23.3 26 26.9 26 28 0 .5-5.9 7-13.2 14.3l-13.1 13.3-12.4-12.7c-6.9-7-16.9-17.3-22.4-23-5.5-5.6-10.3-10.2-10.7-10.2-.4 0-2.2 1.5-3.9 3.4l-3.2 3.3 10.7 11c5.9 6.1 17.7 18.3 26.2 27.2 8.5 8.8 15.8 16.1 16.3 16.1.4 0 7.9-6.9 16.5-15.4 8.6-8.4 20.9-20.4 27.2-26.6 20.8-20.2 36-35.2 36-35.5 0-.2-3.9-4.3-8.6-9.2-4.7-4.8-17-17.5-27.2-28-10.3-10.6-18.9-19.3-19.2-19.3-.3 0-2 1.6-3.9 3.5zM234.6 788.2c.4 5.7 1.3 15.1 1.8 19.3.9 7.5 1.8 16 2 19.7l.2 3.7-7-.1c-3.9 0-8.9.4-11.1 1-6.2 1.8-14 7.1-18.5 12.9-5.1 6.4-8.9 18.2-8.4 25.7.4 4.9 3.4 14.6 4.5 14.6.5 0 .9.7.9 1.5 0 2.5 13.1 14.9 19.5 18.5 3.3 1.8 8 4.4 10.5 5.8 2.5 1.4 7.4 4.2 10.9 6.4 3.4 2.1 6.5 3.8 6.7 3.8.3 0 2.2 1.1 4.4 2.5s4.4 2.5 4.8 2.5c.5 0 1.7-1.8 2.7-4 1-2.2 2.2-4 2.7-4 .4 0 .8-.4.8-1 0-.5 1.3-3.1 2.9-5.8 2.9-4.9 5.7-9.9 10.7-18.7 1.5-2.8 3.2-5.2 3.6-5.3.4-.2.8-.8.8-1.3s3.2-6.4 7.2-13.2c3.9-6.7 7.6-13.2 8.2-14.4.6-1.3 1.4-2.3 1.9-2.3.4 0 .7-.9.7-1.9 0-1.1.3-2.1.8-2.3 1-.4 9.2-14.4 9.2-15.7 0-.6.4-1.1.8-1.1.5 0 1.4-1.1 2-2.5 1.2-2.7 1.6-2.2-6.1-6.9-3.3-2-3.3-2-9.2 8.9-5.7 10.4-9.1 16.4-10.5 18.2-1.5 2-1.8 1.9-17-6.8-8.5-4.8-16.1-9.2-16.8-9.6-.7-.4-1.5-2.6-1.7-4.8-.7-6.7-1.5-14.7-2.1-22.4-.3-4.1-.8-8.1-.9-9-.2-.9-.4-3-.4-4.7-.1-2.6-1-3.7-5.6-6.8-3-2-5.6-3.6-5.8-3.6-.2 0-.3 1.5-.1 3.2zm6.4 55.4c2.1.4 11.9 5.6 18 9.4.8.5 5.4 3.2 10.3 6 6 3.5 8.7 5.6 8.7 7 0 1-.3 2-.8 2.2-.4.1-5.5 8.4-11.2 18.3-5.8 9.8-11.1 18.8-11.7 20-.7 1.1-1.6 2.8-1.9 3.8-.8 2.1-2.7 1.7-9.2-2.3-2.6-1.5-9.2-5.4-14.7-8.6-16.6-9.6-23-18-22.7-29.9.1-4.5.9-7.5 3.3-12.3 1.8-3.4 3.5-6.2 3.8-6.2.3 0 1.8-1.1 3.2-2.4 5.5-5.1 14.2-7.9 19.4-6.4 1.7.5 4.1 1.1 5.5 1.4zM895 849.2c-.8 1.3-2.9 5.6-4.7 9.7-1.7 4-3.5 7.6-3.8 8-.8.7-1.3 0-7.7-10.3l-4.8-7.5-3 1.5c-1.6.9-3 1.7-3 2 0 .2 1.1 2.2 2.5 4.4s2.5 4.4 2.5 5c0 .5.4 1 .9 1s1.6 1.6 2.5 3.5c.9 1.9 2.1 3.7 2.6 4 .6.3 1 1.1 1 1.6 0 .6-.5.7-1 .4-1.1-.7-7.3-.8-16.5-.3-5 .3-5 .3-5 3.8v3.5l8.5-.3c4.7-.2 9.7-.5 11.2-.6l2.7-.3-2.2 4.1c-1.2 2.2-2.5 4.3-2.8 4.6-1.1.9-5.9 9.7-5.9 10.7 0 1.1 5.8 3.9 6.4 3.2.2-.2 2.5-4.6 5-9.7 2.6-5 5-9.2 5.4-9.2.4 0 3.2 4.1 6.2 9 3 5 5.7 9 6.1 9 .3 0 1.8-.9 3.2-2l2.6-2.1-4.5-6.7c-2.5-3.7-4.7-7.5-5.1-8.5-.3-.9-1-1.7-1.5-1.7s-.6-.4-.3-1c.3-.5 3.6-.9 7.3-.9h11l4.3-.1-.3-3.8-.3-3.7-7 .2c-3.8.1-8.7.4-10.7.7-2.2.2-3.8 0-3.8-.6s2.2-5.2 5-10.3l5-9.2-2.8-1.4c-1.5-.7-2.9-1.5-3.2-1.6-.3-.2-1.2.7-2 1.9zM729.5 849.5c-18 4.5-29.2 12.3-38.1 26.3-.2.2-4.5-1.9-9.7-4.7-9.5-5.1-11.7-5.3-11.7-1.1 0 .9-.5 2.1-1.2 2.8-1.5 1.5-.9 2.1 6.7 6.2 11.3 6.1 12.7 7.1 12 8.9-1 2.3-3 16.1-2.9 19.1.4 7.1.1 6.7 4.9 6.8 2.9.1 4.5-.3 4.6-1.1 0-.7.2-5.3.3-10.3.2-5 .6-9.6 1-10.2.4-.7 3.1.3 7.5 2.9 3.7 2.1 7.2 3.9 7.6 3.9.5 0 1.6.6 2.4 1.4 1.4 1.2 12.1 7.2 17.8 10 2.9 1.4 2.9 2.5.1 5.6-4.1 4.5-7.5 9.4-10.2 14.9-6 11.8-1.5 25.9 9.9 30.7 3.7 1.5 14.5 2.1 16.5.9.6-.3 2.2-.9 3.6-1.1 6.1-1.1 11.8-5.1 17-11.9 8.7-11.3 6.6-22.6-6.4-33.8-1.7-1.5-3.6-2.7-4.2-2.7-.5 0-1-.5-1-1 0-.6-.6-1-1.3-1-.7 0-1.8-.5-2.5-1.2-.9-.9-.3-1.9 2.3-4.4 1.9-1.8 3.5-3.7 3.5-4.2s.7-1.5 1.5-2.2c2.3-1.9 8.2-13 9.1-17 2.9-13.3-4-26-16.8-30.8-4.7-1.8-18-2.8-22.3-1.7zm13.8 10.6c8 2.2 13.7 10.6 13.7 20.2 0 4.8-4.3 13.2-10.3 20.1l-4.3 4.9-5.9-3.2c-3.3-1.8-7.3-4-9-5-3.3-1.9-13.9-7.8-19.5-10.7-1.9-1.1-3.6-2.2-3.8-2.7-.2-.4-.9-.7-1.6-.7-.7 0-1.7-.5-2.3-1.1-1.5-1.5 3-8.2 8.9-13.4 9.1-7.8 23.4-11.4 34.1-8.4zm6.5 60.8c8.2 5.3 11.7 10.7 11.6 17.8 0 5-.3 5.7-4.2 9.2-6.7 6.2-16.4 8-22.5 4.2-7-4.3-8.1-13.7-2.6-21.9 3.9-5.7 10.1-13.2 11-13.2.3 0 3.3 1.8 6.7 3.9zM372.8 854.5c-.2.2-2.3.5-4.8.9-4.6.6-8.3 1.3-8.7 1.6-.2.2-.6.3-1 .4-.5.1-3.5 1.5-6.8 3.1-7.3 3.6-18.8 14.8-23.2 22.5-6.3 11.2-8.9 24.9-7.2 38 .9 6.5 5.2 18.4 7.6 20.8.7.7 1.3 1.6 1.3 2 0 .4 2.2 3 4.9 5.9 5.7 6.1 15.8 12.9 22.1 14.8 1.3.4 9.7 2.8 11.5 3.2 4.8 1.3 21.4 1.1 26.7-.3 14.7-3.8 25.5-11.7 34-24.8 2.1-3.3 3.8-6.3 3.8-6.7 0-.4.5-2 1.1-3.6.6-1.5 1-2.8.9-2.8-.1 0 .4-1.3 1-2.9.6-1.6 1.3-4.7 1.6-7 3.5-27.5-11.5-51.1-39.1-61.5-5.6-2.1-24.4-4.7-25.7-3.6zm17.6 11.6c4.3 0 17 7.2 22.6 12.8 4.5 4.4 9.8 12.5 10.6 16.1 0 .3.3 1.2.7 2 2.5 6.4 2.8 17.4.6 26.2-.7 2.9-1.2 5.6-1.1 6 .1.5-.2.8-.6.8-.5 0-1.4 1.6-2.2 3.5-.8 1.9-1.7 3.5-2.2 3.5-.4 0-.8.6-.8 1.4 0 2.2-11.2 12-16.6 14.6-12.3 5.8-27.9 6.3-39.9 1.3-3.8-1.6-8.1-3.8-9.5-4.8-5.7-4.5-12.1-11.7-14.3-16.2-2.1-4.2-2.8-6.1-4.4-12.3-1-4-.8-15.1.4-20.3 2-8.7 7.4-18.3 13-23.4 10.1-9 25.1-13.9 36.8-12.1 2.8.5 5.8.9 6.9.9zM479.3 878.2c-.1.7-.4 14.1-.7 29.8-.3 15.7-.8 40.3-1.1 54.7l-.6 26.3 3.3.1c1.8.1 4 .2 4.8.3 1.4.1 6-5.5 6-7.4 0-.5.6-1.5 1.3-2.2.7-.7 4.7-7.2 9-14.3 4.3-7.2 8.2-13.7 8.7-14.5 7.8-12.7 14-23.1 14-23.5 0-.3.5-1.1 1.1-1.8.6-.7 3.2-4.7 5.8-9.1 2.6-4.3 5.1-7.8 5.6-7.8.7 0 2.8 3.3 8.3 13.2 1.1 1.9 6.1 10.9 11.2 20s10.7 19 12.4 22c1.7 3.1 5.8 10.4 9.1 16.3l6 10.7h4.7c3.9 0 4.8-.3 4.9-1.8.2-3.1 2.1-95.3 2.2-105 0-2.3-.2-4.5-.5-4.7-.7-.7-9.7-.9-10.4-.2-.6.5-1.2 29-1.7 76.4-.1 6.1-.5 10.9-.8 10.7-.4-.2-2.6-3.9-5-8.2-2.3-4.2-5.1-9.3-6.2-11.2-1.1-1.9-5-8.9-8.7-15.5-17.3-30.9-21.3-37.9-22.5-38.7-2-1.5-5-.8-6.4 1.4-4.3 6.8-27.1 44.1-27.1 44.4 0 .2-1.7 3-3.7 6.1-2.1 3.2-5.9 9.4-8.6 13.8l-4.7 8 .6-34c.3-18.7.7-38.8.8-44.8l.2-10.7H485c-3.8 0-5.7.4-5.7 1.2z"/></svg>