<svg version="1.0" xmlns="http://www.w3.org/2000/svg" width="1172" height="1172" viewBox="0 0 879 879"><path d="M482.9 129.8c.5.9 1.9 2.6 3 3.6 3.6 3.3 2.4 3.5-5.6.9-7.2-2.3-8.9-2.4-21.3-2-12.6.5-20 1.8-20 3.7 0 .4 1.9 1 4.2 1.3 3.3.4 4.9.1 7.2-1.6l3.1-2.1-1.9 2.2c-1.9 2.2-1.9 2.3 0 3.7 1.8 1.3 1.7 1.4-1.5 1.5-3.4 0-5.6 1.4-14.3 9.6-2.6 2.4-5 4.4-5.5 4.4-.4 0 2.4-3 6.2-6.6l7-6.6-5 .5c-2.7.3-10.4 2.3-17 4.3-10.4 3.3-13.3 3.8-21.7 3.9-5.4 0-9.8.3-9.8.6 0 1.2 7.8 7.7 11.2 9.5 3.2 1.7 3.2 1.7 1 2.7-1.2.6-2.2 1.3-2.2 1.6 0 1.2 5.5 3.8 9.3 4.4 3.5.5 4.3.2 8.5-3.6 2.6-2.3 5-4.7 5.4-5.2.5-.6.8-.6.8.1s-1.9 2.8-4.1 4.8c-2.3 2-4 3.9-3.7 4.2.3.3 3.7 1 7.4 1.5 3.8.5 8.7 1.4 10.9 2 5.7 1.6 17.8 7.3 19.4 9.2 1.7 2.2 1.3 2.1-5-.3-7.3-2.9-7.9-2.1-1.6 2.3 4.8 3.3 11.7 10.3 14 14.3 1.2 2.1.5 1.8-5.3-2.6-2.9-2.2-7.6-4.8-10.5-5.9-7.8-2.9-21.4-6.5-22.1-5.8-.7.6 8.1 9.6 22.5 23 4 3.8 7.1 7 6.9 7.2-.4.4-4.4-3.2-15.4-13.4-4.3-3.9-10.3-8.2-15-10.6-4.2-2.2-9.7-5.5-12-7.3-2.4-1.7-4.7-3.2-5.3-3.2-.5 0-2.6 1.5-4.7 3.4l-3.6 3.3 2.9 2.1c1.6 1.1 6.3 3.8 10.4 5.8 4.7 2.4 6.8 3.9 5.6 4.2-2.5.5-13.6-3.4-17.9-6.3-2-1.4-3.9-2.5-4.2-2.5-.2 0-3 2.4-6.2 5.4l-5.7 5.4 1.3 3.3c.7 1.9 2.1 4.5 3.1 6 1.2 1.7 1.5 3 .8 4-1.2 2-1.2 16.9.1 16.9.6 0 .4 1.3-.5 3-.8 1.6-1.5 4.9-1.5 7.4 0 4.7 0 4.8-6.6 6.1-5.7 1.1-9.4 7.3-9.4 15.5 0 1.9 2.1 8.2 4.6 14 3.8 8.7 4.7 11.9 5.1 18.5.8 11.9 3.6 16.1 12.3 18.7 1 .3 1.4 2.1 1.5 6.4 0 3.2.1 12.5.3 20.6l.2 14.6 3.7 3.4c2 1.8 6.1 5.5 9 8.2l5.4 5 5.2-5.2c2.9-2.9 5.7-5.2 6.2-5.2.6 0-1.7 2.4-5 5.4l-6 5.4 5 4.6c2.8 2.5 4.6 4.6 4 4.6-.5 0-2.8-1.9-5.2-4.2l-4.2-4.1-5.6 4.7c-3 2.6-5.5 5.3-5.5 6 0 .6-1.8 3-4 5.1-2.9 2.8-4.6 5.6-5.7 9.5-1.1 4-2.6 6.4-5.4 8.8-2.1 1.8-4.1 4.1-4.4 5.2-.5 1.6-1.5 2-5.4 2-5.2 0-12.8 3.3-17.3 7.5-1.5 1.3-2.9 2.1-3.2 1.6-.3-.5-3.2-.2-6.3.6-3.2.8-7.8 1.6-10.3 1.9-8 .6-22.3 3.5-25.7 5-1.8.9-3.5 2.4-3.8 3.4-.4 1.3-2.7 2.1-9.4 3.4-10.9 2-22.1 5.3-22.1 6.6 0 .6-1 1-2.2 1-6.6 0-20.6 12-30.3 25.8-2.7 3.9-5.5 7-6.1 6.9-.7-.1-10.4-9.3-21.7-20.4-25.3-24.7-25.7-24.9-35.5-17.5-4 3-18.2 19.5-18.2 21.1 0 1.9 1.3 1.2 11.5-6.4 5.6-4.2 10.2-7 10.4-6.3.2.6-3.5 4.9-8.3 9.6-8.1 8-9.8 10.2-7.7 10.2.5 0 4.6-3.2 9.2-7.1 9.3-7.8 11.5-9.3 12.3-8.1.3.5-3.5 4.9-8.5 9.8-4.9 4.8-8.9 9.2-8.9 9.6 0 1.5 2.7.8 4.4-1.1 3.2-3.5 16.5-13.3 17.6-12.9.6.2-3 4.4-8.1 9.4-12.2 12.1-11 14 2.1 3.3 5.4-4.5 10.4-7.9 11.1-7.7.6.2-3 4.4-8 9.3s-9.1 9.5-9.1 10.3c0 1.9 2.2.5 12-7.7 7.8-6.5 11-8.3 11-6.3 0 .4-4 4.7-9 9.5-8.3 8.1-10.3 10.7-8.2 10.7.4 0 4.4-3 8.7-6.6 9.7-8.1 12.4-9.9 13.2-9 .4.4-3.4 4.8-8.5 9.9-5.1 5.1-9.2 9.6-9.2 10 0 1.8 2.8.1 11.7-7.3 5.4-4.4 10.1-8 10.5-8 2 0 .2 2.4-8.2 10.6-4.9 4.8-9 9.1-9 9.6 0 1.9 2.7.3 11.3-6.7 8.4-6.8 11.7-8.8 11.7-6.8 0 .4-4.1 4.9-9.1 9.9s-8.7 9.4-8.2 9.7c.5.4 4.5-2.4 8.9-6 9.6-8 12.3-9.8 13.1-8.9.4.4-3.5 4.9-8.6 10-10.4 10.4-10.8 13.7-.7 5.1 3.5-3 6.7-5.5 7.1-5.5 1.6 0-1.1 4.9-5.1 9-2.4 2.5-4.4 5.1-4.4 5.8 0 1.6 1 1.5 3.2-.5 1-.9 2-1.4 2.3-1.1.2.2-.2 4.5-.9 9.4-2.2 13.7-3 27-1.7 27.8.7.5.8 1.4.2 2.4-.4.9-1.2 7.8-1.6 15.2-1.4 26.1-2.4 30.9-10 48.8-6.4 15.3-6.9 28.1-1.4 38.8l3.2 6.4-3.5 3.8c-6 6.7-10.3 21.9-9.6 34.2.2 4.2-.3 6.7-2.1 10.3-2.2 4.6-2.3 5-.7 9 1.3 3.4 1.4 6.7.9 17.7-.5 11.4-.3 14.1 1.1 17.5 1.3 2.9 1.7 6.7 1.7 13.6v9.5l6.4 10.9c7.5 12.6 10.2 15.7 16.3 18.6 2.4 1.2 6.4 4.1 8.9 6.5 5.4 5.3 19.1 13.6 25.8 15.7 3.5 1.1 8.9 1.5 18 1.5 11.1-.1 14 .3 20 2.3 9.3 3.1 18.3 3 29-.4 18.6-5.8 44.8-17.5 49.8-22.2 1.5-1.4 2.7-2.1 2.7-1.5 0 1.9 2.4 1 17.4-7.1 21.6-11.5 34.5-19.2 34.6-20.5 0-1.3-3.2-4.4-4.7-4.4-1.3 0-25.7 14.1-31 17.9-2.3 1.7-4.8 3.1-5.4 3.1-.7 0-1 .3-.7.6.4.3-1 2.1-3 4-2 1.8-3.8 3.2-4 3-.2-.3 1.1-1.8 3-3.5 1.8-1.7 2.8-3.1 2.2-3.1-.6 0-8.5 3.6-17.5 7.9-9 4.3-21.6 9.9-27.9 12.4-24.2 9.4-30.6 10.4-42.6 6.5-5.7-1.9-9-2.2-18.7-2.1-6.5 0-12.1.4-12.4.7-.4.3.2 1.6 1.3 2.8 1.9 2.2 1.9 2.3-.1.8-1.1-.8-2.6-2.1-3.4-2.9-.8-.7-3.5-2.2-6-3.3-5.7-2.4-9.7-6.1-12.3-11.3-1.1-2.2-3.9-5.7-6.2-7.8-2.2-2.1-3.2-3.3-2-2.8 1.1.5 2.6 1.7 3.3 2.5 2 2.4 3 1 2.4-3.2-1.1-8.7 4-23.2 13.2-37.6 3.7-5.9 5.5-6.4 5.5-1.8 0 3 1.5 6 2.5 5 .3-.3 1-3.3 1.5-6.6 1.5-10.7 5.2-17.1 15.6-27.1 15.4-15 25-20.2 48.4-26.2 6.3-1.7 11.9-3.4 12.4-3.9.4-.4 1.4-.6 2-.4.7.3 7.5-.9 15.2-2.7 7.6-1.7 29.2-6.2 47.9-9.9 72.8-14.7 78.5-16.1 90.6-23.1 10.2-5.8 11.9-7.4 9.8-9.3-.8-.7-6.3-5.8-12.4-11.2-6-5.4-11.7-10.6-12.5-11.4-.9-.8-7-6.5-13.5-12.5-6.6-6.1-15.8-14.6-20.5-18.9-4.7-4.4-9.2-8.5-10-9.3-.8-.7-1-1.3-.5-1.3.6 0 3.9 2.8 7.5 6.1 16.5 15.4 28.4 26.4 39.5 36.4 6.6 6.1 14.7 13.6 18 16.7 3.3 3.2 6.7 5.8 7.5 5.8 1.9-.1 13.2-10.8 18.9-17.9 5.6-7.2 8-12.2 12.6-26.1 4.2-12.8 7.3-17.4 16.4-24.6 7.8-6.2 18.5-11.4 23.2-11.4 5.7 0 4.9 2.2-2.2 5.5-5.8 2.8-12.1 8.6-18.3 16.8-1.6 2.1-2.6 4-2.3 4.3.3.4 3.2-1.4 6.4-3.9s11.1-7.3 17.6-10.6c11.6-6 37.2-21.5 38.2-23.2.3-.4-.4-1.8-1.5-2.9-1.5-1.5-2.9-2-4.8-1.5-2.6.5-2.7.4-2.7-3.4 0-2.2.4-4.3.8-4.7.4-.4.7-2 .7-3.6 0-2.7 8.4-63.9 13-94.5 1.1-7.3 2-13.8 2-14.4 0-3.4 25.4 4 35.1 10.2 6.3 4.1 6.7 5 4.5 9.5-1.8 3.6-19.5 44.3-28.8 66.4-5.1 12.2-7.8 17.3-10.3 19.7-1.9 1.8-4.1 4.7-5.1 6.5-.9 1.8-2.6 4.1-3.8 5l-2.1 1.7 2.6 2.6 2.6 2.6 3.5-2c1.9-1.2 7.8-3 13-4.1 11.5-2.4 9.2-.6 40.1-31 12.5-12.4 23.6-22.7 24.5-22.9.9-.2 2.3-.8 3-1.3.8-.7 1.2-.7 1.2.1 0 .6-.6 1.4-1.4 1.7-2.4.9-2.6 3.2-1 10.7.9 4.1 1.9 16.9 2.4 30.2 1.4 34.6 3.7 50.4 9 62 5.2 11.2 6.5 16.5 6.5 26 0 7.1-.4 9.7-1.8 11.9-1 1.5-2.2 2.6-2.7 2.4-.5-.2-3.9-4.5-7.7-9.5-6.3-8.6-20.3-21.8-20.3-19.2 0 1.7 6.8 12.8 11.1 18.3 2.2 2.7 3.9 5.4 3.9 6.1 0 .6 4.3 6.2 9.5 12.4 8.8 10.5 10.2 12.8 14 23.9.3.7 1.1 1 1.7.6 1-.6 1.1-.4.1.7-.7.7-1.3 3.5-1.3 6.1 0 2.6-.4 4.8-.8 4.8-1.2 0-5.2-4.4-6.6-7.1-.6-1.2-1.7-2.4-2.3-2.7-1.8-.5-1.6 3 .2 5.4.8 1 1.5 2.6 1.5 3.4 0 1.7 7.6 12.6 10.3 14.9 1 .7 1.7 1.7 1.7 2.2 0 1.8-2.2.8-6.8-2.9-2.6-2.2-6.4-4.9-8.4-6.1l-3.7-2.2-3.1 2.2c-1.6 1.3-3 2.4-3 2.5 0 .2 3 2.3 6.8 4.7 3.7 2.4 8.6 6.2 10.9 8.3 4.1 3.7 4.3 4.3 5.4 12.4.9 7.6.6 17-.7 17-.3 0-3.7-3.1-7.6-6.9-6.7-6.7-18.9-14.4-20.4-12.9-.9.9 8.8 12.8 13.5 16.6 2 1.6 5.5 5.4 7.8 8.4 4 5.1 4.3 6 5.3 14.9 1.3 11.3.7 16.1-2.8 21.3-2.5 3.6-13.1 13.1-13.8 12.3-.2-.1.3-3 1.1-6.2 1.9-7.8 1.8-10.6-.1-15.5-1.9-4.8-13.4-13.7-13.4-10.4 0 .3 1.6 3.8 3.5 7.7 1.9 3.9 3.5 8.2 3.5 9.6-.1 5.5-4 16.4-5.5 15-.3-.4-.1-3.7.5-7.5 1.2-7.4.6-13-1.5-15.4-2.8-3.1-4.4-8-8.2-25-.4-2.1.5-1.5 5.7 3.5 5.7 5.4 6.2 5.7 5.6 3.2-.4-1.6-1.8-4.7-3.2-7-3.4-5.5-18.4-20.7-20.5-20.7-.8 0-2.6 1.1-3.9 2.5-2 2.1-2.2 2.9-1.2 4.3 7.3 10.5 10.6 17.7 13.2 29.2.7 3 2.5 7.9 4.1 10.7 2.8 5.2 3.9 12.3 1.9 12.3-.5 0-1-.7-1-1.5 0-2.1-2.8-10.2-6-17-2.9-6.4-16-26.8-17.9-28-.7-.4-2.2-2.4-3.6-4.4-1.3-2.1-6.1-7.7-10.7-12.6-6.9-7.4-7.7-8.5-4.8-7 5.6 2.9 17.3 10.5 20.1 13.2l2.7 2.5 2.6-2.3c1.4-1.2 2.6-2.7 2.6-3.3-.1-2.6-22.8-16.6-39.2-24.1-5.9-2.8-10.4-5.3-10-5.7 1.1-1 45.4-2.9 53-2.2 3.7.3 10.3 1.7 14.8 3 9.6 2.9 10.2 2.9 13.4.3 2.4-2 2.4-2.1.5-3.2-1.1-.7-6.3-2.5-11.5-4-11.1-3.3-27.9-4.4-46.8-3-11.9.9-14.8.3-8.5-1.7 8-2.6 17.3-8.3 21.3-13 5.1-6.1 5.5-9.2.7-5.6-5 3.8-16.9 9.4-28.2 13.2-5.6 1.9-10.8 3.4-11.4 3.4-2.7 0 .3-2 6-4.1 11.3-4.1 18-11.3 16.4-17.6-.4-1.6.2-3.4 2-5.7 1.8-2.4 2.5-4.5 2.5-7.9 0-2.6.3-4.7.6-4.7.4 0 2.2 1.4 4.1 3 2.5 2.2 4.4 3 7.3 3 4.9 0 5.8-1.4 2.2-3.5-1.5-.9-3.9-3.2-5.1-5.1-2.3-3.3-2.3-3.7-1.1-9.2.7-3.1 2.3-8 3.6-10.7 1.2-2.8 2.5-6.9 2.9-9.2.6-3.9.4-4.5-3.2-8.4l-3.9-4.1-7.3 2.8c-7.8 3.1-15.2 8.7-17.7 13.6l-1.5 3 9-.7 9.1-.8 1 2.7c.5 1.5 1 4.6 1 6.8 0 3.5-.6 4.7-3.9 7.8-2.2 2.1-5.3 4.4-7 5.1-3.8 1.7-4.3 4.4-.6 3.5 2.2-.6 2.5-.3 2.6 2.1.1 1.6 0 3.4-.1 4.2-.3 2.4-4.3 7.1-7.7 9.2-4.2 2.6-4.2 4.1-.1 3.7 1.7-.2 3.3.2 3.5.9 1.8 5-24.2 16.5-43.9 19.4-4.6.6-10.5 2-13.1 3-6 2.4-6.3 2.4-7-.1-.7-2.7-2.1-2.5-3.7.5-1.5 2.9-8.7 7.6-14.3 9.4-2 .7-3.7 1.6-3.7 2 0 .4-1.3.6-2.8.3-1.6-.2-6.9 1-11.9 2.6-8.1 2.8-13.4 5.9-50.1 30.4-22.6 15-46.1 30.4-52.2 34.3-15.9 10-14.7 8.8-12.2 11.3s4.8 2.8 7.1.9c3.4-2.8 36.9-23.7 38-23.7.7 0 3.5 1.7 6.4 3.8 5.7 4.3 34 22.9 42.7 28.2 16.6 10 48.1 26.6 57 30 1.9.7 6.2 2.5 9.5 4.1 8.3 3.8 18.5 6.7 24.2 7 4.8.3 25-1.3 41.3-3.2 8.2-.9 25.5-5.4 27.4-7 .6-.5.2-1.7-.9-2.9-1-1.1-1.3-2-.7-2 .7 0 1.2.4 1.2.9s1.2 1.6 2.6 2.6c2.6 1.7 3 1.6 10.8-1 15.4-5.1 32.2-15.5 38.9-24 5.8-7.3 6.8-12.6 5.4-29-.6-6.8-.5-10 .6-13 2.4-6.7 2.9-13.8 1.6-22.5-1-7.3-1-8.8.6-13.5 1.8-5.1 1.8-5.3-.3-9.6-1.5-3.3-2.1-6.9-2.4-14.4-.4-11.2-1.3-13.9-3.5-11-1.8 2.6-1.7 1 .3-1.9 1.3-2.1 1.3-2.8.1-5.8-.8-1.8-2.4-4.2-3.6-5.2-1.2-1.1-1.7-2.2-1.1-2.6.5-.3-.4-2.2-2.2-4.4-2.6-3.1-2.9-4.1-2-5.5 5-7 5.7-9.4 5.6-20.1-.1-11-.9-14-7.9-30.9-4.1-9.7-6.3-26.2-7.4-54-1-25-3.7-44.6-6.2-46.2-2.6-1.6.9-7 11.9-18.4 6.1-6.4 11.2-12.1 11.2-12.8 0-.7-.9-1.8-1.9-2.4-1.7-1.1-4.3 1.3-24.7 22.5-38.6 40-42.7 44.2-43.2 43.8-.2-.3 1-4.7 2.8-10l3.1-9.5 9.7-8.8c5.3-4.8 9.9-9 10.2-9.3.3-.3 8.5-7.7 18.3-16.4 9.7-8.7 17.7-16.3 17.7-16.8 0-1-2.5-3.8-3.5-3.8-.3 0-5.2 4.2-10.8 9.3-5.6 5.1-10.7 9.6-11.4 10-1.2.8-12.3-14-12.3-16.5 0-1.6 7.3-24.6 10.8-33.8 3.4-9 3.4-12.1.1-13.4-2.1-.7-3.7-.4-7.3 1.3-6 3-7.5 5.6-4.8 8.4l2.1 2 2-2.4c2.2-2.8 3.8-2.1 2.1 1.1-1.2 2.2-.5 6 1.1 6 .5 0 .9.5.9 1.2 0 .9-.3.9-1.2 0-.7-.7-1.5-1.2-1.9-1.2-.4 0-6.7 18-14.1 40-8.5 25.8-13.6 39.6-14.2 39-1.8-1.8-3.6-1-5.6 2.2-3.2 5.3-2.1 10.8 1.5 7.8 2.2-1.9 2-.2-2.1 12.9-4.3 13.8-6 16.1-12.1 16.1-3.8 0-4.5-.3-5.4-2.7-.8-2.2-.5-3.9 1.7-9.3 3.6-8.7 36-83.6 42.2-97.7 5-11.2 5-11.2 3.1-13.5-2.6-2.9-3.5-1.8-8.4 9.7-2 4.9-4.1 9.4-4.5 9.8-.4.5-3.2-.7-6.1-2.6-9.4-5.9-21.7-10-36.9-12.3-5.8-.8-14.5-2.2-19.5-3.1-4.9-.8-11.4-1.5-14.2-1.4-5.7.2-8.3-.8-12.4-4.6-1.7-1.6-2.9-2.1-3.3-1.4-.4.6-1.2 1.1-1.8 1.1-.6 0-.6-.6.2-1.5 1-1.2 1-1.9.2-2.7-1.5-1.5-26.3-2.9-30.3-1.8-2.7.8-3.2.6-5-2.3-1.1-1.8-2.1-4.1-2.3-5.2-.2-1.1-1-4.3-1.7-7-.6-2.8-1.4-10-1.6-16.1-.3-9.2-.1-11.4 1.2-12.7 2.7-2.8 4.3-7.9 5.5-18.2.6-5.5 1.8-12.5 2.5-15.5.8-3 1.7-7.9 2.1-10.8.7-5.1.7-5.2 4.1-5.2 2.6 0 4.3-.8 6.9-3.4 1.9-1.9 3.4-4.3 3.4-5.5 0-1.2.4-2.1.9-2.1.4 0 1.3-2.9 1.9-6.5.8-5.2 2.3-8.5 6.6-15.3 6.5-10.3 7.6-13 7.6-18.4 0-7.6-3.6-12.3-10.5-13.8-2.7-.5-3-.9-2.6-4 .5-4.2.5-6.3-.2-11.7-1-8-2.1-8.1-9.5-1.1l-5.6 5.2-.2 10.1c-.2 5.5.2 12.3.8 15.2 1 4.7.9 5.4-1.1 7.9-1.9 2.5-2.2 3.9-2 11.9.1 5.3-.3 10-1 11.3-.6 1.1-1.1 2.6-1.1 3.3 0 2-8 17.9-8.9 17.9-.5 0-1.4 1.3-2.1 3-.7 1.6-2.9 4-4.9 5.2-2 1.2-3.9 2.6-4.3 3.2-.4.6-1.2.5-2.2-.4-1.8-1.4-1.8-1.5-3.3 2.1-2.2 5.1-12.1 4.7-19.9-.9-7.5-5.4-11.9-7.4-17.1-7.9-6.5-.7-7-2.6-1.1-4.1 3-.8 4.6-.8 5.5 0 1 .8 1.9.6 3.4-.8 1.7-1.5 2-2.7 1.6-6.2-.7-6.1-2.7-7.9-2.7-2.5 0 5.1-.9 5.7-5.8 4.2-3.1-.9-4.8-.8-9.1.5-5.1 1.5-5.5 1.5-8.2-.5-2.2-1.6-4.1-2-8.2-1.7l-5.2.3.2-4.3c.2-4.6-.8-5.4-2.4-2-2.1 4.4-2.3 6-.8 8.9 1.6 2.9 2.9 3.6 3.9 2 .5-.8 5.7.5 8.3 2.2.7.5 1.3 0 1.5-1.3.3-1.9.5-1.9 3.2-.5 3.4 1.8 6.8 1.9 8.4.3 2.3-2.3 2.5.3.2 2.7-2.5 2.7-5.9 3.2-9.1 1.4-2.2-1.1-1.8-1.4-18.1 13.5-4.3 3.9-7.8 7.4-7.8 7.7 0 1.6 8.2 1.9 11.7.4 2.7-1.1 3.8-1.2 4.4-.4.4.7 1.7.9 3.5.5 3.8-.9 8.6-1.3 9.8-.7 1 .5 3.8.9 9.6 1.5 1.9.2 5.1 1 7 1.8 4 1.7 10.6 1.6 10.2-.1-.4-2.2 8.1-.1 10.6 2.6 2.3 2.5 3.1 8.6 1.2 9.8-.5.3-1 1.3-1 2.2 0 2.9-3.1 8.2-4.5 7.7-.7-.3-1.9.4-2.5 1.6-.6 1.1-1.9 2-2.8 1.9-.9-.2-3.3.7-5.2 1.9-3 1.9-3.6 2-5 .7-.9-.8-2.1-1.5-2.7-1.5-.6 0-1.3-.9-1.6-2-.3-1.1-1-1.9-1.6-1.8-.7.2-1.9-.9-2.9-2.5-2.2-3.6-.9-5.6 5-7.4 7.3-2.1 6.8-3.9-1.1-3.5-6.3.4-29.1-1.3-33.8-2.5-4.2-1-2.4 1.4 3.2 4.3 3 1.6 5.5 3.4 5.5 3.9 0 1.8-3.1 5.6-5.4 6.6-1.1.5-3.6 1.8-5.5 2.9-3.5 2.2-4.9 1.8-7.9-2.2-.7-.9-1.9-1.5-2.7-1.2-.8.3-2-.4-2.7-1.5-.7-1.2-1.8-2.1-2.4-2.1-.7 0-1.8-1.9-2.6-4.3-.9-2.7-1.9-4.1-2.8-3.9-1.2.3-1.3.1-.2-.9.6-.7 1.2-2.7 1.2-4.5 0-4.7 3.4-8.4 7.6-8.4 4.8 0 6.5-1 17.5-11.1 8.3-7.5 9.4-8.8 7.6-9.3-3.3-.8-9.7 1-18.8 5.4-8.7 4.2-11.6 4.7-16.8 2.9-2.1-.7-3.3-2-3.7-3.7-1-4.1-1.6-4.7-3-2.8-1.2 1.7-1.3 1.7-2.6-.3-.7-1.2-1.7-2.1-2.1-2.1-2.1 0-5.8-6-11-18.2-4-9.2-4.4-21.5-1.1-32.3 1.3-4.3 1.3-6.2.3-12.7-1-6-1-9.2-.1-14.1.7-3.6 1.2-8 1.2-9.9 0-3.6 2.4-6.8 5.1-6.8.8 0 .1-1.1-1.6-2.6l-3-2.5 2.8.6c2.5.5 2.8.3 2.2-1.5-.4-1.1-.2-2 .4-2 .6 0 1.1-.7 1.1-1.5 0-1.8 1.4-1.9 4.2-.4 3.4 1.8 3.3.1-.3-3.1l-3.4-3h9l-2.8-2.6c-3.1-2.9-3-4.2.2-2.5 5.3 2.9 19.5 5.2 30.5 5.1 8.1-.1 12.3.3 15.6 1.5 4.6 1.7 15.5 1.7 20.9 0 3.9-1.3 1.6 1.1-4.1 4.4-2.7 1.6-4.6 3.1-4.1 3.4 2.2 1.4 15.8-3.2 20.2-6.6.7-.7 6.2-1.1 13-1.2 10.1-.1 12.6-.4 19.4-2.9 4.3-1.5 8.1-2.5 8.5-2.2.3.4-.7 2-2.3 3.6-3.1 3.3-2.1 3.9 2.5 1.5 2.9-1.5 3-1.5 3 .6 0 2.2.8 2.2 5.3.4 1-.4 1.7-.3 1.7.4 0 1.6-3.8 8.8-5 9.6-.5.3-1 1.3-1 2.1 0 1.2.4 1.3 2.1.4 2.8-1.6 3.5-.5 2.2 3.1-1.2 3-1.1 3.1 1.4 2.4 2.7-.6 2.7-1 .7 5.4-.4 1.3 0 2.3 1.3 3 1.7.8 3.1-.1 9.9-6.4 4.3-4.1 8.3-7.5 8.7-7.5 1.6 0 3.8-7.4 3.8-12.7 0-5.4.1-5.4 2-3.7 1 .9 2.2 1.4 2.5 1.1.8-.8-3.4-7.7-4.7-7.7-1.8 0-.9-2.2 1.7-4.3 3.2-2.5 6.4-9.1 6.3-13.2 0-2.7-.1-2.8-1.3-1.3-.7 1-1.5 1.8-1.7 1.8-.2 0-.5-3-.5-6.8-.2-7.2-2.7-14.6-6-17.2-1.6-1.4-1.7-1.3-1 .5 1.4 3.6 2 14.5.7 14.5-.6 0-1.1-.7-1.1-1.5 0-2.6-5.6-12.7-9.5-17.3-2.1-2.4-8.1-7.6-13.4-11.6-5.3-4.1-11.1-9-12.9-11-3.1-3.5-3.2-3.6-3.2-1.2 0 1.4.5 3.7 1 5.2.6 1.5.9 2.8.7 3-.1.2-1.8-1-3.7-2.7-5.3-4.6-11.1-8.5-15.5-10.4-3.1-1.3-24.1-6.5-26.2-6.5-.2 0 .1.8.6 1.8zM453.8 155c16.6 4.6 30.9 15.1 42.1 30.9 3.6 5.1 2.3 4.5-4.9-2.2-10.9-10.1-27.6-19.4-19.8-10.9 3.4 3.6 8.1 11.2 7.4 11.9-.3.3-2.5-1.2-4.8-3.3-9.1-8.4-19.5-14.2-34.7-19.4-5.1-1.7-10.4-3-11.8-2.7-3.1.6-4-1.1-1.1-2.2 2.3-.9 19.9 1.7 25.9 3.8 4.3 1.5 3.5 0-2.1-3.8-7.2-4.9-6.9-5.1 3.8-2.1zm32.3 3.1c7.7 3 20.9 11.3 21.7 13.7.3.9-1.5.4-4.7-1.2-2.8-1.5-5.1-2.4-5.1-2 0 .3 1.6 2.5 3.6 4.7 3.8 4.5 11.1 18.3 10.1 19.3-.3.3-2.6-2.5-5.1-6.3-5.8-8.8-15.9-18.9-25.5-25.4-4.2-2.9-8-5.6-8.6-6.2-1.6-1.5 5.2.2 13.6 3.4zm33.1 1.4c8.4 6.1 14.6 17.2 16.2 28.8.6 4.9-.8 3.9-2.8-2-2.4-7-8.7-17-15.1-24.1-6.3-6.9-5.5-8 1.7-2.7zm25.3 20.7c1.6 5.6 1.9 12.1.5 15.3-.7 1.6-.9 1.2-.9-2-.1-2.2-.8-7.1-1.6-11-1.8-8.3-1.8-8.8-.5-8 .5.3 1.6 2.9 2.5 5.7zm-150.7 23.3c2.3 1.5 3 2.5 2 2.5-1.7 0-8.1-4.9-6.5-5 .4 0 2.5 1.1 4.5 2.5zm4.5 11.9c1.8 1.4 1.8 1.5.1 2.4-1.5.8-1.6 1.3-.6 2.5s.9 1.6-.4 2.1c-2.9 1.1-3.5-.7-2.5-7.7.2-1.1 1.4-.8 3.4.7zm155.8 8.5c-1.6 2.8-1.4 3.4.9 2.8 2.4-.6 2.5.1.3 2.5-2.7 3-6.9 1.5-4.3-1.7.8-1 .8-1.5-.4-2.2-1.3-.7-1.2-1.3 1.2-3.8 2.2-2.4 2.7-2.6 3-1.3.2.9-.2 2.6-.7 3.7zM386.4 254c2 6.9 2 6.7-.8 3.7-3.4-3.5-6.9-3.5-8.4-.2-1.5 3.2-1.5 6.5-.2 6.5.6 0 1-.6 1-1.4 0-.7.7-2 1.6-2.7 1.4-1.1 1.8-1 3 .5 1.5 2.1 1 5.7-1.2 9.3-.8 1.2-1.4 3.3-1.5 4.5 0 1.7-.7 1-2.5-2.7-4.7-9.9-2.2-19.5 5.1-19.5 2.5 0 3.5.5 3.9 2zM569 265c2.9 2.9 2.6 9.5-.6 15.6-1.4 2.7-2.9 5.3-3.3 5.7-.4.4-1.4-2.4-2.1-6.2-1-5.7-1.1-7.3 0-8.5 1.6-2 5-.3 5 2.4 0 1.1.5 2 1 2 1.5 0 1.2-6.3-.4-8.5-.9-1.3-2-1.6-3.6-1.2-2.4.6-5-.7-5-2.4 0-1.8 7-.9 9 1.1zm-176 4.6c0 .8-.4 1.2-1 .9-.5-.3-1-1-1-1.6 0-.5.5-.9 1-.9.6 0 1 .7 1 1.6zm-6.5 9.7c-.7 4.5.9 10.2 2.5 9.2.5-.3 1-1.9 1-3.5 0-3.6 1.6-4.8 2.2-1.7.3 1.3.6 7.4.7 13.6.2 11.1.2 11.3-2 10.9-4.1-.6-6.2-5-6.9-14.5-.3-4.8-1.2-9.8-1.9-11.1-.9-1.7-.9-2.7 0-4.5 2.8-5.2 5.3-4.2 4.4 1.6zm174.6 8.4c.8 2.2.5 3.8-1.6 8.4-1.5 3.4-2.5 7.5-2.5 10.3 0 3.8-.6 5.3-3.2 8.1-1.7 1.9-4 3.5-5.1 3.5-1.8 0-1.9-.5-1.2-8.3.4-4.5 1.1-8.6 1.6-9.2.5-.5.9-2.1.9-3.6s.3-3.4.6-4.3c1-2.7 2.4-.7 2.4 3.7l.1 4.2 2-3.8c1.1-2.1 2-5.1 1.9-6.5-.3-4.4-.1-5.2 1.5-5.2.9 0 2 1.2 2.6 2.7zM442 339c-2.1 1.4-3 1.2-3-.4 0-1.8 2.2-2.7 3.5-1.4.6.6.5 1.2-.5 1.8zm13.2-.3c-.5 1-.7 2.4-.5 3 .7 1.9-2.7 2.9-3.8 1.2-.6-1 0-2.2 1.9-4 3-2.9 3.8-3 2.4-.2zm28.1 6c-.7 1.7-2.8 1.6-4.3-.2-.8-.9-2.1-1.3-3.6-.9s-2.4.2-2.4-.5c0-1.8 2.9-2.5 4.5-1.1 1.6 1.3 1.9.8 1.5-2.4-.1-1.6.3-1.4 2.3 1 1.4 1.5 2.2 3.4 2 4.1zm-22.7-1.8c-.5.7-1.3.7-2.6-.1-1.4-.9-1.6-1.5-.8-2.6.9-1.1 1.4-1.1 2.6.2.8.8 1.1 1.9.8 2.5zM403 344c0 2.5-1.8 3.6-2.6 1.6-.8-2.1.3-4.9 1.6-4.1.5.3 1 1.5 1 2.5zm96.5 0c.3.5.2 1-.4 1-.5 0-1.3-.5-1.6-1-.3-.6-.2-1 .4-1 .5 0 1.3.4 1.6 1zm38.5.6c0 1.4-2.2 4.4-3.2 4.4-.6 0-1.7.8-2.4 1.7-1 1.4-1.5 1.5-2.5.6-1.5-1.5-.4-4.4 1.4-3.7.7.2 2.2-.4 3.2-1.6 1.7-1.9 3.5-2.6 3.5-1.4zm-124.9 13.9c-.6 3.5-.8 3.7-1.5 1.7-.4-1.2-1.4-2.2-2.2-2.2-2.3 0-2.7-2.6-.9-5.4l1.7-2.6 1.8 2.3c1.4 1.7 1.6 3.1 1.1 6.2zm108.9 4.2c0 1.3-4.5 10.2-5.1 10.3-1 0-1.8-3.8-1.2-6 .3-1.1 1.2-2 1.9-2 .8 0 1.7-.7 2-1.5.6-1.5 2.4-2.1 2.4-.8zM411.2 385c1 1.7 2.1 2.9 2.5 2.8.9-.3 11.8 7.6 12.9 9.3.4.8.9.7 1.5-.2.7-1.1 2.2 0 6.2 4.2 5 5.4 11.1 9.9 13.6 9.9 1.3 0 1.5-2.7.2-3.2-.5-.2-5.7-4.9-11.7-10.5-6-5.5-12-11-13.4-12.2-1.4-1.1-2-2-1.4-2.1.6 0 2.4 1.2 4 2.7 1.7 1.6 8.3 7.7 14.8 13.8 13.6 12.7 19.5 16.1 25.4 14.6 2-.6 4.6-1 5.7-1 4.2.1 9.8-1 10.8-2 .6-.6 1.7-1.1 2.5-1.1.7 0 4.1-2.3 7.3-5.2 4.9-4.2 6.2-4.9 7-3.8.7 1.1 1.1 1.2 1.7.3.4-.6 3.1-2.3 5.9-3.8 2.9-1.4 5.5-3 5.8-3.5.4-.6 1-.8 1.5-.5.5.3 3.2-2 6.1-5 2.8-3 5.5-5.5 5.8-5.5.3 0 .4 2.6.3 5.7-.4 6.7-2.2 9.1-11.4 15.4-8.1 5.5-8.5 5.6-8.1 1.7l.4-3.3-2.8 3.5c-6.5 8.2-10.8 11.4-20.9 15.4-12.5 4.9-13.2 5.5-9.9 8.6l2.5 2.4 8.3-3.4c13.1-5.3 21-9.5 32.8-17.5 6.1-4.1 11.2-7.5 11.4-7.5.1 0 .6 1.9.9 4.3.4 2.3 1.5 5.6 2.6 7.2 1.1 1.7 2 4.1 2 5.5 0 2.6-7.7 13.1-21.6 29.3-7.1 8.3-7.5 8.9-5.7 10.2 1 .8 1.3 1.5.8 1.5-.6 0-1.6-.5-2.2-1.1-1.6-1.6-2.6-.7-6.8 5.6-2 3-4 5.5-4.5 5.5-1.3 0-7-7.5-12.3-16.2-2.7-4.3-6.9-9.5-9.7-11.8-2.8-2.3-5-4.7-5-5.4 0-.7 1.6-2.1 3.5-3.2 4.1-2.2 4.2-2.7 1.3-5.4-2.7-2.5-2.5-2.5-6.6 0-1.8 1.1-3.6 2-4.1 2-.8 0-14.5-7.7-21.8-12.3-4.2-2.7-10.1-9.4-13.7-15.8l-2-3.4-.5 2.8c-.6 2.9-.6 2.8-8.5-5.2-5.3-5.5-7.6-8.6-7.2-9.7.3-.9.6-2.7.6-4 0-3.2 1.1-3 3.2.6zm2.5 22.9c12.1 11.8 19 17 33.3 25 4.1 2.3 7.9 4.6 8.4 5.1.4.5-1.4 3.6-4.2 7-2.7 3.4-5.4 7.1-5.9 8.3-5.7 12.3-9.7 19.8-12.1 22.7l-3 3.5-7.3-5-7.4-5-8-16c-4.4-8.9-10.1-19.2-12.6-23-8.5-12.9-8.5-13.1-2.4-19.6 2.5-2.6 4.5-5.5 4.5-6.4 0-2.2 2.7-8.5 3.7-8.5.5 0 6.3 5.3 13 11.9zm-35.5 21.6c3 6.9 11.4 19.5 13 19.5 1.8 0 .5-3.8-4.3-12.1-2.9-4.9-4.9-9.2-4.5-9.6.8-.8.2-1.5 7 8.9 3.1 4.8 7.6 13.3 10 18.8 6.9 15.8 9.7 19.4 19.9 26.2 12.2 7.9 13.8 7.7 21.2-2.4 2.7-3.6 4.7-5.5 4.9-4.7.3.8 1.5 7.2 2.8 14.4 1.7 9.9 2.2 16.9 2.3 29.2 0 8.9.3 16.4.6 16.7.4.4 2-.9 3.7-2.8 2.6-3 3.1-4.5 3.6-11.3.8-8.5-.2-19.6-3.4-36.9-1.7-9.4-1.8-12.7-1.1-20.8.8-8.1 1.4-10.3 3.6-13.2 1.4-1.9 3.2-3.4 3.8-3.4 2.7 0 9.3 6.8 14.5 14.9 11.4 17.9 21 24.4 25 17 .9-1.8 3.2-5.4 5-8.1 1.7-2.8 3.2-5.4 3.2-5.9s.5-.9 1-.9c1.7 0 12-11.5 22-24.5 5.1-6.6 10.1-12.8 11.2-13.7 1.6-1.5 4-1.7 15.9-1.6 11.5.2 13.9.4 13.9 1.7 0 .8.7 2.2 1.6 3.2 1.4 1.5 1.1 1.9-3.7 4.7-6.4 3.7-5 4.9 3.3 2.6 8.2-2.3 14.4-2.4 14.1-.4-.1.8-.8 7.3-1.7 14.5-5.3 42.7-8.6 71.4-8.6 74.1 0 2.5 1.1 4.1 5.8 8.2 9.7 8.7 22.7 21.1 22.1 21.2-.3 0-1.5-.8-2.6-1.8-4-3.4-21.6-19.7-23.4-21.6-1.1-1.1-2.1-1.7-2.3-1.5-.3.3-1.4 4.7-2.6 9.9-1.1 5.2-3.4 14.7-5.1 21l-3 11.5-8.6 5c-4.8 2.7-11 7.1-13.8 9.7l-5.1 4.7-39.6.1c-28 0-39.8-.3-40.3-1-.4-.7-.9-13.4-1.2-28.3-.2-15-.6-27.8-.9-28.5-.3-.9-1.5-.3-4 2l-3.6 3.3.6 23.5c.3 12.9.7 24.4.8 25.5.3 1.9-.3 2-8.9 2-5 0-9.5.3-9.9.7-.4.4-1.4.2-2.2-.5-2.1-1.7-31.2-2.3-34.2-.7-1.5.8-2.5.9-3.2.2-.6-.6-2.5-.8-4.4-.5-3 .5-3.4.3-3.9-2.3-1.2-5.5-5.7-18.9-7.2-21.4-.8-1.4-5.5-6.3-10.4-11l-8.9-8.5-1.9-12.9-1.8-12.9-5.5-5.1c-3-2.8-9.7-8.9-14.8-13.6-5.1-4.7-11.3-10.4-13.8-12.8-3.7-3.5-6.3-5.1-6.2-4 0 .2 1.1 7 2.5 15.3 2.3 13.6 3 20.5 2.2 20.5-.2 0-4.5-1.7-9.7-3.8-5.2-2.2-13.3-5.2-18-6.7-4.7-1.5-10.1-3.9-12-5.2-3.8-2.5-6-2.9-7.7-1.2-.8.8-1.1.6-1-.6.3-2.5-4.9-3.9-8.7-2.3-2.5 1-3 .9-4.7-1.3-3.8-4.9-6.9-12.3-6.9-16.5 0-3.7.8-5.3 5.8-11.6 7-8.8 10.9-12.2 17.9-15.6 5.4-2.7 6.2-3.9 4.1-6-.9-.9-.9-1.2 0-1.2.7 0 1.2.4 1.2.9 0 1.8 3.3 2.1 8.4.6 8.4-2.5 19.6-4.3 20.2-3.4.2.5 1.1 4.6 1.9 9.1.8 4.6 1.9 8.4 2.5 8.6.6.2.6 1 .1 2.1-.9 1.6.7 11.5 2.4 15.1.3.8 4.2 4.6 8.5 8.4 4.3 3.8 12.7 11.5 18.7 17.2 5.9 5.6 11.1 9.9 11.5 9.6.4-.4-.2-6.8-1.3-14.2-1.1-7.4-3.1-21.9-4.4-32.2-2.8-21.6-4.1-29.6-5-31.9-.3-1 0-2.2.7-2.8.7-.5 3-2.4 5.1-4.2 2-1.7 3.7-2.8 3.7-2.4 0 .4-.7 1.3-1.7 2-2.8 2.1 0 2.4 5.2.6 2.8-1 7.7-3.2 11-4.9 3.3-1.8 6.6-3.1 7.3-2.9.7.1 2.7 3.3 4.4 7.2zm-37.2 7.8c0 .2-1 1.2-2.2 2.3l-2.3 1.9 1.9-2.3c1.8-2.1 2.6-2.7 2.6-1.9zm-9.5 9.7c-2.7 2.7-5.1 4.7-5.4 4.4-.5-.5 8.6-9.4 9.7-9.4.3 0-1.6 2.2-4.3 5zm-6.5 6c0 .5-.5 1-1.1 1-.5 0-.7-.5-.4-1 .3-.6.8-1 1.1-1 .2 0 .4.4.4 1zm-6 5.5c-1.9 1.9-3.9 3.5-4.4 3.5-1.1 0 6.1-7 7.2-7 .3 0-.9 1.6-2.8 3.5zm359.9 21.7c0 3.3-3.4 11.1-4.9 11.6-.8.3-1.1-.1-.8-.9.3-.8 1.4-4 2.4-7.2 1.8-5.8 3.4-7.5 3.3-3.5zm-442.9 21c0 1.3-3.9 5.8-5.1 5.8-1.1 0 0-3.1 1.9-5.3 1.7-2 3.2-2.2 3.2-.5zm36.2 4.5c4.1 1.8 4.7 2.7 2.2 3.7-2.1.8-9.4-1.4-9.4-2.9 0-2.9 1.9-3.1 7.2-.8zm-37.3 7.9c-4 4-7.5 7.2-7.7 6.9-.2-.2-.1-1.6.3-3.2.7-3.1 12-12.7 13.7-11.7.6.4-2.3 4-6.3 8zm28.1-2.2c0 .7 2 1.9 4.6 2.6 3.7 1.1 5.6 1.1 9.2.1 4.1-1.1 5.2-.9 15.1 2.5 16.2 5.6 29.3 11.7 40 18.8 5.4 3.5 10.6 7 11.7 7.9 7.5 6 20.4 16.9 22.7 19.1 4.7 4.4 9.9 18.6 12.2 33.3.4 2.4 1.1 4.3 1.7 4.3.5 0 .6.9.3 2-.9 2.8 1.3 15.5 3.5 20.5 5.5 12.5 27.5 27.3 53 35.7 7.7 2.5 10.1 3.7 11.3 5.8 1.4 2.4 1.4 2.9.2 4.8-2 2.7-3.5 3.2-36 9.7-25.5 5.2-28.8 5.7-36.4 5.1-4.6-.3-10-1.4-12-2.3-2-1-7.1-5.2-11.4-9.5-4.3-4.3-8.5-7.8-9.3-7.8-1.9 0-1.8.6.8 4.7l2.1 3.5-2.4-.7c-3.7-1.2-7.8-4.2-14.7-10.9l-6.3-6.1-3.5 3.8-3.5 3.8.2 9.5c.1 5.2-.1 9.8-.5 10.1-.3.3-.6 2.2-.6 4.1 0 5.1-2 3.6-5.2-4.1-1.5-3.6-3.9-8.3-5.3-10.3s-2.6-5.1-2.6-6.8c-.1-2.6-.3-2.3-1.1 1.6-.6 2.7-.7 5.6-.3 6.5.5 1 .7 2.3.6 2.9-.1.7.8 3.3 1.9 5.9 2.4 5.5 4.1 12.5 3.4 13.7-.3.4-2.4-.6-4.7-2.3-5-3.7-10.1-5.9-13.3-5.9-1.3 0-2.4-.3-2.4-.8 0-.4-3-2.1-6.7-3.7-3.6-1.6-8.9-4.4-11.6-6.2-2.7-1.8-5.2-3.1-5.5-2.8-1 1 5.3 8.9 9.3 11.6 5.3 3.6 11.2 5.4 13 3.9 1-.8 1.3-.7 1.1.6-.1 1.1 1.3 2.1 3.9 3.1 2.2.7 4.7 2.1 5.5 2.9 1.4 1.4 1.2 1.5-1.5 1-1.6-.3-5.8-.7-9.2-.8-5.4-.2-6.6.1-9 2.2-2 1.8-2.3 1.9-1 .4.9-1.1 1.7-2.3 1.7-2.6 0-1.1-17.7-1.5-27.5-.7-17.4 1.5-33.8 8-45.3 18.1-5 4.3-5.8 2.3-1.2-3.2 5.9-7 11-16 11-19.2 0-3.4-1.5-3.6-3.1-.6-1.7 3.2-6.3 8.8-7.1 8.8-1.3 0-.9-7.9.8-14.3 2.2-8.4 4.5-12.6 11-19.9 11.2-12.5 26.4-35.2 26.4-39.4 0-2.6-12.7 9.6-19.6 18.7-8.7 11.7-8.7 11.8-11 7.2-4.1-8.2-1.8-24.4 5.3-38.5 2.9-6 5.7-18.8 4.4-20.1-.7-.7-.6-1.4.3-2.1 2.6-2 5-43.6 2.6-43.6-.6 0-1.3.7-1.6 1.5-.4.8-1.1 1.5-1.7 1.5-.6 0 0-1.1 1.2-2.4 2.5-2.7 4-8 4.1-14.4 0-2.4.5-5.2 1-6.2 1.2-2.2 17.7-16 19.1-16 2.1 0 .5 2.2-7.7 10.2-5.4 5.2-8.4 9-8 9.7.5.8 2.6-.4 6.4-3.7 8.5-7.2 13.9-11.2 15-11.2 3.2 0 1 3.5-7.1 11.2-5.1 4.8-8.7 8.7-8.2 8.7.6.1 5.2-3.3 10.4-7.4 8.9-7.1 11.1-8.5 11.1-6.7 0 .4-4 4.8-9 9.7-8.4 8.4-10.1 10.5-8.2 10.5.4 0 5.2-3.6 10.6-8 5.5-4.3 10.3-7.7 10.8-7.4.5.4-3.2 4.9-8.4 10.2-5.2 5.3-8.8 9.7-8.1 9.9.7.3 5.4-3 10.5-7.1 8.4-6.9 11.8-8.9 11.8-6.9 0 .5-3.6 4.2-8.1 8.3-4.4 4.1-8.5 8.3-9 9.2-2 3.7 1.8 1.7 10.6-5.7 8.2-6.8 11.5-8.8 11.5-6.8 0 .4-3.9 4.7-8.6 9.4-4.8 4.8-8.5 9.2-8.3 9.8.3.7 4.9-2.4 10.4-6.8 5.5-4.5 10.3-8.1 10.7-8.1 2 0 .3 2.3-5.4 7.2-12 10.3-27.3 26.3-29.1 30.4-3.7 8.2 1.5 16.4 10.4 16.4 4.3 0 13.3-5.6 19.4-12 3.9-4 11.2-8.7 12.2-7.7.2.3-1.3 2.3-3.5 4.5-6.9 6.9-7.3 14.4-1.3 24.2 1.7 2.9 2.1 5.1 2.1 12.6 0 5 .3 10.7.7 12.5.9 4.5 9.4 12.8 16.8 16.4 4.7 2.4 6 2.6 8.1 1.6 3-1.4 4.4-1.4 4.4-.1 0 1.4 5.4 10 6.2 10 1.1 0 4.8-3.8 4.8-4.9 0-.9-7.9-15.5-10.7-19.8-1.5-2.3-12.5-11.3-13.7-11.3-1.6 0-.3 4.6 2.3 7.9 3.9 5 5.2 7.7 4.5 9.5-.8 2.2-1.3 2.1-6.8-2.2-7.3-5.5-8.5-7.6-9.2-16.2-.7-9.3-.1-10.2 8.8-13.4 3.7-1.4 8.2-3.2 10.1-4.1 3.4-1.6 7.7-7.7 7.7-10.9 0-1.4-.6-1.2-3.7.8-2.1 1.4-8.2 4.1-13.7 6.1-11.1 4-11.5 3.9-14.1-3-1.4-3.5-1.5-4.7-.5-6.6 3.6-6.9 6.4-8.2 24.7-11.8 8.2-1.6 17.2-4 20.1-5.3 4.7-2.1 5.2-2.6 3.8-3.7-1.3-1.1-3.8-1.2-11-.7-7.7.6-10.7.3-17.4-1.3-4.4-1.2-9.1-2.1-10.4-2.1-1.2 0-6.6 1.9-11.8 4.1-7.9 3.5-10.8 5.5-17.2 11.5-8.9 8.5-12.7 10-7.3 2.8 2.9-3.7 3.5-5.4 3.5-9.4 0-4.6.3-5 6.1-10.4 6.6-6.2 24.3-15.6 29.2-15.6 1.6 0 9.9 1.6 18.4 3.5 12.4 2.8 17.3 3.5 23.7 3.3 4.7-.2 8-.7 7.9-1.3-.1-.6-3.2-1.8-6.9-2.7-8.8-2.3-22.1-6.7-25.8-8.5-1.6-.9-7.3-4.4-12.7-8-5.4-3.5-13.3-7.7-17.9-9.4-10-3.6-14.8-6-18.9-9.5l-3.2-2.7-3.2 2.9c-3.6 3.3-3.5 2.9.8-2 3.2-3.6 5.5-4.5 5.5-2.2zm329.5 60.1c-2.1 1.7-3.7 1.5-4.3-.3-.2-.8.8-1.2 3-1.2 3.1.1 3.2.1 1.3 1.5zM255 574.3c0 1.5-5.2 9.1-6.9 10.1-1.9 1.2-2.2-1.4-.5-4.1 3.8-6.1 7.4-9 7.4-6zM218.5 589c.3.5.1 1-.4 1-.6 0-1.1-.5-1.1-1 0-.6.2-1 .4-1 .3 0 .8.4 1.1 1zm168.8 6.3c-2.6 2.5-5 4.3-5.3 4.1-.5-.6 9.3-9.4 9.8-8.9.2.1-1.8 2.3-4.5 4.8zM658 612.5c0 3.9-1.4 4.6-3 1.4-1.4-2.5-.6-4.9 1.5-4.9 1.1 0 1.5 1 1.5 3.5zm55.2 38.9c2.2 2.1 3.8 4 3.5 4.2-.5.5-12.7-11.3-12.7-12.3 0-.7 2.5 1.5 9.2 8.1zm9.8 10c0 .6-1.1-.2-2.5-1.8-3.2-3.7-3.2-4.6 0-1.6 1.4 1.3 2.5 2.8 2.5 3.4zm-399 26c0 1.2-5.9-4.6-6-5.8 0-.6 1.4.3 3 1.9 1.7 1.6 3 3.3 3 3.9zm12 10.1c2.9 3.4-.4 1.1-5.7-4.1l-5.8-5.7 5.1 4.1c2.8 2.3 5.7 4.8 6.4 5.7zm265.5 4c15.3 3.8 26.1 10.3 40.2 23.9 5.9 5.7 7.7 8.1 9.9 13.8 2.4 6 4.5 8.3 5.6 6 .2-.4 1.7-1.8 3.3-3.2 1.7-1.4 1.2-.5-1.3 2.1l-4.4 4.7.7 5.6c1.1 8.2 4.1 6 4.4-3.2.1-1.7.5-3.2 1-3.2 1.4 0 11.9 16.5 16.2 25.3 4.4 9.3 6.3 17.4 5.3 23.2-.8 4.8-2 7.2-5.9 11.6-3.9 4.5-16.8 8.5-31.5 9.9-5.8.6-15 1.5-20.5 2-15.5 1.6-19.1 1.3-28.5-2.1-11.5-4.2-12.4-4.3-13.9-2.5-.8.9-1.9 1.6-2.5 1.6-.6 0-.3-.5.7-1.1 2.6-1.5 2.1-3.3-1.5-4.8-8.2-3.5-32.7-16.1-46.3-23.9-29.4-16.7-48.5-30.7-48.5-35.5 0-2.5 6.5-6.7 10.4-6.7 5.9 0 23.5 8.2 46.6 21.8 20.4 12 33.6 18.8 40 20.6 6.2 1.8 22.9 2.3 25.7.7 1.6-.8 1.5-1-.7-1.4-1.4-.3-5.2-1.1-8.5-1.7-11.6-2.3-27.9-9.6-60.5-27.1-20.9-11.2-25-14.8-25-21.8 0-4.3 3.2-9.6 9.8-16.3 6.4-6.6 13.1-10.1 24.7-13 4.4-1.1 8.2-2.2 8.4-2.4.3-.2-.4-1.1-1.5-1.9-1-.8-1.4-1.5-.8-1.5.6 0 1.7.7 2.4 1.5 1.7 2.1 4.3 1.9 13.6-.9 10.7-3.3 20.2-3.3 32.9-.1zM286 703.1c6.3.6 11.7 1.3 12 1.6.3.3-.3 1-1.4 1.7-1 .6-5.2 3.3-9.4 6.1-4.1 2.7-11.3 7.2-16 9.8-18.2 10.3-32.7 22.4-39.8 33.2-3.4 5.3-5.1 9.5-3.7 9.5.4 0 3.2-2.5 6.2-5.5s5.6-5.4 5.7-5.2c.2.2-.2 2.1-1 4.3-.7 2.1-2.1 7-3 10.9-.9 3.8-2.8 8.7-4.1 10.7-2 2.9-2.5 5.1-2.5 9.7 0 3.3.5 6.3 1.1 6.7.8.4.8.9 0 1.7-.6.6-1.1 2.2-1.1 3.7-.1 2.4-.1 2.4-1.5.6-.8-1.1-1.5-3.3-1.5-4.8 0-2-1.2-4.1-4.1-6.9-2.3-2.2-3.9-4.2-3.7-4.5.3-.2 1.7 1 3.3 2.6 1.6 1.7 3.2 3 3.7 3 .4 0 .8-2.1.8-4.8.1-3.3 1-6.4 3-10.2 1.7-3 2.6-5.6 2-5.8-.5-.2-3.5 1.6-6.6 4-4.7 3.6-6 5.3-7.9 10.2-1.2 3.3-2.6 6.1-3.2 6.3-1.5.5-12.6-20.4-11.7-21.9.5-.7.7-2 .6-2.9-.6-3.6 3.5-9.6 14.8-21.5 6.6-7 12-13.1 12-13.6 0-1.3-2.8-.9-6.3.8-4.3 2.2-15 10.8-18.1 14.4-1.4 1.7-2.9 3-3.4 3-2.9 0-1.7-20.9 1.4-25.8 4.1-6.4 19.2-15.5 31.9-19.3 6.6-2 32.6-4.2 38-3.2 1.1.2 7.2.8 13.5 1.4zm-86 65.5c0 .6-.7 1.4-1.5 1.8-1 .3-1.5-.1-1.5-1.3 0-1 .7-1.8 1.5-1.8s1.5.6 1.5 1.3z"/><path d="M501.8 453.3c-3.9 3.7-7.1 9.2-6.5 11 .2.6 1.7-.8 3.3-3.3 1.6-2.5 4.1-5.5 5.7-6.8 2.7-2.4 3.5-4.2 1.8-4.2-.4 0-2.4 1.5-4.3 3.3zM402 403.8c0 1.8 12.8 15.9 18.1 19.8 5.9 4.6 14.9 9.4 17.5 9.4.8 0-1.8-2.3-6-5.1-4.1-2.7-12.2-9.5-18-15-10.1-9.6-11.6-10.8-11.6-9.1zM459.8 483.4c-2.2 1.7-2.3 6.9-.2 8.7 4 3.3 12.4.2 12.4-4.6 0-4.7-7.9-7.4-12.2-4.1zm8.3 3.2c1.1 1.4 1 1.8-.6 3-2.3 1.7-2.7 1.7-5 0-2.4-1.7-1.3-4.6 1.8-4.6 1.4 0 3.1.7 3.8 1.6zM477.8 482.5c-.3.3.1 2.5.9 4.8s1.6 7.3 1.8 11.2c.2 3.8.9 7.1 1.4 7.3.6.2.4 1.4-.6 2.8-1.4 2.1-1.5 4.2-.8 14.7.4 6.7.7 19.1.5 27.4-.2 16.1.9 19.8 2.9 9.5 2.1-11 2.9-22.6 2-28.2-.5-3-.9-12.6-1-21.3-.1-14.4-.3-16.3-2.4-21-2.9-6.3-4-7.9-4.7-7.2zM461.7 527.8c-3.1 3.4-2 7.4 2.6 9.1 2.9 1.1 7.5 0 8.9-2.2 1.4-2.1.8-5.9-.9-7.3-2.7-2-8.7-1.7-10.6.4zm7.4 1.2c2.5 1.4 2.4 3.6-.1 5-4.1 2.2-8.2-2.6-4.2-4.9 2.1-1.3 2-1.3 4.3-.1zM466 574.2c-3 1.1-4 2.5-4 6 0 3.2 2.4 4.8 7.3 4.8 5.7 0 8.9-5.8 5-9.2-2.5-2.1-5.4-2.7-8.3-1.6zm6.5 5.3c0 1.5-.8 2.1-2.9 2.3-3.3.4-5.1-1-4.2-3.3.9-2.5 7.1-1.6 7.1 1zM356 560.6c0 .4 1.4 1.9 3 3.3 1.7 1.4 3.7 4.4 4.4 6.6 2.1 6 3.8 5.7 3.4-.5-.2-4.3-.8-5.6-2.8-7.1-2.8-2-8-3.5-8-2.3zM339.6 571.9c-.3.4 1.2 1.6 3.4 2.6s4 2.2 4 2.7c0 .4.7.8 1.5.8 3.9 0-.6-5.5-5.2-6.4-1.8-.3-3.5-.2-3.7.3zM329 587c0 .5.9 1 2.1 1 1.2 0 4.8 2.6 8.5 6.2 4.4 4.2 6.4 5.6 6.4 4.4 0-1.8-5.5-10.5-7.4-11.8-1.6-1.1-9.6-.9-9.6.2zM361.4 595.1c.8 4.7 5.4 15.9 6.6 15.9.4 0 1 1.2 1.4 2.7.7 3.3 4.2 8.1 5.2 7.1.8-.8-1.3-6.6-3.3-8.9-.7-.8-1.3-2.3-1.3-3.2 0-2.3-6.5-16.3-8-17.2-1-.6-1.1.2-.6 3.6zM318.1 610.9c-1.7 1.1-.6 3.1 1.7 3.1 1 0 3.5.9 5.7 2s4.3 2 4.7 2c1.6 0 .7-2.3-2.1-5.1-3-2.9-7.2-3.8-10-2zM353 613.5c0 2.4 2.8 8.5 3.8 8.5.5 0 1.2 1.3 1.5 2.8.9 4.3 7.7 12.3 15 17.5 9.9 7.1 11.3 6 3.1-2.6-7.7-8-16.8-18.2-17-18.8-.1-.2-1.1-2.3-2.3-4.7-2.2-4.2-4.1-5.5-4.1-2.7zM344 636.4c0 1.1 19.4 15.7 21.5 16.2 3 .7 4.7.2 3.7-1.1-1.3-1.8-22.3-15.5-23.8-15.5-.7 0-1.4.2-1.4.4zM659.7 774.6c-.4.4-.7 2-.7 3.6 0 3.6-2.2 8.9-4.3 10.7-1 .7-1.7 2.2-1.7 3.2s-.5 1.6-1.2 1.4c-.7-.3-3.5 1-6.3 2.7-4.4 2.9-4.7 3.3-2.7 3.6 3 .5 16.6-6.1 18.6-9 2.9-4.1 1.3-19.2-1.7-16.2zM389 163c0 .6.7 2.4 1.5 4 2.1 4 .4 3.8-4.4-.5-2.1-1.9-4.2-3.5-4.6-3.5-1.5 0 .5 17.2 2.5 21.8 1.1 2.5 1.8 4.7 1.5 5-.2.3-1.9-1-3.6-2.9l-3.2-3.4.7 6.5c1.1 9.4 1.8 9.8 7.9 4l5.2-5-1.8-3.1c-2.2-4-1.6-4.7 2-2.1l2.8 2 3.8-3c3.1-2.5 3.7-3.5 3.2-5.5-.5-2.1-.3-2.3 2-1.7 1.4.3 2.5.3 2.5-.1s-2.1-3.1-4.6-6.1c-3.1-3.6-5.8-5.7-8.3-6.4-4.5-1.2-5.1-1.2-5.1 0zM408.7 177.1c.7.7 1.5 1 1.8.7.3-.3-.2-.9-1.2-1.2-1.4-.6-1.5-.5-.6.5zM563 233.4c0 .7.7 1.9 1.5 2.6 1.3 1.1 1.5.8 1.5-1.4 0-1.6-.5-2.6-1.5-2.6-.8 0-1.5.6-1.5 1.4zM493.7 244c-3.5 1-9.8 7-7.5 7 .9 0 1.8-.6 2.1-1.3.3-.7 3.1-2.2 6.3-3.2 3.3-1.1 6.3-2.3 6.9-2.7 1.2-1-4.2-.9-7.8.2zM424.5 247c-.3.5-2.3 1-4.4 1-4 0-14.9 4.9-17.3 7.7-1.2 1.5-1 1.6 1.2.9 5.5-1.5 13-1.8 17.9-.6 2.8.6 5.3 1.5 5.6 2 .2.4-2.3 1.8-5.8 3-3.4 1.2-6.6 2.6-7.1 3.1-1.4 1.3 2.4 1.1 6.2-.2 3.9-1.3 6.7-.6 3.2.9-1.4.5-4.1 1.6-6 2.4l-3.5 1.5 4.9 3.1c2.8 1.8 5.4 3.2 5.8 3.2 1.6 0 .7-1.5-1.4-2.5-2.6-1.2-3.6-3.5-1.4-3.5.9 0 3 .9 4.8 2 5.6 3.4 14.8 1.8 14.8-2.6 0-.8.6-1.4 1.3-1.4 2.1 0 5 3.7 4.3 5.5-.5 1.3 0 1.6 2.6 1.3 4.9-.5 4.4-2.4-1.6-6.4-3.1-2-5.6-3.8-5.6-4 0-1 7.1 2.3 10.2 4.8 2.4 1.9 3.9 2.5 4.3 1.7.4-.6.2-1.6-.4-2.2-1.9-1.9-1.2-3.7 1.3-3.7 4.2 0 4.9 2.2 4.3 12.4-.6 10.3.7 15.1 1.9 7 1.4-9.3 1-18.1-.9-20.2-1-1.1-1.9-3.3-2-4.8-.2-2.7-.6-2.9-5.2-3.5-2.8-.4-8.1-1.9-12-3.4-7.2-2.8-16.1-5.5-18.2-5.5-.6 0-1.5.4-1.8 1zm13.5 20c0 .5-.6 1-1.4 1-.8 0-1.8-.5-2.1-1-.3-.6.3-1 1.4-1 1.2 0 2.1.4 2.1 1zM508.2 253.9c-4 1-7.6 2.1-8 2.5-.8.9 7.3 8.3 10.5 9.6 1.4.6 2.1 1.5 1.7 2.4-.5 1.4-.8 1.4-2.1.1-.8-.8-2.1-1.5-3-1.5-.8 0-1.3-.5-1.1-1.2.2-.6-1.4-2.8-3.7-4.9-3.6-3.3-4.7-3.8-10-4-5.3-.3-6 0-6.4 1.7-.2 1-1.6 3.7-3.2 5.8-3.3 4.5-2.8 6.9.6 3.1 2.7-2.9 3.4-3 5.9-1.2 1.6 1.1 1.7 1.7.6 3.6-1.7 3.3-.7 3.6 3.7.7 2.1-1.3 5.2-2.8 6.8-3.2 2.3-.5 1.6.3-3.2 3.5-3.5 2.2-6.3 4.5-6.3 5 0 1.3 5.8 3.2 6.5 2.1.3-.4.2-1.5-.1-2.3-.3-1 .5-2.2 2.2-3.4 2.3-1.4 2.8-1.5 3.2-.3.8 2.4 5 6 7.1 6 1.1 0 3.2-.5 4.6-1.2 2.4-1.1 2.4-1.2.9-3.5l-1.5-2.4 2.4 1.6c2.2 1.4 2.5 1.4 3.1 0 .5-1.4.8-1.4 2.7.4 1.3 1.2 1.9 2.6 1.6 3.5-.9 2.2 1.3 1.9 4.3-.5 2.4-2 2.4-2.1.5-3.5-1-.8-2.9-1.4-4.1-1.4-1.9 0-9.4-3.6-9.4-4.5 0-.6 11.6 2.3 14.3 3.5 1.5.7 3 1 3.4.6 1-.9-1.4-2.5-4.9-3.3-1.6-.3-2.8-.9-2.8-1.3s-1.5-1.1-3.2-1.5c-3.1-.7-2.9-.8 3.4-2.1 6.4-1.2 7-1.2 12.9 1.1 3.4 1.4 6.4 2.3 6.7 2 1.5-1.5-14.4-11.5-18.4-11.5-1.2 0-2.6-.5-2.9-1-.9-1.5-7-1.1-15.3.9zM510 271c0 .5-.7 1-1.5 1s-1.5-.5-1.5-1c0-.6.7-1 1.5-1s1.5.4 1.5 1z"/><path d="M458.3 276c-1 1.7-3.3 4-5.2 5.1-4.6 2.7-3.2 3.5 2.2 1.1 3.2-1.4 4.7-2.8 5.5-5.1 1.5-4.1-.2-4.9-2.5-1.1zM483.4 277.2c.7 3.7 3 6.4 6.8 8.4 3.6 1.9 3.6.6-.1-2.8-1.5-1.5-3.4-4.1-4.1-5.8-1.7-4-3.4-3.9-2.6.2zM426 284c.8.5 3.3.9 5.5.9 3.5-.1 3.7-.2 1.5-.9-1.4-.4-3.8-.8-5.5-.9-2.3 0-2.6.2-1.5.9zM509 289c0 .5 1.8 1 3.9 1 2.2 0 4.3-.5 4.6-1 .4-.6-1.2-1-3.9-1-2.5 0-4.6.4-4.6 1zM408.4 304c.3 1.7 1.9 5 3.4 7.3 1.6 2.3 3.2 5.2 3.6 6.4 1.1 3.6 2.9 2.8 2.3-1-.6-3.7-7.4-15.7-8.9-15.7-.6 0-.8 1.3-.4 3zM460 309c0 1.6.5 3 1 3 .6 0 1-1.4 1-3 0-1.7-.4-3-1-3-.5 0-1 1.3-1 3zM530 311c0 .5-2 3.2-4.4 5.9-4.2 4.8-6.4 8.7-5.3 9.8.6.5 8.7-8 10.4-11.1 1.5-2.6 1.7-5.6.3-5.6-.5 0-1 .4-1 1zM441.8 324.9c-3.6 3.6-3.5 4.5.2 2.6 1.7-.9 3-1.7 3-1.9 0-.3.3-1.1.6-2 .9-2.4-.8-1.9-3.8 1.3zM493 325.9c0 .6 1.1 2.3 2.5 3.8 2.9 3.3 3.5 1 .6-2.5-2-2.3-3.1-2.8-3.1-1.3zM394 361.4c0 .8.4 1.7.9 2 2.1 1.4 5.1 9 5.1 13.1 0 2.5.3 4.5.8 4.5 1.2-.1 8.2-6.9 8.2-8.1 0-.6-1.9-2.8-4.2-4.8-2.3-2-5.1-4.6-6.2-5.9-2.2-2.5-4.6-2.9-4.6-.8zM737.4 442.7c-2.7 2-6.4 5-8.4 6.8-1.9 1.8-5.1 4.6-7 6.2-3 2.7-3.3 3.3-2.1 4.7 2.2 2.7 4 1.9 11.6-4.9 4-3.6 7.6-6.5 7.9-6.5 1.8 0-.1 3-6 9.1-6.7 6.9-7.5 9.2-3.8 10.6 2.1.8 13.9-11.2 16-16.3 1.9-4.4 1.8-9.9-.2-11.8-2.1-2.2-2.6-2.1-8 2.1zM648.5 554l-2.9 3 3.7 3.1c3.3 2.7 3.7 3.6 3.7 7.5 0 4.4-.1 4.5-2.7 4.2-2.4-.3-2.8-.7-2.5-3.1.1-1.5 0-2.7-.3-2.7-1.9 0-12.2 5.9-15.3 8.8-14.9 13.9-16.2 15.4-16.2 18.2 0 1.6 25.2-.8 28.3-2.7.9-.5-1.5-3.2-4.4-4.9-.9-.5-3.1-2.7-5-4.8-2.7-3.1-2.9-3.7-1.1-2.7 1.2.6 2.2 1.6 2.2 2.1 0 1.6 2.2 1.2 3.5-.7 1.8-2.5 3.7-.7 3 2.9-.5 2.1-.2 3.5 1.1 4.9 2.1 2.3 4.2 2.4 7.1.4 3-2.1 6.8-1 9.3 2.5 2.5 3.6 2.5 6.2 0 8.5-2 1.8-2 1.8.5 4.1 1.4 1.3 3.2 2.1 4 1.8 2-.8 5.5-6.7 5.5-9.3 0-3.3-2.4-8.4-6-12.4-3.1-3.6-3.2-4-3.4-13.3l-.1-9.6-3.7-3.4c-2.1-1.9-3.8-3.9-3.8-4.4 0-1.8-1.6-1.1-4.5 2zM626 611.6c-4.6 1.5-9.9 4.9-9 5.8 1.8 1.7 16.6-4.6 15.4-6.5-.6-1.1-.7-1.1-6.4.7zM581 616c-1.4 1.1-3.1 2-3.8 2-1.6 0-19.5 11.5-21.3 13.6-3.6 4.4 6.5.7 11.9-4.4 1.8-1.7 3.9-2.9 4.6-2.6.7.3 3.7-1.8 6.5-4.7 5.4-5.4 6.3-7.1 2.1-3.9zM604 626.9c-3 1-7.1 2.6-9 3.6-5.8 3-15.2 9.9-14 10.3 2.1.7 31.1-12.5 32.5-14.9.9-1.4-3.4-1-9.5 1zM588 660.7c-5.2 1.9-13 5.7-13 6.4 0 1.3 1.8 1.1 8.6-1 3.3-1.1 9.7-2.5 14.2-3.1 4.5-.7 8.2-1.6 8.2-2.1 0-1-15.4-1.1-18-.2zM534.4 678.5c.9 3.9 5.3 8.3 9.4 9.4 4.3 1.3 5.1-.4 1.2-2.4-1.7-.9-5-3.5-7.2-5.8l-4.1-4.2.7 3zM517.5 699.4c-10.7 3.5-17.9 7-31.7 15.3-17.1 10.2-17.3 12.7-.5 5.4 2.6-1.1 7.8-3.8 11.5-5.9 3.7-2.2 11.7-6.5 17.7-9.6 15.6-8.1 16.5-9.7 3-5.2zM407 754.7c-2.5.8-4.7 1.9-5 2.3-.3.4-1.5 1-2.8 1.4-1.2.4-10.2 4.6-20 9.3-37 17.8-48.8 22.5-61.9 24.8-4.7.8-9 1.5-9.6 1.5-.7 0-.6.5.2 1.2.8.9 4.9 1.3 13.4 1.2 10.7 0 13-.3 18.7-2.6 6-2.3 20.1-9.4 37.5-18.8 3.9-2.1 10.6-5.7 15-8 9.3-5 10.7-5.9 10-7-.3-.5.3-.6 1.3-.3.9.2 3.9-.8 6.5-2.2 7.6-4.3 5.6-5.9-3.3-2.8zM252.9 782.2c-1.6 3-1.6 10.2 0 13.1 2.2 4.1 18 12.2 19.8 10.3.5-.5.2-1.1-.6-1.4-.7-.2-3.6-2.3-6.5-4.6-5.6-4.6-9.6-11.3-9.6-16.3 0-3.8-1.4-4.3-3.1-1.1z"/></svg>