<?xml version="1.0" standalone="no"?>
<!DOCTYPE svg PUBLIC "-//W3C//DTD SVG 20010904//EN"
 "http://www.w3.org/TR/2001/REC-SVG-20010904/DTD/svg10.dtd">
<svg version="1.0" xmlns="http://www.w3.org/2000/svg"
 width="879.000000pt" height="879.000000pt" viewBox="0 0 879.000000 879.000000"
 preserveAspectRatio="xMidYMid meet">
<metadata>
Created by potrace 1.14, written by Peter Selinger 2001-2017
</metadata>
<g transform="translate(0.000000,879.000000) scale(0.100000,-0.100000)"
fill="#000000" stroke="none">
<path d="M4829 7492 c5 -9 19 -26 30 -36 36 -33 24 -35 -56 -9 -72 23 -89 24
-213 20 -126 -5 -200 -18 -200 -37 0 -4 19 -10 42 -13 33 -4 49 -1 72 16 l31
21 -19 -22 c-19 -22 -19 -23 0 -37 18 -13 17 -14 -15 -15 -34 0 -56 -14 -143
-96 -26 -24 -50 -44 -55 -44 -4 0 24 30 62 66 l70 66 -50 -5 c-27 -3 -104 -23
-170 -43 -104 -33 -133 -38 -217 -39 -54 0 -98 -3 -98 -6 0 -12 78 -77 112
-95 32 -17 32 -17 10 -27 -12 -6 -22 -13 -22 -16 0 -12 55 -38 93 -44 35 -5
43 -2 85 36 26 23 50 47 54 52 5 6 8 6 8 -1 0 -7 -19 -28 -41 -48 -23 -20 -40
-39 -37 -42 3 -3 37 -10 74 -15 38 -5 87 -14 109 -20 57 -16 178 -73 194 -92
17 -22 13 -21 -50 3 -73 29 -79 21 -16 -23 48 -33 117 -103 140 -143 12 -21 5
-18 -53 26 -29 22 -76 48 -105 59 -78 29 -214 65 -221 58 -7 -6 81 -96 225
-230 40 -38 71 -70 69 -72 -4 -4 -44 32 -154 134 -43 39 -103 82 -150 106 -42
22 -97 55 -120 73 -24 17 -47 32 -53 32 -5 0 -26 -15 -47 -34 l-36 -33 29 -21
c16 -11 63 -38 104 -58 47 -24 68 -39 56 -42 -25 -5 -136 34 -179 63 -20 14
-39 25 -42 25 -2 0 -30 -24 -62 -54 l-57 -54 13 -33 c7 -19 21 -45 31 -60 12
-17 15 -30 8 -40 -12 -20 -12 -169 1 -169 6 0 4 -13 -5 -30 -8 -16 -15 -49
-15 -74 0 -47 0 -48 -66 -61 -57 -11 -94 -73 -94 -155 0 -19 21 -82 46 -140
38 -87 47 -119 51 -185 8 -119 36 -161 123 -187 10 -3 14 -21 15 -64 0 -32 1
-125 3 -206 l2 -146 37 -34 c20 -18 61 -55 90 -82 l54 -50 52 52 c29 29 57 52
62 52 6 0 -17 -24 -50 -54 l-60 -54 50 -46 c28 -25 46 -46 40 -46 -5 0 -28 19
-52 42 l-42 41 -56 -47 c-30 -26 -55 -53 -55 -60 0 -6 -18 -30 -40 -51 -29
-28 -46 -56 -57 -95 -11 -40 -26 -64 -54 -88 -21 -18 -41 -41 -44 -52 -5 -16
-15 -20 -54 -20 -52 0 -128 -33 -173 -75 -15 -13 -29 -21 -32 -16 -3 5 -32 2
-63 -6 -32 -8 -78 -16 -103 -19 -80 -6 -223 -35 -257 -50 -18 -9 -35 -24 -38
-34 -4 -13 -27 -21 -94 -34 -109 -20 -221 -53 -221 -66 0 -6 -10 -10 -22 -10
-66 0 -206 -120 -303 -258 -27 -39 -55 -70 -61 -69 -7 1 -104 93 -217 204
-253 247 -257 249 -355 175 -40 -30 -182 -195 -182 -211 0 -19 13 -12 115 64
56 42 102 70 104 63 2 -6 -35 -49 -83 -96 -81 -80 -98 -102 -77 -102 5 0 46
32 92 71 93 78 115 93 123 81 3 -5 -35 -49 -85 -98 -49 -48 -89 -92 -89 -96 0
-15 27 -8 44 11 32 35 165 133 176 129 6 -2 -30 -44 -81 -94 -122 -121 -110
-140 21 -33 54 45 104 79 111 77 6 -2 -30 -44 -80 -93 -50 -49 -91 -95 -91
-103 0 -19 22 -5 120 77 78 65 110 83 110 63 0 -4 -40 -47 -90 -95 -83 -81
-103 -107 -82 -107 4 0 44 30 87 66 97 81 124 99 132 90 4 -4 -34 -48 -85 -99
-51 -51 -92 -96 -92 -100 0 -18 28 -1 117 73 54 44 101 80 105 80 20 0 2 -24
-82 -106 -49 -48 -90 -91 -90 -96 0 -19 27 -3 113 67 84 68 117 88 117 68 0
-4 -41 -49 -91 -99 -50 -50 -87 -94 -82 -97 5 -4 45 24 89 60 96 80 123 98
131 89 4 -4 -35 -49 -86 -100 -104 -104 -108 -137 -7 -51 35 30 67 55 71 55
16 0 -11 -49 -51 -90 -24 -25 -44 -51 -44 -58 0 -16 10 -15 32 5 10 9 20 14
23 11 2 -2 -2 -45 -9 -94 -22 -137 -30 -270 -17 -278 7 -5 8 -14 2 -24 -4 -9
-12 -78 -16 -152 -14 -261 -24 -309 -100 -488 -64 -153 -69 -281 -14 -388 l32
-64 -35 -38 c-60 -67 -103 -219 -96 -342 2 -42 -3 -67 -21 -103 -22 -46 -23
-50 -7 -90 13 -34 14 -67 9 -177 -5 -114 -3 -141 11 -175 13 -29 17 -67 17
-136 l0 -95 64 -109 c75 -126 102 -157 163 -186 24 -12 64 -41 89 -65 54 -53
191 -136 258 -157 35 -11 89 -15 180 -15 111 1 140 -3 200 -23 93 -31 183 -30
290 4 186 58 448 175 498 222 15 14 27 21 27 15 0 -19 24 -10 174 71 216 115
345 192 346 205 0 13 -32 44 -47 44 -13 0 -257 -141 -310 -179 -23 -17 -48
-31 -54 -31 -7 0 -10 -3 -7 -6 4 -3 -10 -21 -30 -40 -20 -18 -38 -32 -40 -30
-2 3 11 18 30 35 18 17 28 31 22 31 -6 0 -85 -36 -175 -79 -90 -43 -216 -99
-279 -124 -242 -94 -306 -104 -426 -65 -57 19 -90 22 -187 21 -65 0 -121 -4
-124 -7 -4 -3 2 -16 13 -28 19 -22 19 -23 -1 -8 -11 8 -26 21 -34 29 -8 7 -35
22 -60 33 -57 24 -97 61 -123 113 -11 22 -39 57 -62 78 -22 21 -32 33 -20 28
11 -5 26 -17 33 -25 20 -24 30 -10 24 32 -11 87 40 232 132 376 37 59 55 64
55 18 0 -30 15 -60 25 -50 3 3 10 33 15 66 15 107 52 171 156 271 154 150 250
202 484 262 63 17 119 34 124 39 4 4 14 6 20 4 7 -3 75 9 152 27 76 17 292 62
479 99 728 147 785 161 906 231 102 58 119 74 98 93 -8 7 -63 58 -124 112 -60
54 -117 106 -125 114 -9 8 -70 65 -135 125 -66 61 -158 146 -205 189 -47 44
-92 85 -100 93 -8 7 -10 13 -5 13 6 0 39 -28 75 -61 165 -154 284 -264 395
-364 66 -61 147 -136 180 -167 33 -32 67 -58 75 -58 19 1 132 108 189 179 56
72 80 122 126 261 42 128 73 174 164 246 78 62 185 114 232 114 57 0 49 -22
-22 -55 -58 -28 -121 -86 -183 -168 -16 -21 -26 -40 -23 -43 3 -4 32 14 64 39
32 25 111 73 176 106 116 60 372 215 382 232 3 4 -4 18 -15 29 -15 15 -29 20
-48 15 -26 -5 -27 -4 -27 34 0 22 4 43 8 47 4 4 7 20 7 36 0 27 84 639 130
945 11 73 20 138 20 144 0 34 254 -40 351 -102 63 -41 67 -50 45 -95 -18 -36
-195 -443 -288 -664 -51 -122 -78 -173 -103 -197 -19 -18 -41 -47 -51 -65 -9
-18 -26 -41 -38 -50 l-21 -17 26 -26 26 -26 35 20 c19 12 78 30 130 41 115 24
92 6 401 310 125 124 236 227 245 229 9 2 23 8 30 13 8 7 12 7 12 -1 0 -6 -6
-14 -14 -17 -24 -9 -26 -32 -10 -107 9 -41 19 -169 24 -302 14 -346 37 -504
90 -620 52 -112 65 -165 65 -260 0 -71 -4 -97 -18 -119 -10 -15 -22 -26 -27
-24 -5 2 -39 45 -77 95 -63 86 -203 218 -203 192 0 -17 68 -128 111 -183 22
-27 39 -54 39 -61 0 -6 43 -62 95 -124 88 -105 102 -128 140 -239 3 -7 11 -10
17 -6 10 6 11 4 1 -7 -7 -7 -13 -35 -13 -61 0 -26 -4 -48 -8 -48 -12 0 -52 44
-66 71 -6 12 -17 24 -23 27 -18 5 -16 -30 2 -54 8 -10 15 -26 15 -34 0 -17 76
-126 103 -149 10 -7 17 -17 17 -22 0 -18 -22 -8 -68 29 -26 22 -64 49 -84 61
l-37 22 -31 -22 c-16 -13 -30 -24 -30 -25 0 -2 30 -23 68 -47 37 -24 86 -62
109 -83 41 -37 43 -43 54 -124 9 -76 6 -170 -7 -170 -3 0 -37 31 -76 69 -67
67 -189 144 -204 129 -9 -9 88 -128 135 -166 20 -16 55 -54 78 -84 40 -51 43
-60 53 -149 13 -113 7 -161 -28 -213 -25 -36 -131 -131 -138 -123 -2 1 3 30
11 62 19 78 18 106 -1 155 -19 48 -134 137 -134 104 0 -3 16 -38 35 -77 19
-39 35 -82 35 -96 -1 -55 -40 -164 -55 -150 -3 4 -1 37 5 75 12 74 6 130 -15
154 -28 31 -44 80 -82 250 -4 21 5 15 57 -35 57 -54 62 -57 56 -32 -4 16 -18
47 -32 70 -34 55 -184 207 -205 207 -8 0 -26 -11 -39 -25 -20 -21 -22 -29 -12
-43 73 -105 106 -177 132 -292 7 -30 25 -79 41 -107 28 -52 39 -123 19 -123
-5 0 -10 7 -10 15 0 21 -28 102 -60 170 -29 64 -160 268 -179 280 -7 4 -22 24
-36 44 -13 21 -61 77 -107 126 -69 74 -77 85 -48 70 56 -29 173 -105 201 -132
l27 -25 26 23 c14 12 26 27 26 33 -1 26 -228 166 -392 241 -59 28 -104 53
-100 57 11 10 454 29 530 22 37 -3 103 -17 148 -30 96 -29 102 -29 134 -3 24
20 24 21 5 32 -11 7 -63 25 -115 40 -111 33 -279 44 -468 30 -119 -9 -148 -3
-85 17 80 26 173 83 213 130 51 61 55 92 7 56 -50 -38 -169 -94 -282 -132 -56
-19 -108 -34 -114 -34 -27 0 3 20 60 41 113 41 180 113 164 176 -4 16 2 34 20
57 18 24 25 45 25 79 0 26 3 47 6 47 4 0 22 -14 41 -30 25 -22 44 -30 73 -30
49 0 58 14 22 35 -15 9 -39 32 -51 51 -23 33 -23 37 -11 92 7 31 23 80 36 107
12 28 25 69 29 92 6 39 4 45 -32 84 l-39 41 -73 -28 c-78 -31 -152 -87 -177
-136 l-15 -30 90 7 91 8 10 -27 c5 -15 10 -46 10 -68 0 -35 -6 -47 -39 -78
-22 -21 -53 -44 -70 -51 -38 -17 -43 -44 -6 -35 22 6 25 3 26 -21 1 -16 0 -34
-1 -42 -3 -24 -43 -71 -77 -92 -42 -26 -42 -41 -1 -37 17 2 33 -2 35 -9 18
-50 -242 -165 -439 -194 -46 -6 -105 -20 -131 -30 -60 -24 -63 -24 -70 1 -7
27 -21 25 -37 -5 -15 -29 -87 -76 -143 -94 -20 -7 -37 -16 -37 -20 0 -4 -13
-6 -28 -3 -16 2 -69 -10 -119 -26 -81 -28 -134 -59 -501 -304 -226 -150 -461
-304 -522 -343 -159 -100 -147 -88 -122 -113 25 -25 48 -28 71 -9 34 28 369
237 380 237 7 0 35 -17 64 -38 57 -43 340 -229 427 -282 166 -100 481 -266
570 -300 19 -7 62 -25 95 -41 83 -38 185 -67 242 -70 48 -3 250 13 413 32 82
9 255 54 274 70 6 5 2 17 -9 29 -10 11 -13 20 -7 20 7 0 12 -4 12 -9 0 -5 12
-16 26 -26 26 -17 30 -16 108 10 154 51 322 155 389 240 58 73 68 126 54 290
-6 68 -5 100 6 130 24 67 29 138 16 225 -10 73 -10 88 6 135 18 51 18 53 -3
96 -15 33 -21 69 -24 144 -4 112 -13 139 -35 110 -18 -26 -17 -10 3 19 13 21
13 28 1 58 -8 18 -24 42 -36 52 -12 11 -17 22 -11 26 5 3 -4 22 -22 44 -26 31
-29 41 -20 55 50 70 57 94 56 201 -1 110 -9 140 -79 309 -41 97 -63 262 -74
540 -10 250 -37 446 -62 462 -26 16 9 70 119 184 61 64 112 121 112 128 0 7
-9 18 -19 24 -17 11 -43 -13 -247 -225 -386 -400 -427 -442 -432 -438 -2 3 10
47 28 100 l31 95 97 88 c53 48 99 90 102 93 3 3 85 77 183 164 97 87 177 163
177 168 0 10 -25 38 -35 38 -3 0 -52 -42 -108 -93 -56 -51 -107 -96 -114 -100
-12 -8 -123 140 -123 165 0 16 73 246 108 338 34 90 34 121 1 134 -21 7 -37 4
-73 -13 -60 -30 -75 -56 -48 -84 l21 -20 20 24 c22 28 38 21 21 -11 -12 -22
-5 -60 11 -60 5 0 9 -5 9 -12 0 -9 -3 -9 -12 0 -7 7 -15 12 -19 12 -4 0 -67
-180 -141 -400 -85 -258 -136 -396 -142 -390 -18 18 -36 10 -56 -22 -32 -53
-21 -108 15 -78 22 19 20 2 -21 -129 -43 -138 -60 -161 -121 -161 -38 0 -45 3
-54 27 -8 22 -5 39 17 93 36 87 360 836 422 977 50 112 50 112 31 135 -26 29
-35 18 -84 -97 -20 -49 -41 -94 -45 -98 -4 -5 -32 7 -61 26 -94 59 -217 100
-369 123 -58 8 -145 22 -195 31 -49 8 -114 15 -142 14 -57 -2 -83 8 -124 46
-17 16 -29 21 -33 14 -4 -6 -12 -11 -18 -11 -6 0 -6 6 2 15 10 12 10 19 2 27
-15 15 -263 29 -303 18 -27 -8 -32 -6 -50 23 -11 18 -21 41 -23 52 -2 11 -10
43 -17 70 -6 28 -14 100 -16 161 -3 92 -1 114 12 127 27 28 43 79 55 182 6 55
18 125 25 155 8 30 17 79 21 108 7 51 7 52 41 52 26 0 43 8 69 34 19 19 34 43
34 55 0 12 4 21 9 21 4 0 13 29 19 65 8 52 23 85 66 153 65 103 76 130 76 184
0 76 -36 123 -105 138 -27 5 -30 9 -26 40 5 42 5 63 -2 117 -10 80 -21 81 -95
11 l-56 -52 -2 -101 c-2 -55 2 -123 8 -152 10 -47 9 -54 -11 -79 -19 -25 -22
-39 -20 -119 1 -53 -3 -100 -10 -113 -6 -11 -11 -26 -11 -33 0 -20 -80 -179
-89 -179 -5 0 -14 -13 -21 -30 -7 -16 -29 -40 -49 -52 -20 -12 -39 -26 -43
-32 -4 -6 -12 -5 -22 4 -18 14 -18 15 -33 -21 -22 -51 -121 -47 -199 9 -75 54
-119 74 -171 79 -65 7 -70 26 -11 41 30 8 46 8 55 0 10 -8 19 -6 34 8 17 15
20 27 16 62 -7 61 -27 79 -27 25 0 -51 -9 -57 -58 -42 -31 9 -48 8 -91 -5 -51
-15 -55 -15 -82 5 -22 16 -41 20 -82 17 l-52 -3 2 43 c2 46 -8 54 -24 20 -21
-44 -23 -60 -8 -89 16 -29 29 -36 39 -20 5 8 57 -5 83 -22 7 -5 13 0 15 13 3
19 5 19 32 5 34 -18 68 -19 84 -3 23 23 25 -3 2 -27 -25 -27 -59 -32 -91 -14
-22 11 -18 14 -181 -135 -43 -39 -78 -74 -78 -77 0 -16 82 -19 117 -4 27 11
38 12 44 4 4 -7 17 -9 35 -5 38 9 86 13 98 7 10 -5 38 -9 96 -15 19 -2 51 -10
70 -18 40 -17 106 -16 102 1 -4 22 81 1 106 -26 23 -25 31 -86 12 -98 -5 -3
-10 -13 -10 -22 0 -29 -31 -82 -45 -77 -7 3 -19 -4 -25 -16 -6 -11 -19 -20
-28 -19 -9 2 -33 -7 -52 -19 -30 -19 -36 -20 -50 -7 -9 8 -21 15 -27 15 -6 0
-13 9 -16 20 -3 11 -10 19 -16 18 -7 -2 -19 9 -29 25 -22 36 -9 56 50 74 73
21 68 39 -11 35 -63 -4 -291 13 -338 25 -42 10 -24 -14 32 -43 30 -16 55 -34
55 -39 0 -18 -31 -56 -54 -66 -11 -5 -36 -18 -55 -29 -35 -22 -49 -18 -79 22
-7 9 -19 15 -27 12 -8 -3 -20 4 -27 15 -7 12 -18 21 -24 21 -7 0 -18 19 -26
43 -9 27 -19 41 -28 39 -12 -3 -13 -1 -2 9 6 7 12 27 12 45 0 47 34 84 76 84
48 0 65 10 175 111 83 75 94 88 76 93 -33 8 -97 -10 -188 -54 -87 -42 -116
-47 -168 -29 -21 7 -33 20 -37 37 -10 41 -16 47 -30 28 -12 -17 -13 -17 -26 3
-7 12 -17 21 -21 21 -21 0 -58 60 -110 182 -40 92 -44 215 -11 323 13 43 13
62 3 127 -10 60 -10 92 -1 141 7 36 12 80 12 99 0 36 24 68 51 68 8 0 1 11
-16 26 l-30 25 28 -6 c25 -5 28 -3 22 15 -4 11 -2 20 4 20 6 0 11 7 11 15 0
18 14 19 42 4 34 -18 33 -1 -3 31 l-34 30 45 0 45 0 -28 26 c-31 29 -30 42 2
25 53 -29 195 -52 305 -51 81 1 123 -3 156 -15 46 -17 155 -17 209 0 39 13 16
-11 -41 -44 -27 -16 -46 -31 -41 -34 22 -14 158 32 202 66 7 7 62 11 130 12
101 1 126 4 194 29 43 15 81 25 85 22 3 -4 -7 -20 -23 -36 -31 -33 -21 -39 25
-15 29 15 30 15 30 -6 0 -22 8 -22 53 -4 10 4 17 3 17 -4 0 -16 -38 -88 -50
-96 -5 -3 -10 -13 -10 -21 0 -12 4 -13 21 -4 28 16 35 5 22 -31 -12 -30 -11
-31 14 -24 27 6 27 10 7 -54 -4 -13 0 -23 13 -30 17 -8 31 1 99 64 43 41 83
75 87 75 16 0 38 74 38 127 0 54 1 54 20 37 10 -9 22 -14 25 -11 8 8 -34 77
-47 77 -18 0 -9 22 17 43 32 25 64 91 63 132 0 27 -1 28 -13 13 -7 -10 -15
-18 -17 -18 -2 0 -5 30 -5 68 -2 72 -27 146 -60 172 -16 14 -17 13 -10 -5 14
-36 20 -145 7 -145 -6 0 -11 7 -11 15 0 26 -56 127 -95 173 -21 24 -81 76
-134 116 -53 41 -111 90 -129 110 -31 35 -32 36 -32 12 0 -14 5 -37 10 -52 6
-15 9 -28 7 -30 -1 -2 -18 10 -37 27 -53 46 -111 85 -155 104 -31 13 -241 65
-262 65 -2 0 1 -8 6 -18z m-291 -252 c166 -46 309 -151 421 -309 36 -51 23
-45 -49 22 -109 101 -276 194 -198 109 34 -36 81 -112 74 -119 -3 -3 -25 12
-48 33 -91 84 -195 142 -347 194 -51 17 -104 30 -118 27 -31 -6 -40 11 -11 22
23 9 199 -17 259 -38 43 -15 35 0 -21 38 -72 49 -69 51 38 21z m323 -31 c77
-30 209 -113 217 -137 3 -9 -15 -4 -47 12 -28 15 -51 24 -51 20 0 -3 16 -25
36 -47 38 -45 111 -183 101 -193 -3 -3 -26 25 -51 63 -58 88 -159 189 -255
254 -42 29 -80 56 -86 62 -16 15 52 -2 136 -34z m331 -14 c84 -61 146 -172
162 -288 6 -49 -8 -39 -28 20 -24 70 -87 170 -151 241 -63 69 -55 80 17 27z
m253 -207 c16 -56 19 -121 5 -153 -7 -16 -9 -12 -9 20 -1 22 -8 71 -16 110
-18 83 -18 88 -5 80 5 -3 16 -29 25 -57z m-1507 -233 c23 -15 30 -25 20 -25
-17 0 -81 49 -65 50 4 0 25 -11 45 -25z m45 -119 c18 -14 18 -15 1 -24 -15 -8
-16 -13 -6 -25 10 -12 9 -16 -4 -21 -29 -11 -35 7 -25 77 2 11 14 8 34 -7z
m1558 -85 c-16 -28 -14 -34 9 -28 24 6 25 -1 3 -25 -27 -30 -69 -15 -43 17 8
10 8 15 -4 22 -13 7 -12 13 12 38 22 24 27 26 30 13 2 -9 -2 -26 -7 -37z
m-1677 -301 c20 -69 20 -67 -8 -37 -34 35 -69 35 -84 2 -15 -32 -15 -65 -2
-65 6 0 10 6 10 14 0 7 7 20 16 27 14 11 18 10 30 -5 15 -21 10 -57 -12 -93
-8 -12 -14 -33 -15 -45 0 -17 -7 -10 -25 27 -47 99 -22 195 51 195 25 0 35 -5
39 -20z m1826 -110 c29 -29 26 -95 -6 -156 -14 -27 -29 -53 -33 -57 -4 -4 -14
24 -21 62 -10 57 -11 73 0 85 16 20 50 3 50 -24 0 -11 5 -20 10 -20 15 0 12
63 -4 85 -9 13 -20 16 -36 12 -24 -6 -50 7 -50 24 0 18 70 9 90 -11z m-1760
-46 c0 -8 -4 -12 -10 -9 -5 3 -10 10 -10 16 0 5 5 9 10 9 6 0 10 -7 10 -16z
m-65 -97 c-7 -45 9 -102 25 -92 5 3 10 19 10 35 0 36 16 48 22 17 3 -13 6 -74
7 -136 2 -111 2 -113 -20 -109 -41 6 -62 50 -69 145 -3 48 -12 98 -19 111 -9
17 -9 27 0 45 28 52 53 42 44 -16z m1746 -84 c8 -22 5 -38 -16 -84 -15 -34
-25 -75 -25 -103 0 -38 -6 -53 -32 -81 -17 -19 -40 -35 -51 -35 -18 0 -19 5
-12 83 4 45 11 86 16 92 5 5 9 21 9 36 0 15 3 34 6 43 10 27 24 7 24 -37 l1
-42 20 38 c11 21 20 51 19 65 -3 44 -1 52 15 52 9 0 20 -12 26 -27z m-1191
-513 c-21 -14 -30 -12 -30 4 0 18 22 27 35 14 6 -6 5 -12 -5 -18z m132 3 c-5
-10 -7 -24 -5 -30 7 -19 -27 -29 -38 -12 -6 10 0 22 19 40 30 29 38 30 24 2z
m281 -60 c-7 -17 -28 -16 -43 2 -8 9 -21 13 -36 9 -15 -4 -24 -2 -24 5 0 18
29 25 45 11 16 -13 19 -8 15 24 -1 16 3 14 23 -10 14 -15 22 -34 20 -41z
m-227 18 c-5 -7 -13 -7 -26 1 -14 9 -16 15 -8 26 9 11 14 11 26 -2 8 -8 11
-19 8 -25z m-576 -11 c0 -25 -18 -36 -26 -16 -8 21 3 49 16 41 5 -3 10 -15 10
-25z m965 0 c3 -5 2 -10 -4 -10 -5 0 -13 5 -16 10 -3 6 -2 10 4 10 5 0 13 -4
16 -10z m385 -6 c0 -14 -22 -44 -32 -44 -6 0 -17 -8 -24 -17 -10 -14 -15 -15
-25 -6 -15 15 -4 44 14 37 7 -2 22 4 32 16 17 19 35 26 35 14z m-1249 -139
c-6 -35 -8 -37 -15 -17 -4 12 -14 22 -22 22 -23 0 -27 26 -9 54 l17 26 18 -23
c14 -17 16 -31 11 -62z m1089 -42 c0 -13 -45 -102 -51 -103 -10 0 -18 38 -12
60 3 11 12 20 19 20 8 0 17 7 20 15 6 15 24 21 24 8z m-1108 -223 c10 -17 21
-29 25 -28 9 3 118 -76 129 -93 4 -8 9 -7 15 2 7 11 22 0 62 -42 50 -54 111
-99 136 -99 13 0 15 27 2 32 -5 2 -57 49 -117 105 -60 55 -120 110 -134 122
-14 11 -20 20 -14 21 6 0 24 -12 40 -27 17 -16 83 -77 148 -138 136 -127 195
-161 254 -146 20 6 46 10 57 10 42 -1 98 10 108 20 6 6 17 11 25 11 7 0 41 23
73 52 49 42 62 49 70 38 7 -11 11 -12 17 -3 4 6 31 23 59 38 29 14 55 30 58
35 4 6 10 8 15 5 5 -3 32 20 61 50 28 30 55 55 58 55 3 0 4 -26 3 -57 -4 -67
-22 -91 -114 -154 -81 -55 -85 -56 -81 -17 l4 33 -28 -35 c-65 -82 -108 -114
-209 -154 -125 -49 -132 -55 -99 -86 l25 -24 83 34 c131 53 210 95 328 175 61
41 112 75 114 75 1 0 6 -19 9 -43 4 -23 15 -56 26 -72 11 -17 20 -41 20 -55 0
-26 -77 -131 -216 -293 -71 -83 -75 -89 -57 -102 10 -8 13 -15 8 -15 -6 0 -16
5 -22 11 -16 16 -26 7 -68 -56 -20 -30 -40 -55 -45 -55 -13 0 -70 75 -123 162
-27 43 -69 95 -97 118 -28 23 -50 47 -50 54 0 7 16 21 35 32 41 22 42 27 13
54 -27 25 -25 25 -66 0 -18 -11 -36 -20 -41 -20 -8 0 -145 77 -218 123 -42 27
-101 94 -137 158 l-20 34 -5 -28 c-6 -29 -6 -28 -85 52 -53 55 -76 86 -72 97
3 9 6 27 6 40 0 32 11 30 32 -6z m25 -229 c121 -118 190 -170 333 -250 41 -23
79 -46 84 -51 4 -5 -14 -36 -42 -70 -27 -34 -54 -71 -59 -83 -57 -123 -97
-198 -121 -227 l-30 -35 -73 50 -74 50 -80 160 c-44 89 -101 192 -126 230 -85
129 -85 131 -24 196 25 26 45 55 45 64 0 22 27 85 37 85 5 0 63 -53 130 -119z
m-355 -216 c30 -69 114 -195 130 -195 18 0 5 38 -43 121 -29 49 -49 92 -45 96
8 8 2 15 70 -89 31 -48 76 -133 100 -188 69 -158 97 -194 199 -262 122 -79
138 -77 212 24 27 36 47 55 49 47 3 -8 15 -72 28 -144 17 -99 22 -169 23 -292
0 -89 3 -164 6 -167 4 -4 20 9 37 28 26 30 31 45 36 113 8 85 -2 196 -34 369
-17 94 -18 127 -11 208 8 81 14 103 36 132 14 19 32 34 38 34 27 0 93 -68 145
-149 114 -179 210 -244 250 -170 9 18 32 54 50 81 17 28 32 54 32 59 0 5 5 9
10 9 17 0 120 115 220 245 51 66 101 128 112 137 16 15 40 17 159 16 115 -2
139 -4 139 -17 0 -8 7 -22 16 -32 14 -15 11 -19 -37 -47 -64 -37 -50 -49 33
-26 82 23 144 24 141 4 -1 -8 -8 -73 -17 -145 -53 -427 -86 -714 -86 -741 0
-25 11 -41 58 -82 97 -87 227 -211 221 -212 -3 0 -15 8 -26 18 -40 34 -216
197 -234 216 -11 11 -21 17 -23 15 -3 -3 -14 -47 -26 -99 -11 -52 -34 -147
-51 -210 l-30 -115 -86 -50 c-48 -27 -110 -71 -138 -97 l-51 -47 -396 -1
c-280 0 -398 3 -403 10 -4 7 -9 134 -12 283 -2 150 -6 278 -9 285 -3 9 -15 3
-40 -20 l-36 -33 6 -235 c3 -129 7 -244 8 -255 3 -19 -3 -20 -89 -20 -50 0
-95 -3 -99 -7 -4 -4 -14 -2 -22 5 -21 17 -312 23 -342 7 -15 -8 -25 -9 -32 -2
-6 6 -25 8 -44 5 -30 -5 -34 -3 -39 23 -12 55 -57 189 -72 214 -8 14 -55 63
-104 110 l-89 85 -19 129 -18 129 -55 51 c-30 28 -97 89 -148 136 -51 47 -113
104 -138 128 -37 35 -63 51 -62 40 0 -2 11 -70 25 -153 23 -136 30 -205 22
-205 -2 0 -45 17 -97 38 -52 22 -133 52 -180 67 -47 15 -101 39 -120 52 -38
25 -60 29 -77 12 -8 -8 -11 -6 -10 6 3 25 -49 39 -87 23 -25 -10 -30 -9 -47
13 -38 49 -69 123 -69 165 0 37 8 53 58 116 70 88 109 122 179 156 54 27 62
39 41 60 -9 9 -9 12 0 12 7 0 12 -4 12 -9 0 -18 33 -21 84 -6 84 25 196 43
202 34 2 -5 11 -46 19 -91 8 -46 19 -84 25 -86 6 -2 6 -10 1 -21 -9 -16 7
-115 24 -151 3 -8 42 -46 85 -84 43 -38 127 -115 187 -172 59 -56 111 -99 115
-96 4 4 -2 68 -13 142 -11 74 -31 219 -44 322 -28 216 -41 296 -50 319 -3 10
0 22 7 28 7 5 30 24 51 42 20 17 37 28 37 24 0 -4 -7 -13 -17 -20 -28 -21 0
-24 52 -6 28 10 77 32 110 49 33 18 66 31 73 29 7 -1 27 -33 44 -72z m-372
-78 c0 -2 -10 -12 -22 -23 l-23 -19 19 23 c18 21 26 27 26 19z m-95 -97 c-27
-27 -51 -47 -54 -44 -5 5 86 94 97 94 3 0 -16 -22 -43 -50z m-65 -60 c0 -5 -5
-10 -11 -10 -5 0 -7 5 -4 10 3 6 8 10 11 10 2 0 4 -4 4 -10z m-60 -55 c-19
-19 -39 -35 -44 -35 -11 0 61 70 72 70 3 0 -9 -16 -28 -35z m3599 -217 c0 -33
-34 -111 -49 -116 -8 -3 -11 1 -8 9 3 8 14 40 24 72 18 58 34 75 33 35z
m-4429 -210 c0 -13 -39 -58 -51 -58 -11 0 0 31 19 53 17 20 32 22 32 5z m362
-45 c41 -18 47 -27 22 -37 -21 -8 -94 14 -94 29 0 29 19 31 72 8z m-373 -79
c-40 -40 -75 -72 -77 -69 -2 2 -1 16 3 32 7 31 120 127 137 117 6 -4 -23 -40
-63 -80z m281 22 c0 -7 20 -19 46 -26 37 -11 56 -11 92 -1 41 11 52 9 151 -25
162 -56 293 -117 400 -188 54 -35 106 -70 117 -79 75 -60 204 -169 227 -191
47 -44 99 -186 122 -333 4 -24 11 -43 17 -43 5 0 6 -9 3 -20 -9 -28 13 -155
35 -205 55 -125 275 -273 530 -357 77 -25 101 -37 113 -58 14 -24 14 -29 2
-48 -20 -27 -35 -32 -360 -97 -255 -52 -288 -57 -364 -51 -46 3 -100 14 -120
23 -20 10 -71 52 -114 95 -43 43 -85 78 -93 78 -19 0 -18 -6 8 -47 l21 -35
-24 7 c-37 12 -78 42 -147 109 l-63 61 -35 -38 -35 -38 2 -95 c1 -52 -1 -98
-5 -101 -3 -3 -6 -22 -6 -41 0 -51 -20 -36 -52 41 -15 36 -39 83 -53 103 -14
20 -26 51 -26 68 -1 26 -3 23 -11 -16 -6 -27 -7 -56 -3 -65 5 -10 7 -23 6 -29
-1 -7 8 -33 19 -59 24 -55 41 -125 34 -137 -3 -4 -24 6 -47 23 -50 37 -101 59
-133 59 -13 0 -24 3 -24 8 0 4 -30 21 -67 37 -36 16 -89 44 -116 62 -27 18
-52 31 -55 28 -10 -10 53 -89 93 -116 53 -36 112 -54 130 -39 10 8 13 7 11 -6
-1 -11 13 -21 39 -31 22 -7 47 -21 55 -29 14 -14 12 -15 -15 -10 -16 3 -58 7
-92 8 -54 2 -66 -1 -90 -22 -20 -18 -23 -19 -10 -4 9 11 17 23 17 26 0 11
-177 15 -275 7 -174 -15 -338 -80 -453 -181 -50 -43 -58 -23 -12 32 59 70 110
160 110 192 0 34 -15 36 -31 6 -17 -32 -63 -88 -71 -88 -13 0 -9 79 8 143 22
84 45 126 110 199 112 125 264 352 264 394 0 26 -127 -96 -196 -187 -87 -117
-87 -118 -110 -72 -41 82 -18 244 53 385 29 60 57 188 44 201 -7 7 -6 14 3 21
26 20 50 436 26 436 -6 0 -13 -7 -16 -15 -4 -8 -11 -15 -17 -15 -6 0 0 11 12
24 25 27 40 80 41 144 0 24 5 52 10 62 12 22 177 160 191 160 21 0 5 -22 -77
-102 -54 -52 -84 -90 -80 -97 5 -8 26 4 64 37 85 72 139 112 150 112 32 0 10
-35 -71 -112 -51 -48 -87 -87 -82 -87 6 -1 52 33 104 74 89 71 111 85 111 67
0 -4 -40 -48 -90 -97 -84 -84 -101 -105 -82 -105 4 0 52 36 106 80 55 43 103
77 108 74 5 -4 -32 -49 -84 -102 -52 -53 -88 -97 -81 -99 7 -3 54 30 105 71
84 69 118 89 118 69 0 -5 -36 -42 -81 -83 -44 -41 -85 -83 -90 -92 -20 -37 18
-17 106 57 82 68 115 88 115 68 0 -4 -39 -47 -86 -94 -48 -48 -85 -92 -83 -98
3 -7 49 24 104 68 55 45 103 81 107 81 20 0 3 -23 -54 -72 -120 -103 -273
-263 -291 -304 -37 -82 15 -164 104 -164 43 0 133 56 194 120 39 40 112 87
122 77 2 -3 -13 -23 -35 -45 -69 -69 -73 -144 -13 -242 17 -29 21 -51 21 -126
0 -50 3 -107 7 -125 9 -45 94 -128 168 -164 47 -24 60 -26 81 -16 30 14 44 14
44 1 0 -14 54 -100 62 -100 11 0 48 38 48 49 0 9 -79 155 -107 198 -15 23
-125 113 -137 113 -16 0 -3 -46 23 -79 39 -50 52 -77 45 -95 -8 -22 -13 -21
-68 22 -73 55 -85 76 -92 162 -7 93 -1 102 88 134 37 14 82 32 101 41 34 16
77 77 77 109 0 14 -6 12 -37 -8 -21 -14 -82 -41 -137 -61 -111 -40 -115 -39
-141 30 -14 35 -15 47 -5 66 36 69 64 82 247 118 82 16 172 40 201 53 47 21
52 26 38 37 -13 11 -38 12 -110 7 -77 -6 -107 -3 -174 13 -44 12 -91 21 -104
21 -12 0 -66 -19 -118 -41 -79 -35 -108 -55 -172 -115 -89 -85 -127 -100 -73
-28 29 37 35 54 35 94 0 46 3 50 61 104 66 62 243 156 292 156 16 0 99 -16
184 -35 124 -28 173 -35 237 -33 47 2 80 7 79 13 -1 6 -32 18 -69 27 -88 23
-221 67 -258 85 -16 9 -73 44 -127 80 -54 35 -133 77 -179 94 -100 36 -148 60
-189 95 l-32 27 -32 -29 c-36 -33 -35 -29 8 20 32 36 55 45 55 22z m3295 -601
c-21 -17 -37 -15 -43 3 -2 8 8 12 30 12 31 -1 32 -1 13 -15z m-3375 -28 c0
-15 -52 -91 -69 -101 -19 -12 -22 14 -5 41 38 61 74 90 74 60z m-365 -147 c3
-5 1 -10 -4 -10 -6 0 -11 5 -11 10 0 6 2 10 4 10 3 0 8 -4 11 -10z m1688 -63
c-26 -25 -50 -43 -53 -41 -5 6 93 94 98 89 2 -1 -18 -23 -45 -48z m2707 -172
c0 -39 -14 -46 -30 -14 -14 25 -6 49 15 49 11 0 15 -10 15 -35z m552 -389 c22
-21 38 -40 35 -42 -5 -5 -127 113 -127 123 0 7 25 -15 92 -81z m98 -100 c0 -6
-11 2 -25 18 -32 37 -32 46 0 16 14 -13 25 -28 25 -34z m-3990 -260 c0 -12
-59 46 -60 58 0 6 14 -3 30 -19 17 -16 30 -33 30 -39z m120 -101 c29 -34 -4
-11 -57 41 l-58 57 51 -41 c28 -23 57 -48 64 -57z m2655 -40 c153 -38 261
-103 402 -239 59 -57 77 -81 99 -138 24 -60 45 -83 56 -60 2 4 17 18 33 32 17
14 12 5 -13 -21 l-44 -47 7 -56 c11 -82 41 -60 44 32 1 17 5 32 10 32 14 0
119 -165 162 -253 44 -93 63 -174 53 -232 -8 -48 -20 -72 -59 -116 -39 -45
-168 -85 -315 -99 -58 -6 -150 -15 -205 -20 -155 -16 -191 -13 -285 21 -115
42 -124 43 -139 25 -8 -9 -19 -16 -25 -16 -6 0 -3 5 7 11 26 15 21 33 -15 48
-82 35 -327 161 -463 239 -294 167 -485 307 -485 355 0 25 65 67 104 67 59 0
235 -82 466 -218 204 -120 336 -188 400 -206 62 -18 229 -23 257 -7 16 8 15
10 -7 14 -14 3 -52 11 -85 17 -116 23 -279 96 -605 271 -209 112 -250 148
-250 218 0 43 32 96 98 163 64 66 131 101 247 130 44 11 82 22 84 24 3 2 -4
11 -15 19 -10 8 -14 15 -8 15 6 0 17 -7 24 -15 17 -21 43 -19 136 9 107 33
202 33 329 1z m-3155 -16 c63 -6 117 -13 120 -16 3 -3 -3 -10 -14 -17 -10 -6
-52 -33 -94 -61 -41 -27 -113 -72 -160 -98 -182 -103 -327 -224 -398 -332 -34
-53 -51 -95 -37 -95 4 0 32 25 62 55 30 30 56 54 57 52 2 -2 -2 -21 -10 -43
-7 -21 -21 -70 -30 -109 -9 -38 -28 -87 -41 -107 -20 -29 -25 -51 -25 -97 0
-33 5 -63 11 -67 8 -4 8 -9 0 -17 -6 -6 -11 -22 -11 -37 -1 -24 -1 -24 -15 -6
-8 11 -15 33 -15 48 0 20 -12 41 -41 69 -23 22 -39 42 -37 45 3 2 17 -10 33
-26 16 -17 32 -30 37 -30 4 0 8 21 8 48 1 33 10 64 30 102 17 30 26 56 20 58
-5 2 -35 -16 -66 -40 -47 -36 -60 -53 -79 -102 -12 -33 -26 -61 -32 -63 -15
-5 -126 204 -117 219 5 7 7 20 6 29 -6 36 35 96 148 215 66 70 120 131 120
136 0 13 -28 9 -63 -8 -43 -22 -150 -108 -181 -144 -14 -17 -29 -30 -34 -30
-29 0 -17 209 14 258 41 64 192 155 319 193 66 20 326 42 380 32 11 -2 72 -8
135 -14z m-860 -655 c0 -6 -7 -14 -15 -18 -10 -3 -15 1 -15 13 0 10 7 18 15
18 8 0 15 -6 15 -13z"/>
<path d="M5018 4257 c-39 -37 -71 -92 -65 -110 2 -6 17 8 33 33 16 25 41 55
57 68 27 24 35 42 18 42 -4 0 -24 -15 -43 -33z"/>
<path d="M4020 4752 c0 -18 128 -159 181 -198 59 -46 149 -94 175 -94 8 0 -18
23 -60 51 -41 27 -122 95 -180 150 -101 96 -116 108 -116 91z"/>
<path d="M4598 3956 c-22 -17 -23 -69 -2 -87 40 -33 124 -2 124 46 0 47 -79
74 -122 41z m83 -32 c11 -14 10 -18 -6 -30 -23 -17 -27 -17 -50 0 -24 17 -13
46 18 46 14 0 31 -7 38 -16z"/>
<path d="M4778 3965 c-3 -3 1 -25 9 -48 8 -23 16 -73 18 -112 2 -38 9 -71 14
-73 6 -2 4 -14 -6 -28 -14 -21 -15 -42 -8 -147 4 -67 7 -191 5 -274 -2 -161 9
-198 29 -95 21 110 29 226 20 282 -5 30 -9 126 -10 213 -1 144 -3 163 -24 210
-29 63 -40 79 -47 72z"/>
<path d="M4617 3512 c-31 -34 -20 -74 26 -91 29 -11 75 0 89 22 14 21 8 59 -9
73 -27 20 -87 17 -106 -4z m74 -12 c25 -14 24 -36 -1 -50 -41 -22 -82 26 -42
49 21 13 20 13 43 1z"/>
<path d="M4660 3048 c-30 -11 -40 -25 -40 -60 0 -32 24 -48 73 -48 57 0 89 58
50 92 -25 21 -54 27 -83 16z m65 -53 c0 -15 -8 -21 -29 -23 -33 -4 -51 10 -42
33 9 25 71 16 71 -10z"/>
<path d="M3560 3184 c0 -4 14 -19 30 -33 17 -14 37 -44 44 -66 21 -60 38 -57
34 5 -2 43 -8 56 -28 71 -28 20 -80 35 -80 23z"/>
<path d="M3396 3071 c-3 -4 12 -16 34 -26 22 -10 40 -22 40 -27 0 -4 7 -8 15
-8 39 0 -6 55 -52 64 -18 3 -35 2 -37 -3z"/>
<path d="M3290 2920 c0 -5 9 -10 21 -10 12 0 48 -26 85 -62 44 -42 64 -56 64
-44 0 18 -55 105 -74 118 -16 11 -96 9 -96 -2z"/>
<path d="M3614 2839 c8 -47 54 -159 66 -159 4 0 10 -12 14 -27 7 -33 42 -81
52 -71 8 8 -13 66 -33 89 -7 8 -13 23 -13 32 0 23 -65 163 -80 172 -10 6 -11
-2 -6 -36z"/>
<path d="M3181 2681 c-17 -11 -6 -31 17 -31 10 0 35 -9 57 -20 22 -11 43 -20
47 -20 16 0 7 23 -21 51 -30 29 -72 38 -100 20z"/>
<path d="M3530 2655 c0 -24 28 -85 38 -85 5 0 12 -13 15 -28 9 -43 77 -123
150 -175 99 -71 113 -60 31 26 -77 80 -168 182 -170 188 -1 2 -11 23 -23 47
-22 42 -41 55 -41 27z"/>
<path d="M3440 2426 c0 -11 194 -157 215 -162 30 -7 47 -2 37 11 -13 18 -223
155 -238 155 -7 0 -14 -2 -14 -4z"/>
<path d="M6597 1044 c-4 -4 -7 -20 -7 -36 0 -36 -22 -89 -43 -107 -10 -7 -17
-22 -17 -32 0 -10 -5 -16 -12 -14 -7 3 -35 -10 -63 -27 -44 -29 -47 -33 -27
-36 30 -5 166 61 186 90 29 41 13 192 -17 162z"/>
<path d="M3890 7160 c0 -6 7 -24 15 -40 21 -40 4 -38 -44 5 -21 19 -42 35 -46
35 -15 0 5 -172 25 -218 11 -25 18 -47 15 -50 -2 -3 -19 10 -36 29 l-32 34 7
-65 c11 -94 18 -98 79 -40 l52 50 -18 31 c-22 40 -16 47 20 21 l28 -20 38 30
c31 25 37 35 32 55 -5 21 -3 23 20 17 14 -3 25 -3 25 1 0 4 -21 31 -46 61 -31
36 -58 57 -83 64 -45 12 -51 12 -51 0z"/>
<path d="M4087 7019 c7 -7 15 -10 18 -7 3 3 -2 9 -12 12 -14 6 -15 5 -6 -5z"/>
<path d="M5630 6456 c0 -7 7 -19 15 -26 13 -11 15 -8 15 14 0 16 -5 26 -15 26
-8 0 -15 -6 -15 -14z"/>
<path d="M4937 6350 c-35 -10 -98 -70 -75 -70 9 0 18 6 21 13 3 7 31 22 63 32
33 11 63 23 69 27 12 10 -42 9 -78 -2z"/>
<path d="M4245 6320 c-3 -5 -23 -10 -44 -10 -40 0 -149 -49 -173 -77 -12 -15
-10 -16 12 -9 55 15 130 18 179 6 28 -6 53 -15 56 -20 2 -4 -23 -18 -58 -30
-34 -12 -66 -26 -71 -31 -14 -13 24 -11 62 2 39 13 67 6 32 -9 -14 -5 -41 -16
-60 -24 l-35 -15 49 -31 c28 -18 54 -32 58 -32 16 0 7 15 -14 25 -26 12 -36
35 -14 35 9 0 30 -9 48 -20 56 -34 148 -18 148 26 0 8 6 14 13 14 21 0 50 -37
43 -55 -5 -13 0 -16 26 -13 49 5 44 24 -16 64 -31 20 -56 38 -56 40 0 10 71
-23 102 -48 24 -19 39 -25 43 -17 4 6 2 16 -4 22 -19 19 -12 37 13 37 42 0 49
-22 43 -124 -6 -103 7 -151 19 -70 14 93 10 181 -9 202 -10 11 -19 33 -20 48
-2 27 -6 29 -52 35 -28 4 -81 19 -120 34 -72 28 -161 55 -182 55 -6 0 -15 -4
-18 -10z m135 -200 c0 -5 -6 -10 -14 -10 -8 0 -18 5 -21 10 -3 6 3 10 14 10
12 0 21 -4 21 -10z"/>
<path d="M5082 6251 c-40 -10 -76 -21 -80 -25 -8 -9 73 -83 105 -96 14 -6 21
-15 17 -24 -5 -14 -8 -14 -21 -1 -8 8 -21 15 -30 15 -8 0 -13 5 -11 12 2 6
-14 28 -37 49 -36 33 -47 38 -100 40 -53 3 -60 0 -64 -17 -2 -10 -16 -37 -32
-58 -33 -45 -28 -69 6 -31 27 29 34 30 59 12 16 -11 17 -17 6 -36 -17 -33 -7
-36 37 -7 21 13 52 28 68 32 23 5 16 -3 -32 -35 -35 -22 -63 -45 -63 -50 0
-13 58 -32 65 -21 3 4 2 15 -1 23 -3 10 5 22 22 34 23 14 28 15 32 3 8 -24 50
-60 71 -60 11 0 32 5 46 12 24 11 24 12 9 35 l-15 24 24 -16 c22 -14 25 -14
31 0 5 14 8 14 27 -4 13 -12 19 -26 16 -35 -9 -22 13 -19 43 5 24 20 24 21 5
35 -10 8 -29 14 -41 14 -19 0 -94 36 -94 45 0 6 116 -23 143 -35 15 -7 30 -10
34 -6 10 9 -14 25 -49 33 -16 3 -28 9 -28 13 0 4 -15 11 -32 15 -31 7 -29 8
34 21 64 12 70 12 129 -11 34 -14 64 -23 67 -20 15 15 -144 115 -184 115 -12
0 -26 5 -29 10 -9 15 -70 11 -153 -9z m18 -171 c0 -5 -7 -10 -15 -10 -8 0 -15
5 -15 10 0 6 7 10 15 10 8 0 15 -4 15 -10z"/>
<path d="M4583 6030 c-10 -17 -33 -40 -52 -51 -46 -27 -32 -35 22 -11 32 14
47 28 55 51 15 41 -2 49 -25 11z"/>
<path d="M4834 6018 c7 -37 30 -64 68 -84 36 -19 36 -6 -1 28 -15 15 -34 41
-41 58 -17 40 -34 39 -26 -2z"/>
<path d="M4260 5950 c8 -5 33 -9 55 -9 35 1 37 2 15 9 -14 4 -38 8 -55 9 -23
0 -26 -2 -15 -9z"/>
<path d="M5090 5900 c0 -5 18 -10 39 -10 22 0 43 5 46 10 4 6 -12 10 -39 10
-25 0 -46 -4 -46 -10z"/>
<path d="M4084 5750 c3 -17 19 -50 34 -73 16 -23 32 -52 36 -64 11 -36 29 -28
23 10 -6 37 -74 157 -89 157 -6 0 -8 -13 -4 -30z"/>
<path d="M4600 5700 c0 -16 5 -30 10 -30 6 0 10 14 10 30 0 17 -4 30 -10 30
-5 0 -10 -13 -10 -30z"/>
<path d="M5300 5680 c0 -5 -20 -32 -44 -59 -42 -48 -64 -87 -53 -98 6 -5 87
80 104 111 15 26 17 56 3 56 -5 0 -10 -4 -10 -10z"/>
<path d="M4418 5541 c-36 -36 -35 -45 2 -26 17 9 30 17 30 19 0 3 3 11 6 20 9
24 -8 19 -38 -13z"/>
<path d="M4930 5531 c0 -6 11 -23 25 -38 29 -33 35 -10 6 25 -20 23 -31 28
-31 13z"/>
<path d="M3940 5176 c0 -8 4 -17 9 -20 21 -14 51 -90 51 -131 0 -25 3 -45 8
-45 12 1 82 69 82 81 0 6 -19 28 -42 48 -23 20 -51 46 -62 59 -22 25 -46 29
-46 8z"/>
<path d="M7374 4363 c-27 -20 -64 -50 -84 -68 -19 -18 -51 -46 -70 -62 -30
-27 -33 -33 -21 -47 22 -27 40 -19 116 49 40 36 76 65 79 65 18 0 -1 -30 -60
-91 -67 -69 -75 -92 -38 -106 21 -8 139 112 160 163 19 44 18 99 -2 118 -21
22 -26 21 -80 -21z"/>
<path d="M6485 3250 l-29 -30 37 -31 c33 -27 37 -36 37 -75 0 -44 -1 -45 -27
-42 -24 3 -28 7 -25 31 1 15 0 27 -3 27 -19 0 -122 -59 -153 -88 -149 -139
-162 -154 -162 -182 0 -16 252 8 283 27 9 5 -15 32 -44 49 -9 5 -31 27 -50 48
-27 31 -29 37 -11 27 12 -6 22 -16 22 -21 0 -16 22 -12 35 7 18 25 37 7 30
-29 -5 -21 -2 -35 11 -49 21 -23 42 -24 71 -4 30 21 68 10 93 -25 25 -36 25
-62 0 -85 -20 -18 -20 -18 5 -41 14 -13 32 -21 40 -18 20 8 55 67 55 93 0 33
-24 84 -60 124 -31 36 -32 40 -34 133 l-1 96 -37 34 c-21 19 -38 39 -38 44 0
18 -16 11 -45 -20z"/>
<path d="M6260 2674 c-46 -15 -99 -49 -90 -58 18 -17 166 46 154 65 -6 11 -7
11 -64 -7z"/>
<path d="M5810 2630 c-14 -11 -31 -20 -38 -20 -16 0 -195 -115 -213 -136 -36
-44 65 -7 119 44 18 17 39 29 46 26 7 -3 37 18 65 47 54 54 63 71 21 39z"/>
<path d="M6040 2521 c-30 -10 -71 -26 -90 -36 -58 -30 -152 -99 -140 -103 21
-7 311 125 325 149 9 14 -34 10 -95 -10z"/>
<path d="M5880 2183 c-52 -19 -130 -57 -130 -64 0 -13 18 -11 86 10 33 11 97
25 142 31 45 7 82 16 82 21 0 10 -154 11 -180 2z"/>
<path d="M5344 2005 c9 -39 53 -83 94 -94 43 -13 51 4 12 24 -17 9 -50 35 -72
58 l-41 42 7 -30z"/>
<path d="M5175 1796 c-107 -35 -179 -70 -317 -153 -171 -102 -173 -127 -5 -54
26 11 78 38 115 59 37 22 117 65 177 96 156 81 165 97 30 52z"/>
<path d="M4070 1243 c-25 -8 -47 -19 -50 -23 -3 -4 -15 -10 -28 -14 -12 -4
-102 -46 -200 -93 -370 -178 -488 -225 -619 -248 -47 -8 -90 -15 -96 -15 -7 0
-6 -5 2 -12 8 -9 49 -13 134 -12 107 0 130 3 187 26 60 23 201 94 375 188 39
21 106 57 150 80 93 50 107 59 100 70 -3 5 3 6 13 3 9 -2 39 8 65 22 76 43 56
59 -33 28z"/>
<path d="M2529 968 c-16 -30 -16 -102 0 -131 22 -41 180 -122 198 -103 5 5 2
11 -6 14 -7 2 -36 23 -65 46 -56 46 -96 113 -96 163 0 38 -14 43 -31 11z"/>
</g>
</svg>
