<?xml version="1.0" standalone="no"?>
<!DOCTYPE svg PUBLIC "-//W3C//DTD SVG 20010904//EN"
 "http://www.w3.org/TR/2001/REC-SVG-20010904/DTD/svg10.dtd">
<svg version="1.0" xmlns="http://www.w3.org/2000/svg"
 width="1104.000000pt" height="1104.000000pt" viewBox="0 0 1104.000000 1104.000000"
 preserveAspectRatio="xMidYMid meet">
<metadata>
Created by potrace 1.14, written by Peter Selinger 2001-2017
</metadata>
<g transform="translate(0.000000,1104.000000) scale(0.100000,-0.100000)"
fill="#000000" stroke="none">
<path d="M4857 9913 c4 -153 17 -528 28 -867 3 -88 7 -162 10 -164 2 -2 27 -4
57 -5 l53 -1 -3 150 c-4 178 -3 196 3 202 5 5 61 8 294 15 l84 2 41 -51 c22
-28 52 -66 66 -84 14 -18 50 -66 80 -106 30 -40 62 -82 70 -93 12 -18 23 -20
77 -18 35 1 63 4 63 6 0 3 -63 91 -83 116 -4 6 -48 64 -97 129 -65 87 -86 122
-77 128 6 5 29 18 49 28 57 31 117 95 146 158 24 50 27 69 27 162 0 94 -3 111
-27 160 -50 101 -121 159 -243 199 -51 17 -91 19 -339 21 l-282 1 3 -88z m614
-50 c105 -49 153 -125 152 -244 0 -116 -43 -189 -140 -239 -23 -12 -50 -23
-60 -25 -10 -2 -18 -4 -18 -5 0 -6 -53 -11 -135 -14 -225 -8 -261 -9 -268 -2
-4 4 -8 29 -9 54 -1 26 -4 133 -8 237 -3 105 -7 206 -8 225 l-2 35 70 3 c39 1
74 4 78 5 4 1 70 2 145 2 132 -1 139 -2 203 -32z"/>
<path d="M6065 9991 c-3 -6 1 -25 10 -42 9 -17 22 -48 30 -68 7 -20 22 -56 33
-81 12 -25 31 -70 42 -100 12 -30 28 -71 37 -90 8 -19 19 -45 24 -57 5 -13 13
-33 19 -45 60 -137 122 -298 122 -318 0 -26 -8 -87 -17 -130 -2 -13 -7 -40
-10 -60 -3 -20 -7 -45 -9 -56 -2 -12 -7 -44 -11 -71 l-6 -50 47 -7 c73 -10 71
-11 79 51 4 32 8 64 10 73 1 8 6 35 9 60 3 25 8 54 10 65 2 11 7 43 10 70 6
41 17 62 54 106 26 31 65 78 87 104 22 27 49 58 60 70 11 11 36 40 56 65 20
25 47 56 59 70 12 14 39 45 60 70 21 25 47 55 57 66 10 12 36 43 58 70 22 26
46 54 54 61 19 19 4 29 -57 38 -38 6 -46 4 -59 -15 -9 -12 -30 -39 -48 -59
-18 -20 -66 -74 -105 -121 -40 -47 -82 -96 -94 -110 -11 -14 -43 -52 -71 -85
-27 -33 -63 -75 -80 -93 -16 -19 -34 -40 -38 -48 -4 -8 -12 -14 -17 -14 -9 0
-38 57 -44 85 -1 6 -13 30 -26 55 -12 25 -23 47 -23 50 1 8 -71 187 -102 255
-7 17 -26 62 -41 100 -15 39 -31 74 -35 80 -5 5 -9 17 -9 26 0 13 -12 19 -42
24 -24 3 -50 9 -60 11 -9 3 -19 0 -23 -5z"/>
<path d="M4225 9898 c-38 -10 -79 -20 -90 -22 -25 -6 -416 -96 -430 -100 -16
-5 -89 -20 -97 -21 -3 0 -9 -3 -13 -7 -4 -4 -13 -4 -21 -1 -13 5 -19 -9 -14
-32 1 -5 9 -37 17 -70 8 -33 16 -69 18 -80 3 -11 9 -40 15 -65 6 -25 13 -56
16 -70 3 -14 12 -52 21 -85 8 -33 17 -69 19 -80 2 -11 6 -29 9 -40 4 -17 28
-124 40 -176 2 -9 8 -33 13 -53 6 -20 8 -36 6 -36 -3 0 0 -8 5 -17 5 -10 11
-31 14 -48 3 -16 10 -52 17 -80 6 -27 13 -57 15 -65 10 -50 27 -100 33 -100 4
0 43 9 86 20 44 11 91 23 105 26 37 7 56 12 56 14 0 1 9 3 20 5 32 6 89 18
100 21 6 2 89 21 185 44 225 53 209 47 204 73 -10 56 -14 70 -17 74 -3 2 -112
-21 -243 -52 -132 -31 -250 -58 -264 -61 -14 -3 -33 -7 -42 -10 -27 -8 -71
-17 -93 -18 -19 -1 -34 38 -60 159 -3 11 -14 58 -25 105 -11 47 -22 95 -25
106 -3 14 1 24 11 28 12 5 153 39 294 71 8 2 38 9 65 15 28 6 59 13 70 16 74
14 115 28 115 37 0 7 -5 29 -11 50 -12 44 -7 44 -164 4 -33 -9 -73 -19 -90
-22 -16 -3 -34 -7 -40 -9 -5 -1 -28 -7 -50 -11 -55 -12 -55 -12 -57 -15 -2 -1
-10 -3 -18 -5 -8 -2 -44 -10 -80 -18 -35 -9 -68 -14 -71 -11 -6 4 -22 63 -25
94 -1 8 -4 22 -7 30 -8 18 -46 181 -53 228 -4 19 -1 32 5 33 6 1 14 2 19 3 4
1 25 6 47 11 22 5 42 9 45 10 3 0 28 7 56 14 29 7 58 14 65 15 8 2 25 6 39 9
41 11 203 49 225 53 123 24 126 26 121 58 -8 51 -12 65 -17 69 -2 1 -35 -5
-74 -15z"/>
<path d="M8045 9470 c-22 -55 -43 -100 -47 -100 -3 0 -17 17 -29 38 -13 20
-31 46 -41 56 -10 11 -18 24 -18 28 0 5 -8 18 -19 29 l-19 20 -27 -24 -28 -24
29 -39 c16 -21 31 -41 34 -44 17 -17 71 -92 69 -95 -2 -1 -31 -6 -64 -9 -97
-11 -150 -18 -153 -21 -3 -3 -6 -44 -3 -62 1 -13 40 -10 184 13 28 4 37 2 37
-8 0 -8 -3 -18 -7 -22 -5 -4 -8 -11 -9 -14 -1 -8 -8 -26 -41 -101 -22 -51 -22
-54 -6 -67 10 -8 26 -13 36 -11 17 2 26 18 72 132 5 11 7 23 7 28 -1 4 3 7 8
7 6 0 9 3 9 8 -6 35 5 25 84 -81 49 -65 61 -76 76 -68 46 25 46 37 -6 103 -28
35 -58 76 -69 92 l-18 29 27 -5 c15 -3 27 -2 27 1 0 4 10 7 23 7 59 2 131 14
137 24 4 6 5 21 4 33 -1 12 -3 25 -3 30 -1 4 -13 5 -28 3 -33 -6 -92 -14 -145
-20 -21 -3 -40 -1 -43 4 -5 8 25 96 44 130 5 9 12 30 15 47 6 28 4 32 -25 42
-18 6 -32 11 -33 11 -1 0 -19 -45 -41 -100z"/>
<path d="M2498 9324 c-43 -21 -47 -26 -39 -47 10 -26 52 -119 243 -537 44 -96
102 -223 128 -282 84 -186 79 -178 103 -169 20 8 99 43 202 91 22 10 55 24 73
32 17 7 32 16 32 19 0 3 6 6 13 6 6 0 53 20 102 43 50 24 123 58 162 76 l73
33 -13 28 c-30 69 -23 68 -133 17 -102 -47 -165 -76 -174 -79 -3 -1 -26 -11
-51 -22 -119 -54 -167 -76 -201 -93 -33 -17 -38 -17 -50 -3 -7 9 -11 17 -9 17
2 1 -3 17 -12 36 -113 244 -164 360 -159 365 3 3 0 5 -6 5 -7 0 -12 4 -12 9 0
5 -14 40 -31 78 -17 37 -30 70 -31 73 0 3 -3 10 -8 15 -4 6 -36 73 -70 150
-35 77 -68 145 -74 151 -8 8 -24 4 -58 -12z"/>
<path d="M9121 8753 c-36 -14 -70 -38 -96 -67 -52 -57 -67 -76 -61 -76 3 0 -1
-17 -8 -37 -32 -96 10 -205 157 -403 123 -166 150 -255 98 -327 -44 -60 -77
-78 -146 -77 -99 2 -207 65 -299 175 -62 73 -83 116 -122 246 -2 9 -15 7 -46
-7 -45 -20 -48 -27 -33 -94 19 -88 144 -265 240 -339 69 -52 201 -111 250
-110 85 2 152 27 212 78 60 51 88 115 87 195 -2 84 -29 143 -132 288 -132 183
-150 217 -156 287 -7 68 51 146 121 164 48 12 120 5 150 -14 13 -9 23 -13 23
-10 0 12 93 -59 141 -106 54 -54 91 -109 116 -171 9 -24 17 -44 18 -46 1 -1
23 9 48 23 l46 26 -25 57 c-45 103 -101 172 -215 267 -32 27 -114 69 -164 85
-65 21 -140 19 -204 -7z"/>
<path d="M1483 8666 l-42 -33 26 -39 c15 -21 29 -41 33 -44 3 -3 41 -52 84
-110 42 -58 86 -116 96 -130 10 -14 51 -68 90 -120 39 -52 80 -106 91 -120 11
-14 70 -93 132 -177 62 -84 115 -152 119 -153 3 0 44 28 90 63 46 34 94 70
108 79 14 10 89 66 167 125 78 59 151 115 163 123 12 8 32 24 46 34 l24 19
-27 36 c-14 20 -28 37 -29 39 -3 4 -47 -19 -54 -28 -3 -4 -50 -40 -105 -81
-55 -40 -105 -78 -112 -84 -6 -5 -46 -35 -88 -65 -42 -30 -90 -67 -107 -81
-18 -15 -36 -25 -42 -23 -6 3 -49 57 -96 120 -47 64 -92 124 -100 134 -8 11
-104 138 -213 284 -109 146 -202 266 -205 265 -4 0 -26 -15 -49 -33z"/>
<path d="M10047 8084 c-31 -21 -37 -29 -31 -47 4 -12 12 -26 19 -32 6 -5 29
-37 51 -70 21 -33 41 -62 44 -65 3 -3 27 -35 53 -72 l47 -66 -33 -21 c-18 -11
-43 -28 -55 -38 -12 -10 -43 -33 -70 -51 -26 -18 -94 -66 -152 -107 -58 -41
-112 -79 -120 -85 -8 -5 -59 -42 -113 -80 -53 -39 -102 -70 -107 -70 -6 0 -10
-4 -10 -8 0 -4 -36 -32 -80 -62 -45 -29 -83 -57 -86 -61 -6 -10 13 -44 42 -77
l21 -23 169 117 c93 65 171 121 174 124 3 4 12 10 20 13 8 4 116 79 240 166
244 173 228 166 268 105 23 -36 47 -70 116 -166 l68 -97 39 26 c41 27 47 43
26 65 -7 7 -37 49 -67 93 -30 44 -57 82 -61 85 -3 3 -20 28 -39 55 -18 28 -51
75 -72 105 -22 30 -56 80 -76 110 -40 60 -41 61 -74 105 -13 17 -39 53 -58 80
-19 28 -38 52 -42 53 -5 2 -6 8 -2 13 10 16 -11 9 -49 -17z"/>
<path d="M701 7843 l-34 -48 20 -35 c11 -19 39 -71 63 -115 24 -44 52 -96 63
-115 11 -19 38 -69 61 -110 71 -132 90 -167 119 -215 15 -26 27 -53 27 -60 0
-8 4 -15 9 -17 4 -1 29 -41 53 -88 25 -47 57 -105 70 -130 14 -25 40 -72 58
-105 49 -92 50 -92 89 -35 l33 49 -32 58 c-18 32 -47 83 -63 113 -17 30 -38
66 -48 80 -16 24 -16 27 4 55 27 39 129 177 140 190 5 6 54 71 109 145 61 82
107 135 117 134 16 -1 55 -8 101 -18 220 -47 201 -45 219 -24 9 11 24 29 34
40 9 12 17 26 17 33 0 11 -122 44 -170 47 -8 0 -40 7 -70 14 -30 8 -66 17 -80
19 -40 8 -56 11 -235 50 -93 20 -179 38 -190 40 -34 6 -78 16 -115 25 -19 5
-46 11 -60 14 -14 2 -79 16 -145 30 -66 14 -123 26 -126 26 -3 0 -20 -21 -38
-47z m207 -99 c63 -15 81 -18 135 -28 12 -2 63 -14 112 -25 173 -42 210 -50
245 -56 19 -3 35 -7 36 -8 3 -2 -129 -182 -157 -215 -10 -12 -19 -26 -19 -31
0 -5 -3 -11 -8 -13 -4 -1 -32 -37 -62 -78 -30 -41 -59 -78 -64 -82 -5 -3 -35
39 -66 95 -31 56 -69 125 -85 152 -15 28 -38 68 -50 90 -81 149 -99 181 -106
190 -15 16 -10 38 7 31 8 -3 45 -13 82 -22z"/>
<path d="M5888 7480 c-34 -16 -51 -32 -103 -93 -31 -36 -117 -134 -150 -172
-16 -18 -39 -44 -50 -57 -48 -57 -122 -142 -140 -162 -11 -11 -62 -70 -114
-131 -99 -115 -140 -161 -181 -206 -14 -15 -37 -42 -52 -61 -15 -19 -40 -48
-55 -64 -30 -33 -33 -36 -177 -204 -55 -63 -109 -124 -120 -136 -12 -12 -32
-34 -45 -50 -65 -77 -128 -150 -146 -170 -11 -11 -31 -34 -45 -50 -14 -16 -68
-78 -120 -139 -52 -60 -106 -123 -120 -139 -14 -16 -36 -42 -50 -57 -34 -37
-66 -73 -130 -149 -30 -36 -62 -72 -70 -80 -9 -8 -28 -31 -44 -50 -16 -19 -52
-62 -82 -95 -137 -155 -113 -141 -249 -149 -44 -3 -114 -8 -155 -11 -41 -3
-111 -7 -154 -10 -73 -3 -103 -15 -90 -36 2 -4 6 -24 10 -45 3 -20 10 -49 16
-63 5 -14 9 -28 9 -31 -1 -3 6 -30 15 -60 9 -30 18 -63 19 -73 5 -20 30 -48
59 -62 12 -6 21 -16 21 -22 0 -8 -98 -126 -180 -217 -5 -6 -39 -45 -75 -86
-36 -41 -69 -80 -75 -86 -53 -59 -121 -139 -127 -149 -4 -7 3 -22 16 -34 l24
-22 29 28 c17 15 74 69 128 118 54 50 114 106 135 125 36 33 164 151 260 239
l45 41 70 -7 c138 -14 582 -7 695 12 14 2 54 6 90 10 36 4 79 8 95 11 17 2 48
6 70 9 22 2 56 7 75 10 19 3 51 8 70 10 19 2 76 12 125 20 50 9 101 18 115 20
14 2 25 4 25 5 0 1 11 3 25 4 30 4 67 11 180 36 47 10 99 21 115 24 37 6 35 6
225 51 85 21 162 39 170 40 8 2 15 4 15 5 0 1 172 49 202 55 12 3 102 30 200
59 624 190 1143 427 1403 641 76 62 159 158 173 198 14 43 16 198 3 255 -22
98 -82 282 -91 282 -3 0 -174 -114 -190 -127 -5 -5 -28 -20 -50 -33 -22 -13
-46 -30 -53 -37 -7 -7 -18 -13 -23 -13 -5 0 -15 -5 -22 -11 -20 -17 -277 -168
-277 -162 0 3 -6 0 -13 -6 -21 -17 -258 -139 -397 -204 -143 -67 -356 -154
-515 -211 -153 -55 -167 -60 -190 -66 -5 -2 -41 -14 -80 -27 -38 -13 -104 -33
-145 -44 -99 -27 -249 -66 -280 -73 -14 -3 -63 -15 -110 -26 -47 -11 -96 -23
-110 -26 -14 -3 -33 -7 -42 -10 -10 -3 -30 -7 -45 -10 -28 -4 -56 -10 -103
-20 -14 -2 -36 -7 -50 -9 -14 -3 -61 -12 -105 -20 -44 -9 -91 -17 -105 -20
-25 -4 -193 -32 -240 -41 -14 -2 -47 -7 -75 -10 -27 -3 -58 -8 -69 -11 -10 -3
-35 -7 -55 -9 -20 -2 -57 -5 -83 -8 -26 -2 -52 -7 -58 -11 -5 -3 -10 -2 -10 3
0 4 35 40 78 79 82 76 191 176 252 233 20 19 84 78 140 130 57 52 126 116 154
143 61 57 94 61 154 17 85 -61 97 -56 247 115 33 37 71 80 85 95 14 15 52 58
85 95 76 87 136 154 155 175 8 8 44 49 80 90 36 40 72 81 80 90 8 9 49 54 90
100 41 46 86 95 98 109 13 14 47 53 75 85 29 33 57 64 63 70 5 6 34 38 63 71
30 33 68 76 85 95 17 19 63 71 101 115 39 44 73 82 76 85 28 23 33 105 10 151
-7 15 -24 33 -37 40 -13 7 -24 16 -24 21 0 4 -6 8 -14 8 -8 0 -16 3 -18 8 -1
4 -23 23 -48 42 -25 19 -47 37 -50 40 -3 4 -26 21 -52 38 -58 40 -118 48 -170
22z m-2085 -2574 c55 -48 50 -130 -10 -167 -91 -57 -201 46 -149 140 29 52
113 66 159 27z"/>
<path d="M10320 6804 c-113 -22 -188 -55 -270 -121 -163 -132 -236 -347 -190
-567 6 -31 11 -58 11 -61 0 -11 52 -121 64 -135 8 -8 13 -18 12 -22 -4 -15
102 -125 155 -161 208 -144 524 -119 710 56 123 115 177 232 180 387 8 401
-306 693 -672 624z m238 -123 c199 -55 336 -255 327 -482 -10 -263 -210 -441
-487 -434 -88 2 -104 6 -171 37 -197 94 -305 318 -262 543 10 54 69 162 113
208 35 36 107 85 126 85 5 0 12 5 16 11 3 6 16 14 28 16 12 3 32 7 45 10 100
25 189 26 265 6z"/>
<path d="M244 6791 c-103 -63 -198 -223 -230 -391 -12 -63 -10 -194 3 -250 8
-30 15 -59 16 -65 2 -5 16 -37 32 -70 39 -77 151 -191 230 -232 168 -88 373
-90 538 -6 54 27 58 30 123 88 164 146 232 425 162 660 -13 43 -45 96 -56 93
-4 -1 -41 6 -82 15 -41 10 -85 19 -98 22 -13 2 -32 7 -42 10 -21 7 -54 14 -90
20 -14 2 -40 7 -57 11 -25 5 -33 3 -34 -7 -1 -17 -6 -45 -13 -74 -5 -21 4 -24
170 -66 189 -47 194 -49 198 -70 2 -8 7 -23 12 -34 5 -11 8 -69 8 -130 0 -88
-5 -123 -23 -175 -13 -36 -30 -72 -37 -81 -8 -8 -14 -20 -14 -26 0 -6 -26 -38
-58 -71 -125 -129 -283 -167 -465 -112 -93 29 -120 45 -204 129 -52 53 -103
141 -103 180 0 10 -3 21 -7 25 -14 13 -19 139 -8 186 3 14 8 36 10 50 14 88
72 188 151 257 l54 48 -28 42 -28 42 -30 -18z"/>
<path d="M9945 5278 c-30 -94 -30 -94 33 -109 32 -7 62 -14 67 -15 6 0 17 -3
25 -7 21 -7 100 -28 126 -32 12 -1 31 -8 42 -14 18 -9 20 -16 12 -36 -5 -14
-12 -37 -15 -50 -3 -14 -7 -37 -10 -52 -3 -14 -10 -34 -16 -45 -5 -10 -8 -18
-5 -18 2 0 -3 -21 -11 -47 -13 -44 -21 -77 -27 -111 -3 -19 -16 -27 -76 -50
-30 -12 -68 -27 -85 -33 -16 -7 -32 -13 -35 -13 -3 -1 -50 -19 -105 -40 -98
-38 -119 -50 -121 -64 0 -4 -6 -25 -12 -46 -6 -22 -9 -42 -7 -45 3 -2 20 0 38
6 90 30 194 66 209 74 38 19 178 62 184 56 3 -3 8 -23 10 -43 7 -76 68 -171
144 -227 70 -51 218 -83 300 -64 33 7 95 30 109 41 36 26 141 140 141 152 0 8
5 14 10 14 6 0 10 6 10 13 0 8 7 28 16 45 8 17 17 43 20 57 2 13 9 36 14 50 5
14 7 25 5 25 -2 0 0 12 6 28 17 45 89 326 84 330 -3 4 -103 34 -157 48 -43 10
-59 14 -79 19 -12 2 -45 11 -73 19 -49 14 -241 66 -261 70 -5 2 -30 8 -55 15
-25 7 -52 15 -60 16 -8 2 -49 13 -90 25 -41 11 -83 22 -93 25 -21 5 -164 43
-188 51 -11 3 -19 -3 -24 -18z m510 -238 c22 -6 47 -13 55 -14 8 -2 22 -6 30
-9 19 -7 207 -56 240 -63 21 -4 59 -14 107 -29 9 -3 9 -13 2 -41 -6 -20 -12
-44 -15 -53 -5 -21 -18 -72 -39 -146 -9 -33 -19 -71 -21 -85 -8 -39 -55 -119
-94 -158 -106 -106 -285 -97 -397 20 -18 18 -32 35 -32 38 0 3 -5 19 -12 35
-19 46 -21 174 -3 231 8 27 17 56 19 65 8 36 58 225 61 231 2 3 16 2 32 -2 15
-5 45 -14 67 -20z"/>
<path d="M356 4701 c-3 -9 -8 -29 -10 -46 -6 -31 -17 -100 -21 -124 -4 -28
-20 -21 -75 30 -30 28 -66 59 -80 69 -25 18 -26 18 -48 -7 -26 -29 -27 -39 -8
-50 7 -4 37 -28 66 -53 29 -25 60 -50 69 -57 23 -16 11 -24 -92 -60 -83 -28
-92 -34 -89 -55 5 -41 18 -42 120 -5 55 20 102 33 105 30 3 -3 2 -16 -3 -29
-5 -13 -12 -45 -16 -71 -3 -26 -9 -57 -13 -68 -13 -36 -7 -49 28 -57 18 -5 35
-8 36 -6 5 4 12 42 26 133 6 39 14 74 18 78 4 4 43 -26 86 -67 44 -40 84 -72
89 -70 6 3 19 15 28 28 17 24 17 25 -30 63 -26 21 -64 54 -86 74 l-38 37 53
18 c30 10 56 18 59 19 3 0 26 8 51 18 l47 18 -11 34 c-9 31 -13 34 -36 28 -14
-3 -30 -9 -36 -13 -11 -8 -88 -34 -93 -31 -1 1 -16 -6 -33 -15 -29 -15 -31
-14 -25 3 3 10 8 34 11 53 3 19 10 59 15 89 14 76 14 76 -25 77 -24 1 -36 -4
-39 -15z"/>
<path d="M9470 4090 c-52 -71 -98 -129 -102 -130 -5 0 -8 -7 -8 -15 0 -8 -4
-15 -9 -15 -5 0 -18 -15 -29 -32 -11 -18 -27 -42 -36 -53 -9 -11 -56 -72 -105
-136 l-88 -116 38 -31 38 -32 33 36 c18 20 37 43 42 52 10 17 111 146 134 170
6 7 12 17 12 21 0 4 9 17 19 28 11 12 49 60 85 107 87 114 99 127 106 118 3
-5 70 -58 150 -118 79 -60 150 -113 157 -119 10 -8 5 -19 -20 -51 -17 -22 -43
-56 -57 -74 -14 -18 -45 -59 -70 -90 -25 -31 -56 -72 -70 -90 -14 -18 -48 -63
-76 -99 l-51 -66 31 -27 c39 -34 48 -35 72 -1 10 14 26 33 34 42 9 9 31 39 50
66 19 27 42 57 50 67 8 9 53 69 100 132 47 63 88 115 91 116 5 0 168 -117 179
-130 3 -3 32 -25 65 -49 33 -25 63 -49 66 -54 4 -5 -16 -40 -45 -76 -28 -37
-60 -80 -71 -95 -11 -16 -25 -33 -30 -40 -6 -6 -33 -41 -60 -78 -27 -38 -52
-68 -57 -68 -4 0 -8 -4 -8 -10 0 -5 -25 -42 -55 -81 l-55 -71 36 -29 c20 -16
40 -29 44 -29 4 0 52 60 106 132 100 134 120 161 139 182 6 6 22 27 35 46 13
19 27 37 30 40 3 3 17 21 30 40 14 19 28 40 32 45 5 6 22 28 38 50 16 22 35
46 41 53 6 7 9 16 7 21 -2 4 -97 79 -213 166 -115 87 -212 161 -215 164 -3 3
-23 19 -46 34 -22 15 -49 35 -60 45 -41 36 -144 112 -153 112 -5 0 -11 4 -13
9 -4 10 -179 141 -187 140 -3 0 -49 -58 -101 -129z"/>
<path d="M1541 3905 l-34 -35 156 -157 c86 -87 192 -196 237 -242 l81 -84
-148 -145 -148 -144 -202 208 -202 209 -39 -38 -39 -39 127 -131 c227 -233
260 -269 260 -280 0 -5 -59 -70 -132 -143 l-131 -133 -124 127 c-69 70 -169
173 -224 230 -55 56 -103 102 -107 102 -4 0 -22 -15 -39 -34 l-32 -33 107
-110 c59 -61 177 -183 262 -272 85 -88 158 -161 163 -161 4 0 79 69 165 154
86 84 209 204 272 266 208 202 360 352 360 355 0 2 -39 43 -86 92 -47 48 -170
175 -272 280 -103 106 -189 193 -192 193 -3 0 -20 -16 -39 -35z"/>
<path d="M2346 3158 c4 -57 13 -151 18 -193 9 -75 18 -160 20 -197 l2 -37 -70
1 c-39 0 -89 -4 -111 -10 -62 -18 -140 -71 -185 -129 -51 -64 -89 -182 -84
-257 4 -49 34 -146 45 -146 5 0 9 -7 9 -15 0 -25 131 -149 195 -185 33 -18 80
-44 105 -58 25 -14 74 -42 109 -64 34 -21 65 -38 67 -38 3 0 22 -11 44 -25 22
-14 44 -25 48 -25 5 0 17 18 27 40 10 22 22 40 27 40 4 0 8 4 8 10 0 5 13 31
29 58 29 49 57 99 107 187 15 28 32 52 36 53 4 2 8 8 8 13 0 5 32 64 72 132
39 67 76 132 82 144 6 13 14 23 19 23 4 0 7 9 7 19 0 11 3 21 8 23 10 4 92
144 92 157 0 6 4 11 8 11 5 0 14 11 20 25 12 27 16 22 -61 69 -33 20 -33 20
-92 -89 -57 -104 -91 -164 -105 -182 -15 -20 -18 -19 -170 68 -85 48 -161 92
-168 96 -7 4 -15 26 -17 48 -7 67 -15 147 -21 224 -3 41 -8 81 -9 90 -2 9 -4
30 -4 47 -1 26 -10 37 -56 68 -30 20 -56 36 -58 36 -2 0 -3 -15 -1 -32z m64
-554 c21 -4 119 -56 180 -94 8 -5 54 -32 103 -60 60 -35 87 -56 87 -70 0 -10
-3 -20 -8 -22 -4 -1 -55 -84 -112 -183 -58 -98 -111 -188 -117 -200 -7 -11
-16 -28 -19 -38 -8 -21 -27 -17 -92 23 -26 15 -92 54 -147 86 -166 96 -230
180 -227 299 1 45 9 75 33 123 18 34 35 62 38 62 3 0 18 11 32 24 55 51 142
79 194 64 17 -5 41 -11 55 -14z"/>
<path d="M8950 2548 c-8 -13 -29 -56 -47 -97 -17 -40 -35 -76 -38 -80 -8 -7
-13 0 -77 103 l-48 75 -30 -15 c-16 -9 -30 -17 -30 -20 0 -2 11 -22 25 -44 14
-22 25 -44 25 -50 0 -5 4 -10 9 -10 5 0 16 -16 25 -35 9 -19 21 -37 26 -40 6
-3 10 -11 10 -16 0 -6 -5 -7 -10 -4 -11 7 -73 8 -165 3 -50 -3 -50 -3 -50 -38
l0 -35 85 3 c47 2 97 5 112 6 l27 3 -22 -41 c-12 -22 -25 -43 -28 -46 -11 -9
-59 -97 -59 -107 0 -11 58 -39 64 -32 2 2 25 46 50 97 26 50 50 92 54 92 4 0
32 -41 62 -90 30 -50 57 -90 61 -90 3 0 18 9 32 20 l26 21 -45 67 c-25 37 -47
75 -51 85 -3 9 -10 17 -15 17 -5 0 -6 4 -3 10 3 5 36 9 73 9 37 0 86 0 110 0
l43 1 -3 38 -3 37 -70 -2 c-38 -1 -87 -4 -107 -7 -22 -2 -38 0 -38 6 0 6 22
52 50 103 l50 92 -28 14 c-15 7 -29 15 -32 16 -3 2 -12 -7 -20 -19z"/>
<path d="M7295 2545 c-180 -45 -292 -123 -381 -263 -2 -2 -45 19 -97 47 -95
51 -117 53 -117 11 0 -9 -5 -21 -12 -28 -15 -15 -9 -21 67 -62 113 -61 127
-71 120 -89 -10 -23 -30 -161 -29 -191 4 -71 1 -67 49 -68 29 -1 45 3 46 11 0
7 2 53 3 103 2 50 6 96 10 102 4 7 31 -3 75 -29 37 -21 72 -39 76 -39 5 0 16
-6 24 -14 14 -12 121 -72 178 -100 29 -14 29 -25 1 -56 -41 -45 -75 -94 -102
-149 -60 -118 -15 -259 99 -307 37 -15 145 -21 165 -9 6 3 22 9 36 11 61 11
118 51 170 119 87 113 66 226 -64 338 -17 15 -36 27 -42 27 -5 0 -10 5 -10 10
0 6 -6 10 -13 10 -7 0 -18 5 -25 12 -9 9 -3 19 23 44 19 18 35 37 35 42 0 5 7
15 15 22 23 19 82 130 91 170 29 133 -40 260 -168 308 -47 18 -180 28 -223 17z
m138 -106 c80 -22 137 -106 137 -202 0 -48 -43 -132 -103 -201 l-43 -49 -59
32 c-33 18 -73 40 -90 50 -33 19 -139 78 -195 107 -19 11 -36 22 -38 27 -2 4
-9 7 -16 7 -7 0 -17 5 -23 11 -15 15 30 82 89 134 91 78 234 114 341 84z m65
-608 c82 -53 117 -107 116 -178 0 -50 -3 -57 -42 -92 -67 -62 -164 -80 -225
-42 -70 43 -81 137 -26 219 39 57 101 132 110 132 3 0 33 -18 67 -39z"/>
<path d="M3728 2495 c-2 -2 -23 -5 -48 -9 -46 -6 -83 -13 -87 -16 -2 -2 -6 -3
-10 -4 -5 -1 -35 -15 -68 -31 -73 -36 -188 -148 -232 -225 -63 -112 -89 -249
-72 -380 9 -65 52 -184 76 -208 7 -7 13 -16 13 -20 0 -4 22 -30 49 -59 57 -61
158 -129 221 -148 13 -4 97 -28 115 -32 48 -13 214 -11 267 3 147 38 255 117
340 248 21 33 38 63 38 67 0 4 5 20 11 36 6 15 10 28 9 28 -1 0 4 13 10 29 6
16 13 47 16 70 35 275 -115 511 -391 615 -56 21 -244 47 -257 36z m176 -116
c43 0 170 -72 226 -128 45 -44 98 -125 106 -161 0 -3 3 -12 7 -20 25 -64 28
-174 6 -262 -7 -29 -12 -56 -11 -60 1 -5 -2 -8 -6 -8 -5 0 -14 -16 -22 -35 -8
-19 -17 -35 -22 -35 -4 0 -8 -6 -8 -14 0 -22 -112 -120 -166 -146 -123 -58
-279 -63 -399 -13 -38 16 -81 38 -95 48 -57 45 -121 117 -143 162 -21 42 -28
61 -44 123 -10 40 -8 151 4 203 20 87 74 183 130 234 101 90 251 139 368 121
28 -5 58 -9 69 -9z"/>
<path d="M4793 2258 c-1 -7 -4 -141 -7 -298 -3 -157 -8 -403 -11 -547 l-6
-263 33 -1 c18 -1 40 -2 48 -3 14 -1 60 55 60 74 0 5 6 15 13 22 7 7 47 72 90
143 43 72 82 137 87 145 78 127 140 231 140 235 0 3 5 11 11 18 6 7 32 47 58
91 26 43 51 78 56 78 7 0 28 -33 83 -132 11 -19 61 -109 112 -200 51 -91 107
-190 124 -220 17 -31 58 -104 91 -163 l60 -107 47 0 c39 0 48 3 49 18 2 31 21
953 22 1050 0 23 -2 45 -5 47 -7 7 -97 9 -104 2 -6 -5 -12 -290 -17 -764 -1
-61 -5 -109 -8 -107 -4 2 -26 39 -50 82 -23 42 -51 93 -62 112 -11 19 -50 89
-87 155 -173 309 -213 379 -225 387 -20 15 -50 8 -64 -14 -43 -68 -271 -441
-271 -444 0 -2 -17 -30 -37 -61 -21 -32 -59 -94 -86 -138 l-47 -80 6 340 c3
187 7 388 8 448 l2 107 -56 0 c-38 0 -57 -4 -57 -12z"/>
</g>
</svg>
